Kameron-Regular_Pre-Hint.ufo
<glyph name="exclam" format="1">
  <advance width="596"/>
  <unicode hex="0021"/>
  <outline>
    <contour>
      <point x="208" y="1290" type="line"/>
      <point x="207" y="1286"/>
      <point x="207" y="1164"/>
      <point x="207" y="1160" type="curve" smooth="yes"/>
      <point x="207" y="1132"/>
      <point x="252" y="397"/>
      <point x="257" y="371" type="curve"/>
      <point x="328" y="371" type="line"/>
      <point x="333" y="398"/>
      <point x="380" y="1132"/>
      <point x="380" y="1159" type="curve" smooth="yes"/>
      <point x="380" y="1164"/>
      <point x="380" y="1286"/>
      <point x="379" y="1290" type="curve"/>
    </contour>
    <contour>
      <point x="288" y="172" type="curve" smooth="yes"/>
      <point x="211" y="172"/>
      <point x="180" y="129"/>
      <point x="180" y="82" type="curve" smooth="yes"/>
      <point x="180" y="32"/>
      <point x="211" y="-9"/>
      <point x="288" y="-9" type="curve" smooth="yes"/>
      <point x="365" y="-9"/>
      <point x="395" y="34"/>
      <point x="395" y="82" type="curve" smooth="yes"/>
      <point x="395" y="129"/>
      <point x="363" y="172"/>
    </contour>
  </outline>
</glyph>
<glyph name="quotedbl" format="1">
  <advance width="628"/>
  <unicode hex="0022"/>
  <outline>
    <contour>
      <point x="173" y="880" type="curve"/>
      <point x="234" y="880" type="line"/>
      <point x="261" y="1047"/>
      <point x="286" y="1180"/>
      <point x="286" y="1307" type="curve" smooth="yes"/>
      <point x="286" y="1371"/>
      <point x="247" y="1401"/>
      <point x="207" y="1401" type="curve" smooth="yes"/>
      <point x="164" y="1401"/>
      <point x="120" y="1367"/>
      <point x="120" y="1303" type="curve" smooth="yes"/>
      <point x="120" y="1172"/>
      <point x="154" y="1020"/>
    </contour>
    <contour>
      <point x="430" y="880" type="curve"/>
      <point x="491" y="880" type="line"/>
      <point x="518" y="1047"/>
      <point x="543" y="1180"/>
      <point x="543" y="1307" type="curve" smooth="yes"/>
      <point x="543" y="1371"/>
      <point x="504" y="1401"/>
      <point x="464" y="1401" type="curve" smooth="yes"/>
      <point x="421" y="1401"/>
      <point x="377" y="1367"/>
      <point x="377" y="1303" type="curve" smooth="yes"/>
      <point x="377" y="1172"/>
      <point x="411" y="1020"/>
    </contour>
  </outline>
</glyph>
<glyph name="numbersign" format="1">
  <advance width="1471"/>
  <unicode hex="0023"/>
  <outline>
    <contour>
      <point x="780" y="1407" type="line"/>
      <point x="650" y="1407" type="line"/>
      <point x="526" y="980" type="line"/>
      <point x="210" y="980" type="line"/>
      <point x="187" y="864" type="line"/>
      <point x="491" y="864" type="line"/>
      <point x="403" y="544" type="line"/>
      <point x="150" y="544" type="line"/>
      <point x="128" y="426" type="line"/>
      <point x="372" y="426" type="line"/>
      <point x="245" y="2" type="line"/>
      <point x="373" y="2" type="line"/>
      <point x="499" y="426" type="line"/>
      <point x="826" y="426" type="line"/>
      <point x="700" y="2" type="line"/>
      <point x="829" y="2" type="line"/>
      <point x="956" y="426" type="line"/>
      <point x="1261" y="426" type="line"/>
      <point x="1284" y="544" type="line"/>
      <point x="990" y="544" type="line"/>
      <point x="1077" y="864" type="line"/>
      <point x="1323" y="864" type="line"/>
      <point x="1344" y="980" type="line"/>
      <point x="1112" y="980" type="line"/>
      <point x="1236" y="1407" type="line"/>
      <point x="1109" y="1407" type="line"/>
      <point x="983" y="980" type="line"/>
      <point x="654" y="980" type="line"/>
    </contour>
    <contour>
      <point x="950" y="864" type="line"/>
      <point x="862" y="544" type="line"/>
      <point x="532" y="544" type="line"/>
      <point x="620" y="864" type="line"/>
    </contour>
  </outline>
</glyph>
<glyph name="dollar" format="1">
  <advance width="1110"/>
  <unicode hex="0024"/>
  <outline>
    <contour>
      <point x="516" y="1408" type="line"/>
      <point x="516" y="1276" type="line"/>
      <point x="279" y="1260"/>
      <point x="138" y="1139"/>
      <point x="138" y="954" type="curve" smooth="yes"/>
      <point x="138" y="784"/>
      <point x="268" y="662"/>
      <point x="514" y="604" type="curve"/>
      <point x="514" y="81" type="line"/>
      <point x="318" y="90"/>
      <point x="241" y="163"/>
      <point x="231" y="331" type="curve"/>
      <point x="114" y="331" type="line"/>
      <point x="114" y="330"/>
      <point x="114" y="138"/>
      <point x="114" y="109" type="curve"/>
      <point x="205" y="37"/>
      <point x="341" y="-4"/>
      <point x="514" y="-11" type="curve"/>
      <point x="514" y="-184" type="line"/>
      <point x="608" y="-184" type="line"/>
      <point x="608" y="-11" type="line"/>
      <point x="866" y="7"/>
      <point x="1016" y="148"/>
      <point x="1016" y="348" type="curve" smooth="yes"/>
      <point x="1016" y="529"/>
      <point x="906" y="648"/>
      <point x="609" y="720" type="curve"/>
      <point x="609" y="1184" type="line"/>
      <point x="784" y="1172"/>
      <point x="848" y="1102"/>
      <point x="848" y="957" type="curve"/>
      <point x="964" y="957" type="line"/>
      <point x="963" y="1166" type="line"/>
      <point x="858" y="1230"/>
      <point x="741" y="1266"/>
      <point x="609" y="1278" type="curve"/>
      <point x="609" y="1408" type="line"/>
    </contour>
    <contour>
      <point x="516" y="1186" type="curve"/>
      <point x="516" y="746" type="line"/>
      <point x="356" y="794"/>
      <point x="284" y="862"/>
      <point x="284" y="973" type="curve" smooth="yes"/>
      <point x="284" y="1094"/>
      <point x="371" y="1172"/>
    </contour>
    <contour>
      <point x="608" y="578" type="curve"/>
      <point x="789" y="537"/>
      <point x="869" y="449"/>
      <point x="869" y="330" type="curve" smooth="yes"/>
      <point x="869" y="185"/>
      <point x="768" y="97"/>
      <point x="608" y="82" type="curve"/>
      <point x="608" y="247"/>
      <point x="608" y="413"/>
    </contour>
  </outline>
</glyph>
<glyph name="percent" format="1">
  <advance width="1715"/>
  <unicode hex="0025"/>
  <outline>
    <contour>
      <point x="377" y="1243" type="curve" smooth="yes"/>
      <point x="495" y="1243"/>
      <point x="552" y="1152"/>
      <point x="552" y="961" type="curve" smooth="yes"/>
      <point x="552" y="777"/>
      <point x="491" y="682"/>
      <point x="380" y="682" type="curve" smooth="yes"/>
      <point x="268" y="682"/>
      <point x="210" y="777"/>
      <point x="210" y="960" type="curve" smooth="yes"/>
      <point x="210" y="1147"/>
      <point x="265" y="1243"/>
    </contour>
    <contour>
      <point x="382" y="1315" type="curve" smooth="yes"/>
      <point x="188" y="1315"/>
      <point x="79" y="1186"/>
      <point x="79" y="963" type="curve" smooth="yes"/>
      <point x="79" y="738"/>
      <point x="187" y="610"/>
      <point x="377" y="610" type="curve" smooth="yes"/>
      <point x="571" y="610"/>
      <point x="679" y="736"/>
      <point x="679" y="964" type="curve" smooth="yes"/>
      <point x="679" y="1185"/>
      <point x="572" y="1315"/>
    </contour>
    <contour>
      <point x="1253" y="1304" type="line"/>
      <point x="353" y="-14" type="line"/>
      <point x="462" y="-14" type="line"/>
      <point x="1362" y="1304" type="line"/>
    </contour>
    <contour>
      <point x="1333" y="613" type="curve" smooth="yes"/>
      <point x="1451" y="613"/>
      <point x="1508" y="521"/>
      <point x="1508" y="329" type="curve" smooth="yes"/>
      <point x="1508" y="146"/>
      <point x="1448" y="53"/>
      <point x="1335" y="53" type="curve" smooth="yes"/>
      <point x="1223" y="53"/>
      <point x="1164" y="147"/>
      <point x="1164" y="329" type="curve" smooth="yes"/>
      <point x="1164" y="516"/>
      <point x="1221" y="613"/>
    </contour>
    <contour>
      <point x="1339" y="685" type="curve" smooth="yes"/>
      <point x="1144" y="685"/>
      <point x="1035" y="556"/>
      <point x="1035" y="332" type="curve" smooth="yes"/>
      <point x="1035" y="107"/>
      <point x="1142" y="-20"/>
      <point x="1332" y="-20" type="curve" smooth="yes"/>
      <point x="1525" y="-20"/>
      <point x="1635" y="108"/>
      <point x="1635" y="327" type="curve" smooth="yes"/>
      <point x="1635" y="557"/>
      <point x="1530" y="685"/>
    </contour>
  </outline>
</glyph>
<glyph name="ampersand" format="1">
  <advance width="1540"/>
  <unicode hex="0026"/>
  <outline>
    <contour>
      <point x="1097" y="1053" type="line"/>
      <point x="1097" y="1053"/>
      <point x="1080" y="924"/>
      <point x="1078" y="895" type="curve"/>
      <point x="488" y="895" type="line"/>
      <point x="463" y="947"/>
      <point x="450" y="998"/>
      <point x="450" y="1045" type="curve" smooth="yes"/>
      <point x="450" y="1175"/>
      <point x="484" y="1284"/>
      <point x="673" y="1284" type="curve" smooth="yes"/>
      <point x="797" y="1284"/>
      <point x="873" y="1196"/>
      <point x="880" y="1085" type="curve"/>
      <point x="971" y="1095" type="line"/>
      <point x="958" y="1305" type="line"/>
      <point x="881" y="1344"/>
      <point x="799" y="1370"/>
      <point x="675" y="1370" type="curve" smooth="yes"/>
      <point x="430" y="1370"/>
      <point x="315" y="1233"/>
      <point x="315" y="1062" type="curve" smooth="yes"/>
      <point x="315" y="1000"/>
      <point x="335" y="934"/>
      <point x="379" y="868" type="curve"/>
      <point x="197" y="758"/>
      <point x="111" y="593"/>
      <point x="111" y="435" type="curve" smooth="yes"/>
      <point x="111" y="200"/>
      <point x="301" y="-20"/>
      <point x="649" y="-20" type="curve" smooth="yes"/>
      <point x="793" y="-20"/>
      <point x="948" y="14"/>
      <point x="1091" y="83" type="curve"/>
      <point x="1122" y="15"/>
      <point x="1180" y="-23"/>
      <point x="1284" y="-23" type="curve" smooth="yes"/>
      <point x="1394" y="-23"/>
      <point x="1488" y="45"/>
      <point x="1488" y="201" type="curve"/>
      <point x="1396" y="192" type="line"/>
      <point x="1396" y="112"/>
      <point x="1359" y="84"/>
      <point x="1320" y="84" type="curve" smooth="yes"/>
      <point x="1226" y="84"/>
      <point x="1228" y="170"/>
      <point x="1228" y="305" type="curve" smooth="yes"/>
      <point x="1228" y="806" type="line"/>
      <point x="1466" y="806" type="line"/>
      <point x="1466" y="895" type="line"/>
      <point x="1226" y="895" type="line"/>
      <point x="1226" y="1126" type="line"/>
    </contour>
    <contour>
      <point x="479" y="806" type="curve"/>
      <point x="1060" y="806" type="line"/>
      <point x="1060" y="302" type="line" smooth="yes"/>
      <point x="1060" y="263"/>
      <point x="1061" y="223"/>
      <point x="1064" y="191" type="curve"/>
      <point x="923" y="122"/>
      <point x="788" y="91"/>
      <point x="670" y="91" type="curve" smooth="yes"/>
      <point x="405" y="91"/>
      <point x="270" y="259"/>
      <point x="270" y="442" type="curve" smooth="yes"/>
      <point x="270" y="573"/>
      <point x="339" y="717"/>
    </contour>
  </outline>
</glyph>
<glyph name="quotesingle" format="1">
  <advance width="405"/>
  <unicode hex="0027"/>
  <outline>
    <contour>
      <point x="173" y="880" type="curve"/>
      <point x="234" y="880" type="line"/>
      <point x="261" y="1047"/>
      <point x="286" y="1180"/>
      <point x="286" y="1307" type="curve" smooth="yes"/>
      <point x="286" y="1371"/>
      <point x="247" y="1401"/>
      <point x="207" y="1401" type="curve" smooth="yes"/>
      <point x="164" y="1401"/>
      <point x="120" y="1367"/>
      <point x="120" y="1303" type="curve" smooth="yes"/>
      <point x="120" y="1172"/>
      <point x="154" y="1020"/>
    </contour>
  </outline>
</glyph>
<glyph name="parenleft" format="1">
  <advance width="700"/>
  <unicode hex="0028"/>
  <outline>
    <contour>
      <point x="563" y="1302" type="line"/>
      <point x="262" y="1118"/>
      <point x="155" y="793"/>
      <point x="155" y="473" type="curve" smooth="yes"/>
      <point x="155" y="179"/>
      <point x="258" y="-145"/>
      <point x="561" y="-338" type="curve"/>
      <point x="638" y="-284" type="line"/>
      <point x="422" y="-91"/>
      <point x="326" y="150"/>
      <point x="326" y="483" type="curve" smooth="yes"/>
      <point x="326" y="816"/>
      <point x="427" y="1063"/>
      <point x="640" y="1247" type="curve"/>
    </contour>
  </outline>
</glyph>
<glyph name="parenright" format="1">
  <advance width="700"/>
  <unicode hex="0029"/>
  <outline>
    <contour>
      <point x="148" y="1302" type="curve"/>
      <point x="117" y="1287"/>
      <point x="87" y="1272"/>
      <point x="57" y="1257" type="curve"/>
      <point x="275" y="1063"/>
      <point x="374" y="821"/>
      <point x="374" y="490" type="curve" smooth="yes"/>
      <point x="374" y="153"/>
      <point x="275" y="-95"/>
      <point x="57" y="-284" type="curve"/>
      <point x="135" y="-338" type="line"/>
      <point x="443" y="-144"/>
      <point x="545" y="180"/>
      <point x="545" y="493" type="curve" smooth="yes"/>
      <point x="545" y="794"/>
      <point x="436" y="1101"/>
    </contour>
  </outline>
</glyph>
<glyph name="asterisk" format="1">
  <advance width="946"/>
  <unicode hex="002A"/>
  <outline>
    <contour>
      <point x="407" y="551" type="curve"/>
      <point x="407" y="415" type="line"/>
      <point x="542" y="415" type="line"/>
      <point x="534" y="550" type="line"/>
      <point x="504" y="608"/>
      <point x="494" y="665"/>
      <point x="491" y="735" type="curve"/>
      <point x="561" y="683"/>
      <point x="598" y="644"/>
      <point x="626" y="597" type="curve"/>
      <point x="736" y="514" type="line"/>
      <point x="816" y="628" type="line"/>
      <point x="699" y="699" type="line"/>
      <point x="627" y="708"/>
      <point x="570" y="736"/>
      <point x="505" y="778" type="curve"/>
      <point x="571" y="821"/>
      <point x="627" y="847"/>
      <point x="698" y="855" type="curve"/>
      <point x="816" y="927" type="line"/>
      <point x="736" y="1041" type="line"/>
      <point x="626" y="958" type="line"/>
      <point x="598" y="913"/>
      <point x="560" y="872"/>
      <point x="491" y="822" type="curve"/>
      <point x="495" y="892"/>
      <point x="504" y="947"/>
      <point x="534" y="1006" type="curve"/>
      <point x="542" y="1140" type="line"/>
      <point x="400" y="1140" type="line"/>
      <point x="407" y="1005" type="line"/>
      <point x="430" y="954"/>
      <point x="443" y="901"/>
      <point x="447" y="818" type="curve"/>
      <point x="389" y="859"/>
      <point x="347" y="901"/>
      <point x="315" y="958" type="curve"/>
      <point x="206" y="1041" type="line"/>
      <point x="126" y="927" type="line"/>
      <point x="244" y="855" type="line"/>
      <point x="299" y="846"/>
      <point x="352" y="825"/>
      <point x="426" y="778" type="curve"/>
      <point x="353" y="733"/>
      <point x="299" y="709"/>
      <point x="244" y="699" type="curve"/>
      <point x="126" y="628" type="line"/>
      <point x="206" y="514" type="line"/>
      <point x="315" y="597" type="line"/>
      <point x="347" y="655"/>
      <point x="388" y="696"/>
      <point x="447" y="740" type="curve"/>
      <point x="443" y="654"/>
      <point x="431" y="601"/>
    </contour>
  </outline>
</glyph>
<glyph name="plus" format="1">
  <advance width="1536"/>
  <unicode hex="002B"/>
  <outline>
    <contour>
      <point x="830" y="1181" type="line"/>
      <point x="707" y="1181" type="line"/>
      <point x="707" y="680" type="line"/>
      <point x="197" y="680" type="line"/>
      <point x="197" y="560" type="line"/>
      <point x="707" y="560" type="line"/>
      <point x="707" y="58" type="line"/>
      <point x="830" y="58" type="line"/>
      <point x="830" y="560" type="line"/>
      <point x="1338" y="560" type="line"/>
      <point x="1338" y="680" type="line"/>
      <point x="830" y="680" type="line"/>
    </contour>
  </outline>
</glyph>
<glyph name="comma" format="1">
  <advance width="560"/>
  <unicode hex="002C"/>
  <outline>
    <contour>
      <point x="175" y="190" type="line"/>
      <point x="152" y="9" type="line"/>
      <point x="219" y="4" type="line"/>
      <point x="208" y="-89"/>
      <point x="195" y="-155"/>
      <point x="147" y="-188" type="curve"/>
      <point x="205" y="-242" type="line"/>
      <point x="287" y="-206"/>
      <point x="337" y="-116"/>
      <point x="361" y="-1" type="curve" smooth="yes"/>
      <point x="401" y="190" type="line"/>
    </contour>
  </outline>
</glyph>
<glyph name="period" format="1">
  <advance width="543"/>
  <unicode hex="002E"/>
  <outline>
    <contour>
      <point x="271" y="192" type="curve" smooth="yes"/>
      <point x="195" y="192"/>
      <point x="167" y="139"/>
      <point x="167" y="92" type="curve" smooth="yes"/>
      <point x="167" y="42"/>
      <point x="194" y="-9"/>
      <point x="271" y="-9" type="curve" smooth="yes"/>
      <point x="348" y="-9"/>
      <point x="376" y="44"/>
      <point x="376" y="92" type="curve" smooth="yes"/>
      <point x="376" y="139"/>
      <point x="347" y="192"/>
    </contour>
  </outline>
</glyph>
<glyph name="slash" format="1">
  <advance width="559"/>
  <unicode hex="002F"/>
  <outline>
    <contour>
      <point x="459" y="1304" type="line"/>
      <point x="-38" y="-105" type="line"/>
      <point x="86" y="-105" type="line"/>
      <point x="583" y="1304" type="line"/>
    </contour>
  </outline>
</glyph>
<glyph name="zero" format="1">
  <advance width="1142"/>
  <unicode hex="0030"/>
  <outline>
    <contour>
      <point x="571" y="1214" type="curve" smooth="yes"/>
      <point x="776" y="1214"/>
      <point x="878" y="1028"/>
      <point x="878" y="647" type="curve" smooth="yes"/>
      <point x="878" y="280"/>
      <point x="784" y="82"/>
      <point x="571" y="82" type="curve" smooth="yes"/>
      <point x="354" y="82"/>
      <point x="264" y="278"/>
      <point x="264" y="649" type="curve" smooth="yes"/>
      <point x="264" y="1027"/>
      <point x="365" y="1214"/>
    </contour>
    <contour>
      <point x="571" y="1315" type="curve" smooth="yes"/>
      <point x="260" y="1315"/>
      <point x="96" y="1083"/>
      <point x="96" y="646" type="curve" smooth="yes"/>
      <point x="96" y="205"/>
      <point x="261" y="-23"/>
      <point x="571" y="-23" type="curve" smooth="yes"/>
      <point x="877" y="-23"/>
      <point x="1045" y="202"/>
      <point x="1045" y="646" type="curve" smooth="yes"/>
      <point x="1045" y="1086"/>
      <point x="880" y="1315"/>
    </contour>
  </outline>
</glyph>
<glyph name="one" format="1">
  <advance width="1142"/>
  <unicode hex="0031"/>
  <outline>
    <contour>
      <point x="570" y="1293" type="line"/>
      <point x="470" y="1244"/>
      <point x="372" y="1209"/>
      <point x="270" y="1190" type="curve"/>
      <point x="270" y="1066" type="line"/>
      <point x="348" y="1083"/>
      <point x="430" y="1111"/>
      <point x="510" y="1151" type="curve"/>
      <point x="510" y="157" type="line" smooth="yes"/>
      <point x="510" y="124"/>
      <point x="509" y="98"/>
      <point x="402" y="98" type="curve" smooth="yes"/>
      <point x="301" y="98" type="line"/>
      <point x="301" y="0" type="line"/>
      <point x="395" y="0"/>
      <point x="456" y="2"/>
      <point x="592" y="2" type="curve"/>
      <point x="710" y="0"/>
      <point x="784" y="0"/>
      <point x="870" y="0" type="curve"/>
      <point x="870" y="98" type="line"/>
      <point x="804" y="98" type="line" smooth="yes"/>
      <point x="673" y="98"/>
      <point x="672" y="110"/>
      <point x="672" y="154" type="curve" smooth="yes"/>
      <point x="672" y="1258" type="line"/>
    </contour>
  </outline>
</glyph>
<glyph name="two" format="1">
  <advance width="1142"/>
  <unicode hex="0032"/>
  <outline>
    <contour>
      <point x="130" y="0" type="curve"/>
      <point x="977" y="0" type="line"/>
      <point x="977" y="381" type="line"/>
      <point x="872" y="381" type="line"/>
      <point x="871" y="154"/>
      <point x="870" y="115"/>
      <point x="804" y="115" type="curve" smooth="yes"/>
      <point x="284" y="115" type="line"/>
      <point x="284" y="233"/>
      <point x="348" y="366"/>
      <point x="589" y="526" type="curve" smooth="yes"/>
      <point x="851" y="700"/>
      <point x="977" y="769"/>
      <point x="977" y="970" type="curve" smooth="yes"/>
      <point x="977" y="1187"/>
      <point x="832" y="1314"/>
      <point x="582" y="1314" type="curve" smooth="yes"/>
      <point x="384" y="1314"/>
      <point x="258" y="1273"/>
      <point x="159" y="1195" type="curve"/>
      <point x="159" y="950" type="line"/>
      <point x="273" y="947" type="line"/>
      <point x="274" y="1116"/>
      <point x="338" y="1214"/>
      <point x="554" y="1214" type="curve" smooth="yes"/>
      <point x="707" y="1214"/>
      <point x="814" y="1126"/>
      <point x="814" y="987" type="curve" smooth="yes"/>
      <point x="814" y="870"/>
      <point x="754" y="801"/>
      <point x="628" y="718" type="curve" smooth="yes"/>
      <point x="354" y="536"/>
      <point x="129" y="404"/>
      <point x="129" y="43" type="curve" smooth="yes"/>
      <point x="129" y="28"/>
      <point x="129" y="13"/>
    </contour>
  </outline>
</glyph>
<glyph name="three" format="1">
  <advance width="1142"/>
  <unicode hex="0033"/>
  <outline>
    <contour>
      <point x="115" y="386" type="line"/>
      <point x="117" y="121"/>
      <point x="284" y="-23"/>
      <point x="531" y="-23" type="curve" smooth="yes"/>
      <point x="821" y="-23"/>
      <point x="999" y="121"/>
      <point x="999" y="355" type="curve" smooth="yes"/>
      <point x="999" y="558"/>
      <point x="874" y="658"/>
      <point x="701" y="692" type="curve"/>
      <point x="865" y="734"/>
      <point x="947" y="834"/>
      <point x="947" y="984" type="curve" smooth="yes"/>
      <point x="947" y="1191"/>
      <point x="793" y="1315"/>
      <point x="534" y="1315" type="curve" smooth="yes"/>
      <point x="388" y="1315"/>
      <point x="260" y="1280"/>
      <point x="160" y="1208" type="curve"/>
      <point x="159" y="956" type="line"/>
      <point x="276" y="954" type="line"/>
      <point x="277" y="1121"/>
      <point x="344" y="1216"/>
      <point x="528" y="1216" type="curve" smooth="yes"/>
      <point x="684" y="1216"/>
      <point x="788" y="1124"/>
      <point x="788" y="987" type="curve" smooth="yes"/>
      <point x="788" y="824"/>
      <point x="662" y="741"/>
      <point x="471" y="737" type="curve"/>
      <point x="471" y="629" type="line"/>
      <point x="664" y="629"/>
      <point x="834" y="564"/>
      <point x="834" y="357" type="curve" smooth="yes"/>
      <point x="834" y="172"/>
      <point x="690" y="88"/>
      <point x="544" y="88" type="curve" smooth="yes"/>
      <point x="343" y="88"/>
      <point x="237" y="186"/>
      <point x="237" y="387" type="curve"/>
    </contour>
  </outline>
</glyph>
<glyph name="four" format="1">
  <advance width="1142"/>
  <unicode hex="0034"/>
  <outline>
    <contour>
      <point x="647" y="1297" type="line"/>
      <point x="90" y="513" type="line"/>
      <point x="102" y="473"/>
      <point x="110" y="431"/>
      <point x="116" y="383" type="curve"/>
      <point x="680" y="383" type="line"/>
      <point x="680" y="383"/>
      <point x="680" y="147"/>
      <point x="680" y="142" type="curve" smooth="yes"/>
      <point x="680" y="103"/>
      <point x="667" y="92"/>
      <point x="555" y="92" type="curve" smooth="yes"/>
      <point x="490" y="92" type="line"/>
      <point x="490" y="0" type="line"/>
      <point x="561" y="0"/>
      <point x="612" y="2"/>
      <point x="717" y="2" type="curve" smooth="yes"/>
      <point x="824" y="2"/>
      <point x="919" y="0"/>
      <point x="985" y="0" type="curve"/>
      <point x="985" y="92" type="line"/>
      <point x="932" y="92" type="line" smooth="yes"/>
      <point x="828" y="92"/>
      <point x="828" y="109"/>
      <point x="828" y="156" type="curve" smooth="yes"/>
      <point x="828" y="383" type="line"/>
      <point x="1045" y="383" type="line"/>
      <point x="1045" y="488" type="line"/>
      <point x="828" y="488" type="line"/>
      <point x="828" y="1297" type="line"/>
    </contour>
    <contour>
      <point x="679" y="1170" type="line"/>
      <point x="679" y="1170"/>
      <point x="680" y="1170"/>
      <point x="681" y="1170" type="curve"/>
      <point x="681" y="486" type="line"/>
      <point x="203" y="486" type="line"/>
    </contour>
  </outline>
</glyph>
<glyph name="five" format="1">
  <advance width="1142"/>
  <unicode hex="0035"/>
  <outline>
    <contour>
      <point x="848" y="1095" type="curve" smooth="yes"/>
      <point x="848" y="1069"/>
      <point x="848" y="1055"/>
      <point x="848" y="1055" type="curve"/>
      <point x="951" y="1055" type="line"/>
      <point x="951" y="1290" type="line"/>
      <point x="203" y="1290" type="line"/>
      <point x="203" y="606" type="line"/>
      <point x="281" y="580" type="line"/>
      <point x="349" y="674"/>
      <point x="437" y="722"/>
      <point x="559" y="722" type="curve" smooth="yes"/>
      <point x="737" y="722"/>
      <point x="850" y="602"/>
      <point x="850" y="409" type="curve" smooth="yes"/>
      <point x="850" y="195"/>
      <point x="728" y="78"/>
      <point x="554" y="78" type="curve" smooth="yes"/>
      <point x="375" y="78"/>
      <point x="297" y="161"/>
      <point x="284" y="319" type="curve"/>
      <point x="181" y="318" type="line"/>
      <point x="202" y="62" type="line"/>
      <point x="297" y="7"/>
      <point x="409" y="-23"/>
      <point x="526" y="-23" type="curve" smooth="yes"/>
      <point x="798" y="-23"/>
      <point x="1016" y="115"/>
      <point x="1016" y="414" type="curve" smooth="yes"/>
      <point x="1016" y="668"/>
      <point x="851" y="832"/>
      <point x="597" y="832" type="curve" smooth="yes"/>
      <point x="493" y="832"/>
      <point x="397" y="800"/>
      <point x="318" y="737" type="curve"/>
      <point x="318" y="745"/>
      <point x="337" y="1173"/>
      <point x="338" y="1173" type="curve"/>
      <point x="824" y="1173" type="line" smooth="yes"/>
      <point x="848" y="1173"/>
      <point x="848" y="1173"/>
    </contour>
  </outline>
</glyph>
<glyph name="six" format="1">
  <advance width="1142"/>
  <unicode hex="0036"/>
  <outline>
    <contour>
      <point x="626" y="1315" type="curve" smooth="yes"/>
      <point x="256" y="1315"/>
      <point x="127" y="1012"/>
      <point x="127" y="609" type="curve" smooth="yes"/>
      <point x="127" y="176"/>
      <point x="290" y="-22"/>
      <point x="590" y="-22" type="curve" smooth="yes"/>
      <point x="867" y="-22"/>
      <point x="1042" y="153"/>
      <point x="1042" y="422" type="curve" smooth="yes"/>
      <point x="1042" y="669"/>
      <point x="879" y="837"/>
      <point x="630" y="837" type="curve" smooth="yes"/>
      <point x="497" y="837"/>
      <point x="378" y="784"/>
      <point x="290" y="680" type="curve"/>
      <point x="291" y="1025"/>
      <point x="384" y="1218"/>
      <point x="627" y="1218" type="curve" smooth="yes"/>
      <point x="823" y="1218"/>
      <point x="901" y="1150"/>
      <point x="904" y="1009" type="curve"/>
      <point x="1005" y="1011" type="line"/>
      <point x="1003" y="1205" type="line"/>
      <point x="922" y="1264"/>
      <point x="807" y="1315"/>
    </contour>
    <contour>
      <point x="596" y="730" type="curve" smooth="yes"/>
      <point x="785" y="730"/>
      <point x="878" y="593"/>
      <point x="878" y="407" type="curve" smooth="yes"/>
      <point x="878" y="199"/>
      <point x="766" y="79"/>
      <point x="594" y="79" type="curve" smooth="yes"/>
      <point x="412" y="79"/>
      <point x="296" y="213"/>
      <point x="296" y="435" type="curve" smooth="yes"/>
      <point x="296" y="498"/>
      <point x="308" y="553"/>
      <point x="330" y="599" type="curve"/>
      <point x="401" y="682"/>
      <point x="497" y="730"/>
    </contour>
  </outline>
</glyph>
<glyph name="seven" format="1">
  <advance width="1142"/>
  <unicode hex="0037"/>
  <outline>
    <contour>
      <point x="156" y="956" type="line"/>
      <point x="266" y="956" type="line"/>
      <point x="266" y="1120" type="line" smooth="yes"/>
      <point x="266" y="1163"/>
      <point x="270" y="1174"/>
      <point x="431" y="1174" type="curve" smooth="yes"/>
      <point x="869" y="1174" type="line"/>
      <point x="566" y="807"/>
      <point x="408" y="359"/>
      <point x="358" y="1" type="curve"/>
      <point x="532" y="1" type="line"/>
      <point x="577" y="360"/>
      <point x="729" y="776"/>
      <point x="1011" y="1153" type="curve"/>
      <point x="1011" y="1290" type="line"/>
      <point x="156" y="1290" type="line"/>
    </contour>
  </outline>
</glyph>
<glyph name="eight" format="1">
  <advance width="1142"/>
  <unicode hex="0038"/>
  <outline>
    <contour>
      <point x="737" y="685" type="curve"/>
      <point x="911" y="733"/>
      <point x="1002" y="837"/>
      <point x="1002" y="987" type="curve" smooth="yes"/>
      <point x="1002" y="1190"/>
      <point x="836" y="1315"/>
      <point x="568" y="1315" type="curve" smooth="yes"/>
      <point x="307" y="1315"/>
      <point x="141" y="1191"/>
      <point x="141" y="984" type="curve" smooth="yes"/>
      <point x="141" y="837"/>
      <point x="234" y="725"/>
      <point x="398" y="682" type="curve"/>
      <point x="202" y="630"/>
      <point x="97" y="513"/>
      <point x="97" y="344" type="curve" smooth="yes"/>
      <point x="97" y="118"/>
      <point x="273" y="-23"/>
      <point x="566" y="-23" type="curve" smooth="yes"/>
      <point x="871" y="-23"/>
      <point x="1044" y="121"/>
      <point x="1044" y="346" type="curve" smooth="yes"/>
      <point x="1044" y="516"/>
      <point x="941" y="635"/>
    </contour>
    <contour>
      <point x="574" y="82" type="curve" smooth="yes"/>
      <point x="370" y="82"/>
      <point x="254" y="188"/>
      <point x="254" y="349" type="curve" smooth="yes"/>
      <point x="254" y="503"/>
      <point x="363" y="599"/>
      <point x="568" y="632" type="curve"/>
      <point x="797" y="593"/>
      <point x="894" y="477"/>
      <point x="894" y="346" type="curve" smooth="yes"/>
      <point x="894" y="179"/>
      <point x="758" y="82"/>
    </contour>
    <contour>
      <point x="574" y="1215" type="curve" smooth="yes"/>
      <point x="711" y="1215"/>
      <point x="848" y="1152"/>
      <point x="848" y="991" type="curve" smooth="yes"/>
      <point x="848" y="859"/>
      <point x="752" y="772"/>
      <point x="574" y="738" type="curve"/>
      <point x="392" y="771"/>
      <point x="293" y="862"/>
      <point x="293" y="995" type="curve" smooth="yes"/>
      <point x="293" y="1132"/>
      <point x="406" y="1215"/>
    </contour>
  </outline>
</glyph>
<glyph name="nine" format="1">
  <advance width="1142"/>
  <unicode hex="0039"/>
  <outline>
    <contour>
      <point x="531" y="-23" type="curve" smooth="yes"/>
      <point x="891" y="-23"/>
      <point x="1018" y="281"/>
      <point x="1018" y="681" type="curve" smooth="yes"/>
      <point x="1018" y="1117"/>
      <point x="855" y="1316"/>
      <point x="556" y="1316" type="curve" smooth="yes"/>
      <point x="282" y="1316"/>
      <point x="107" y="1145"/>
      <point x="107" y="871" type="curve" smooth="yes"/>
      <point x="107" y="623"/>
      <point x="268" y="456"/>
      <point x="518" y="456" type="curve" smooth="yes"/>
      <point x="655" y="456"/>
      <point x="776" y="509"/>
      <point x="859" y="611" type="curve"/>
      <point x="859" y="264"/>
      <point x="771" y="75"/>
      <point x="521" y="75" type="curve" smooth="yes"/>
      <point x="353" y="75"/>
      <point x="297" y="137"/>
      <point x="289" y="283" type="curve"/>
      <point x="171" y="281" type="line"/>
      <point x="172" y="103" type="line"/>
      <point x="245" y="22"/>
      <point x="369" y="-23"/>
    </contour>
    <contour>
      <point x="553" y="1213" type="curve" smooth="yes"/>
      <point x="750" y="1213"/>
      <point x="853" y="1060"/>
      <point x="853" y="814" type="curve"/>
      <point x="810" y="653"/>
      <point x="694" y="563"/>
      <point x="548" y="563" type="curve" smooth="yes"/>
      <point x="364" y="563"/>
      <point x="269" y="701"/>
      <point x="269" y="879" type="curve" smooth="yes"/>
      <point x="269" y="1092"/>
      <point x="379" y="1213"/>
    </contour>
  </outline>
</glyph>
<glyph name="colon" format="1">
  <advance width="571"/>
  <unicode hex="003A"/>
  <outline>
    <contour>
      <point x="284" y="192" type="curve" smooth="yes"/>
      <point x="208" y="192"/>
      <point x="177" y="139"/>
      <point x="177" y="92" type="curve" smooth="yes"/>
      <point x="177" y="42"/>
      <point x="207" y="-9"/>
      <point x="284" y="-9" type="curve" smooth="yes"/>
      <point x="361" y="-9"/>
      <point x="391" y="44"/>
      <point x="391" y="92" type="curve" smooth="yes"/>
      <point x="391" y="140"/>
      <point x="360" y="192"/>
    </contour>
    <contour>
      <point x="284" y="892" type="curve" smooth="yes"/>
      <point x="208" y="892"/>
      <point x="177" y="840"/>
      <point x="177" y="792" type="curve" smooth="yes"/>
      <point x="177" y="742"/>
      <point x="207" y="692"/>
      <point x="284" y="692" type="curve" smooth="yes"/>
      <point x="361" y="692"/>
      <point x="391" y="744"/>
      <point x="391" y="792" type="curve" smooth="yes"/>
      <point x="391" y="840"/>
      <point x="360" y="892"/>
    </contour>
  </outline>
</glyph>
<glyph name="semicolon" format="1">
  <advance width="571"/>
  <unicode hex="003B"/>
  <outline>
    <contour>
      <point x="172" y="190" type="line"/>
      <point x="149" y="9" type="line"/>
      <point x="217" y="4" type="line"/>
      <point x="205" y="-89"/>
      <point x="193" y="-155"/>
      <point x="144" y="-188" type="curve"/>
      <point x="202" y="-242" type="line"/>
      <point x="284" y="-206"/>
      <point x="334" y="-116"/>
      <point x="358" y="-1" type="curve" smooth="yes"/>
      <point x="398" y="190" type="line"/>
    </contour>
    <contour>
      <point x="286" y="892" type="curve" smooth="yes"/>
      <point x="209" y="892"/>
      <point x="178" y="840"/>
      <point x="178" y="792" type="curve" smooth="yes"/>
      <point x="178" y="742"/>
      <point x="209" y="692"/>
      <point x="286" y="692" type="curve" smooth="yes"/>
      <point x="363" y="692"/>
      <point x="393" y="744"/>
      <point x="393" y="792" type="curve" smooth="yes"/>
      <point x="393" y="840"/>
      <point x="361" y="892"/>
    </contour>
  </outline>
</glyph>
<glyph name="less" format="1">
  <advance width="1536"/>
  <unicode hex="003C"/>
  <outline>
    <contour>
      <point x="1333" y="1002" type="line"/>
      <point x="1333" y="1134" type="line"/>
      <point x="202" y="674" type="line"/>
      <point x="202" y="567" type="line"/>
      <point x="1333" y="107" type="line"/>
      <point x="1333" y="239" type="line"/>
      <point x="378" y="619" type="line"/>
    </contour>
  </outline>
</glyph>
<glyph name="equal" format="1">
  <advance width="1536"/>
  <unicode hex="003D"/>
  <outline>
    <contour>
      <point x="1338" y="473" type="line"/>
      <point x="197" y="473" type="line"/>
      <point x="197" y="352" type="line"/>
      <point x="1338" y="352" type="line"/>
    </contour>
    <contour>
      <point x="1338" y="890" type="line"/>
      <point x="197" y="890" type="line"/>
      <point x="197" y="769" type="line"/>
      <point x="1338" y="769" type="line"/>
    </contour>
  </outline>
</glyph>
<glyph name="greater" format="1">
  <advance width="1536"/>
  <unicode hex="003E"/>
  <outline>
    <contour>
      <point x="1333" y="567" type="line"/>
      <point x="202" y="1027" type="line"/>
      <point x="202" y="895" type="line"/>
      <point x="1158" y="512" type="line"/>
      <point x="202" y="132" type="line"/>
      <point x="202" y="0" type="line"/>
      <point x="1333" y="460" type="line"/>
    </contour>
  </outline>
</glyph>
<glyph name="question" format="1">
  <advance width="980"/>
  <unicode hex="003F"/>
  <outline>
    <contour>
      <point x="504" y="460" type="line"/>
      <point x="571" y="706"/>
      <point x="904" y="683"/>
      <point x="904" y="1005" type="curve" smooth="yes"/>
      <point x="904" y="1194"/>
      <point x="740" y="1315"/>
      <point x="471" y="1315" type="curve" smooth="yes"/>
      <point x="325" y="1315"/>
      <point x="195" y="1273"/>
      <point x="94" y="1200" type="curve"/>
      <point x="89" y="948" type="line"/>
      <point x="205" y="948" type="line"/>
      <point x="207" y="1128"/>
      <point x="286" y="1215"/>
      <point x="467" y="1215" type="curve" smooth="yes"/>
      <point x="627" y="1215"/>
      <point x="736" y="1123"/>
      <point x="736" y="984" type="curve" smooth="yes"/>
      <point x="736" y="717"/>
      <point x="373" y="760"/>
      <point x="373" y="467" type="curve" smooth="yes"/>
      <point x="373" y="463"/>
      <point x="377" y="370"/>
      <point x="379" y="364" type="curve"/>
      <point x="492" y="364" type="line"/>
    </contour>
    <contour>
      <point x="440" y="172" type="curve" smooth="yes"/>
      <point x="364" y="172"/>
      <point x="333" y="129"/>
      <point x="333" y="82" type="curve" smooth="yes"/>
      <point x="333" y="32"/>
      <point x="363" y="-9"/>
      <point x="440" y="-9" type="curve" smooth="yes"/>
      <point x="517" y="-9"/>
      <point x="548" y="34"/>
      <point x="548" y="82" type="curve" smooth="yes"/>
      <point x="548" y="129"/>
      <point x="516" y="172"/>
    </contour>
  </outline>
</glyph>
<glyph name="at" format="1">
  <advance width="1809"/>
  <unicode hex="0040"/>
  <outline>
    <contour>
      <point x="1233" y="60" type="curve" smooth="yes"/>
      <point x="1469" y="60"/>
      <point x="1729" y="337"/>
      <point x="1729" y="697" type="curve" smooth="yes"/>
      <point x="1729" y="1067"/>
      <point x="1472" y="1386"/>
      <point x="980" y="1386" type="curve" smooth="yes"/>
      <point x="422" y="1386"/>
      <point x="68" y="975"/>
      <point x="68" y="511" type="curve" smooth="yes"/>
      <point x="68" y="36"/>
      <point x="421" y="-305"/>
      <point x="956" y="-305" type="curve" smooth="yes"/>
      <point x="1248" y="-305"/>
      <point x="1494" y="-192"/>
      <point x="1666" y="-10" type="curve"/>
      <point x="1592" y="9" type="line"/>
      <point x="1411" y="-164"/>
      <point x="1196" y="-236"/>
      <point x="962" y="-236" type="curve" smooth="yes"/>
      <point x="498" y="-236"/>
      <point x="174" y="58"/>
      <point x="174" y="496" type="curve" smooth="yes"/>
      <point x="174" y="967"/>
      <point x="504" y="1317"/>
      <point x="990" y="1317" type="curve" smooth="yes"/>
      <point x="1437" y="1317"/>
      <point x="1657" y="1024"/>
      <point x="1657" y="709" type="curve" smooth="yes"/>
      <point x="1657" y="475"/>
      <point x="1562" y="299"/>
      <point x="1423" y="196" type="curve" smooth="yes"/>
      <point x="1366" y="154"/>
      <point x="1307" y="131"/>
      <point x="1263" y="131" type="curve" smooth="yes"/>
      <point x="1215" y="131"/>
      <point x="1193" y="159"/>
      <point x="1193" y="211" type="curve" smooth="yes"/>
      <point x="1193" y="246"/>
      <point x="1210" y="303"/>
      <point x="1219" y="351" type="curve"/>
      <point x="1372" y="978" type="line"/>
      <point x="1234" y="978" type="line"/>
      <point x="1192" y="812" type="line"/>
      <point x="1144" y="938"/>
      <point x="1059" y="994"/>
      <point x="933" y="994" type="curve" smooth="yes"/>
      <point x="626" y="994"/>
      <point x="443" y="665"/>
      <point x="443" y="430" type="curve" smooth="yes"/>
      <point x="443" y="213"/>
      <point x="570" y="61"/>
      <point x="753" y="61" type="curve" smooth="yes"/>
      <point x="874" y="61"/>
      <point x="980" y="123"/>
      <point x="1069" y="250" type="curve"/>
      <point x="1070" y="250"/>
      <point x="1071" y="249"/>
      <point x="1072" y="249" type="curve"/>
      <point x="1071" y="237"/>
      <point x="1070" y="226"/>
      <point x="1070" y="215" type="curve" smooth="yes"/>
      <point x="1070" y="109"/>
      <point x="1131" y="60"/>
    </contour>
    <contour>
      <point x="1143" y="697" type="curve" smooth="yes"/>
      <point x="1143" y="479"/>
      <point x="989" y="137"/>
      <point x="783" y="137" type="curve" smooth="yes"/>
      <point x="663" y="137"/>
      <point x="586" y="231"/>
      <point x="586" y="387" type="curve" smooth="yes"/>
      <point x="586" y="577"/>
      <point x="726" y="929"/>
      <point x="942" y="929" type="curve" smooth="yes"/>
      <point x="1061" y="929"/>
      <point x="1143" y="830"/>
    </contour>
  </outline>
</glyph>
<glyph name="A" format="1">
  <advance width="1383"/>
  <unicode hex="0041"/>
  <outline>
    <contour>
      <point x="-11" y="0" type="line"/>
      <point x="97" y="2"/>
      <point x="156" y="2"/>
      <point x="237" y="2" type="curve" smooth="yes"/>
      <point x="312" y="2"/>
      <point x="387" y="0"/>
      <point x="461" y="0" type="curve"/>
      <point x="461" y="95" type="line"/>
      <point x="433" y="95"/>
      <point x="409" y="95"/>
      <point x="389" y="95" type="curve" smooth="yes"/>
      <point x="325" y="95"/>
      <point x="300" y="97"/>
      <point x="300" y="122" type="curve" smooth="yes"/>
      <point x="300" y="131"/>
      <point x="304" y="143"/>
      <point x="310" y="158" type="curve" smooth="yes"/>
      <point x="311" y="162"/>
      <point x="418" y="467"/>
      <point x="420" y="473" type="curve"/>
      <point x="943" y="473" type="line"/>
      <point x="1049" y="155" type="line" smooth="yes"/>
      <point x="1053" y="141"/>
      <point x="1054" y="130"/>
      <point x="1056" y="123" type="curve"/>
      <point x="1056.0" y="103.5"/>
      <point x="1039.6875" y="98.0625"/>
      <point x="980.0625" y="96.5625" type="curve" smooth="yes"/>
      <point x="960.1875" y="96.0625"/>
      <point x="935.5" y="96.0"/>
      <point x="905" y="96" type="curve" smooth="yes"/>
      <point x="905" y="96"/>
      <point x="906" y="23"/>
      <point x="906" y="0" type="curve"/>
      <point x="1025" y="2"/>
      <point x="1094" y="2"/>
      <point x="1179" y="2" type="curve" smooth="yes"/>
      <point x="1257" y="2"/>
      <point x="1330" y="0"/>
      <point x="1404" y="0" type="curve"/>
      <point x="1404" y="98" type="line"/>
      <point x="1260" y="98"/>
      <point x="1264" y="100"/>
      <point x="1216" y="225" type="curve" smooth="yes"/>
      <point x="1210" y="241"/>
      <point x="809" y="1290"/>
      <point x="810" y="1290" type="curve"/>
      <point x="579" y="1290" type="line"/>
      <point x="539" y="1174" type="line" smooth="yes"/>
      <point x="532" y="1154"/>
      <point x="163" y="191"/>
      <point x="155" y="171" type="curve" smooth="yes"/>
      <point x="128" y="100"/>
      <point x="123" y="101"/>
      <point x="-11" y="99" type="curve"/>
    </contour>
    <contour>
      <point x="458" y="574" type="line"/>
      <point x="682" y="1196" type="line"/>
      <point x="906" y="574" type="line"/>
    </contour>
  </outline>
</glyph>
<glyph name="B" format="1">
  <advance width="1238"/>
  <unicode hex="0042"/>
  <outline>
    <contour>
      <point x="58" y="1290" type="line"/>
      <point x="58" y="1191" type="line"/>
      <point x="83.6136359274" y="1191.0"/>
      <point x="105.430784381" y="1190.67097109"/>
      <point x="124.011139641" y="1189.90016909" type="curve" smooth="yes"/>
      <point x="222.221590859" y="1185.82592986"/>
      <point x="230.0" y="1169.40909106"/>
      <point x="230" y="1124" type="curve" smooth="yes"/>
      <point x="230" y="173" type="line" smooth="yes"/>
      <point x="230" y="130"/>
      <point x="230" y="99"/>
      <point x="121" y="99" type="curve" smooth="yes"/>
      <point x="58" y="99" type="line"/>
      <point x="58" y="0" type="line"/>
      <point x="654" y="0" type="line" smooth="yes"/>
      <point x="1026" y="0"/>
      <point x="1143" y="160"/>
      <point x="1143" y="355" type="curve" smooth="yes"/>
      <point x="1143" y="525"/>
      <point x="1045" y="635"/>
      <point x="856" y="677" type="curve"/>
      <point x="1009" y="725"/>
      <point x="1086" y="822"/>
      <point x="1086" y="965" type="curve" smooth="yes"/>
      <point x="1086" y="1175"/>
      <point x="960" y="1290"/>
      <point x="578" y="1290" type="curve" smooth="yes"/>
    </contour>
    <contour>
      <point x="412" y="619" type="line"/>
      <point x="553" y="619" type="line" smooth="yes"/>
      <point x="839" y="619"/>
      <point x="957" y="540"/>
      <point x="957" y="356" type="curve" smooth="yes"/>
      <point x="957" y="203"/>
      <point x="852" y="109"/>
      <point x="624" y="109" type="curve" smooth="yes"/>
      <point x="412" y="109" type="line"/>
    </contour>
    <contour>
      <point x="412" y="1182" type="line"/>
      <point x="602" y="1182" type="line" smooth="yes"/>
      <point x="827" y="1182"/>
      <point x="907" y="1082"/>
      <point x="907" y="954" type="curve" smooth="yes"/>
      <point x="907" y="810"/>
      <point x="804" y="718"/>
      <point x="614" y="718" type="curve" smooth="yes"/>
      <point x="412" y="718" type="line"/>
    </contour>
  </outline>
</glyph>
<glyph name="C" format="1">
  <advance width="1413"/>
  <unicode hex="0043"/>
  <outline>
    <contour>
      <point x="792" y="91" type="curve" smooth="yes"/>
      <point x="499" y="91"/>
      <point x="312" y="302"/>
      <point x="312" y="647" type="curve" smooth="yes"/>
      <point x="312" y="987"/>
      <point x="500" y="1201"/>
      <point x="792" y="1201" type="curve" smooth="yes"/>
      <point x="1018" y="1201"/>
      <point x="1167" y="1081"/>
      <point x="1184" y="896" type="curve"/>
      <point x="1300" y="896" type="line"/>
      <point x="1300" y="1289" type="line"/>
      <point x="1185" y="1289" type="line"/>
      <point x="1164" y="1145" type="line"/>
      <point x="1063" y="1262"/>
      <point x="927" y="1314"/>
      <point x="777" y="1314" type="curve" smooth="yes"/>
      <point x="383" y="1314"/>
      <point x="116" y="1050"/>
      <point x="116" y="643" type="curve" smooth="yes"/>
      <point x="116" y="242"/>
      <point x="366" y="-24"/>
      <point x="797" y="-24" type="curve" smooth="yes"/>
      <point x="984" y="-24"/>
      <point x="1157" y="14"/>
      <point x="1318" y="152" type="curve"/>
      <point x="1328" y="411" type="line"/>
      <point x="1212" y="431" type="line"/>
      <point x="1209" y="170"/>
      <point x="1067" y="91"/>
    </contour>
  </outline>
</glyph>
<glyph name="D" format="1">
  <advance width="1477"/>
  <unicode hex="0044"/>
  <outline>
    <contour>
      <point x="50" y="1290" type="line"/>
      <point x="50" y="1192" type="line"/>
      <point x="70.6714881212" y="1192.0"/>
      <point x="89.0260493453" y="1191.8983804"/>
      <point x="105.304169403" y="1191.49521933" type="curve" smooth="yes"/>
      <point x="203.208801672" y="1189.07041004"/>
      <point x="226.0" y="1175.73760302"/>
      <point x="226" y="1108" type="curve" smooth="yes"/>
      <point x="226" y="1108"/>
      <point x="227" y="195"/>
      <point x="227" y="192" type="curve" smooth="yes"/>
      <point x="227" y="131"/>
      <point x="226" y="99"/>
      <point x="115" y="99" type="curve" smooth="yes"/>
      <point x="50" y="99" type="line"/>
      <point x="50" y="0" type="line"/>
      <point x="577" y="0" type="line" smooth="yes"/>
      <point x="1128" y="0"/>
      <point x="1370" y="217"/>
      <point x="1370" y="659" type="curve" smooth="yes"/>
      <point x="1370" y="1086"/>
      <point x="1099" y="1290"/>
      <point x="566" y="1290" type="curve" smooth="yes"/>
    </contour>
    <contour>
      <point x="409" y="1181" type="line"/>
      <point x="615" y="1181" type="line" smooth="yes"/>
      <point x="977" y="1181"/>
      <point x="1175" y="1012"/>
      <point x="1175" y="655" type="curve" smooth="yes"/>
      <point x="1175" y="270"/>
      <point x="974" y="111"/>
      <point x="614" y="111" type="curve" smooth="yes"/>
      <point x="409" y="111" type="line"/>
    </contour>
  </outline>
</glyph>
<glyph name="E" format="1">
  <advance width="1219"/>
  <unicode hex="0045"/>
  <outline>
    <contour>
      <point x="55" y="1288" type="line"/>
      <point x="55" y="1191" type="line"/>
      <point x="162" y="1191" type="line" smooth="yes"/>
      <point x="230" y="1191"/>
      <point x="226" y="1159"/>
      <point x="226" y="1096" type="curve" smooth="yes"/>
      <point x="226" y="181" type="line" smooth="yes"/>
      <point x="226" y="141"/>
      <point x="225" y="99"/>
      <point x="162" y="99" type="curve" smooth="yes"/>
      <point x="47" y="99" type="line"/>
      <point x="47" y="0" type="line"/>
      <point x="1128" y="0" type="line"/>
      <point x="1128" y="348" type="line"/>
      <point x="1016" y="348" type="line"/>
      <point x="1016.0" y="325.954544798"/>
      <point x="1015.92252066" y="305.871899629"/>
      <point x="1015.69565879" y="287.590649192" type="curve" smooth="yes"/>
      <point x="1013.92613628" y="144.996900574"/>
      <point x="1003.06818161" y="112.0"/>
      <point x="949" y="112" type="curve" smooth="yes"/>
      <point x="409" y="112" type="line"/>
      <point x="409" y="610" type="line"/>
      <point x="748" y="610" type="line" smooth="yes"/>
      <point x="777" y="610"/>
      <point x="790" y="608"/>
      <point x="798" y="499" type="curve"/>
      <point x="878" y="499" type="line"/>
      <point x="878" y="821" type="line"/>
      <point x="798" y="821" type="line"/>
      <point x="791" y="710"/>
      <point x="780" y="713"/>
      <point x="754" y="713" type="curve" smooth="yes"/>
      <point x="409" y="713" type="line"/>
      <point x="409" y="1175" type="line"/>
      <point x="940" y="1175" type="line" smooth="yes"/>
      <point x="988" y="1175"/>
      <point x="1012" y="1175"/>
      <point x="1012" y="1010" type="curve" smooth="yes"/>
      <point x="1012" y="962" type="line"/>
      <point x="1125" y="962" type="line"/>
      <point x="1125" y="1288" type="line"/>
    </contour>
  </outline>
</glyph>
<glyph name="F" format="1">
  <advance width="1106"/>
  <unicode hex="0046"/>
  <outline>
    <contour>
      <point x="52" y="1290" type="line"/>
      <point x="52" y="1191" type="line"/>
      <point x="163" y="1191" type="line" smooth="yes"/>
      <point x="228" y="1191"/>
      <point x="226" y="1169"/>
      <point x="226" y="1101" type="curve" smooth="yes"/>
      <point x="226" y="179" type="line" smooth="yes"/>
      <point x="226" y="126"/>
      <point x="223" y="99"/>
      <point x="163" y="99" type="curve" smooth="yes"/>
      <point x="46" y="99" type="line"/>
      <point x="46" y="0" type="line"/>
      <point x="135" y="0"/>
      <point x="203" y="2"/>
      <point x="325" y="2" type="curve"/>
      <point x="441" y="0"/>
      <point x="510" y="0"/>
      <point x="593" y="0" type="curve"/>
      <point x="593" y="99" type="line"/>
      <point x="539" y="99" type="line" smooth="yes"/>
      <point x="443" y="99"/>
      <point x="409" y="99"/>
      <point x="409" y="166" type="curve" smooth="yes"/>
      <point x="409" y="611" type="line"/>
      <point x="698" y="611" type="line" smooth="yes"/>
      <point x="748" y="611"/>
      <point x="774" y="609"/>
      <point x="776" y="527" type="curve"/>
      <point x="847" y="527" type="line"/>
      <point x="847" y="798" type="line"/>
      <point x="776" y="798" type="line"/>
      <point x="773.419354839" y="699.935483871"/>
      <point x="744.888888889" y="714.0"/>
      <point x="696" y="714" type="curve" smooth="yes"/>
      <point x="409" y="714" type="line"/>
      <point x="409" y="1176" type="line"/>
      <point x="903" y="1176" type="line" smooth="yes"/>
      <point x="963" y="1176"/>
      <point x="983" y="1176"/>
      <point x="983" y="1001" type="curve" smooth="yes"/>
      <point x="983" y="960" type="line"/>
      <point x="1094" y="960" type="line"/>
      <point x="1094" y="1290" type="line"/>
    </contour>
  </outline>
</glyph>
<glyph name="G" format="1">
  <advance width="1509"/>
  <unicode hex="0047"/>
  <outline>
    <contour>
      <point x="1299" y="1290" type="line"/>
      <point x="1194" y="1290" type="line"/>
      <point x="1164" y="1141" type="line"/>
      <point x="1080" y="1263"/>
      <point x="916" y="1315"/>
      <point x="758" y="1315" type="curve" smooth="yes"/>
      <point x="380" y="1315"/>
      <point x="104" y="1041"/>
      <point x="104" y="645" type="curve" smooth="yes"/>
      <point x="104" y="239"/>
      <point x="347" y="-24"/>
      <point x="811" y="-24" type="curve" smooth="yes"/>
      <point x="970" y="-24"/>
      <point x="1158" y="10"/>
      <point x="1304" y="160" type="curve"/>
      <point x="1320" y="174"/>
      <point x="1320" y="237"/>
      <point x="1320" y="443" type="curve" smooth="yes"/>
      <point x="1320" y="485"/>
      <point x="1325" y="493"/>
      <point x="1444" y="496" type="curve"/>
      <point x="1444" y="502"/>
      <point x="1449" y="598"/>
      <point x="1449" y="604" type="curve"/>
      <point x="1393" y="604"/>
      <point x="1295" y="602"/>
      <point x="1243" y="602" type="curve" smooth="yes"/>
      <point x="1099" y="602"/>
      <point x="1015" y="604"/>
      <point x="928" y="604" type="curve"/>
      <point x="928" y="494" type="line"/>
      <point x="1054" y="494" type="line" smooth="yes"/>
      <point x="1175" y="494"/>
      <point x="1182" y="495"/>
      <point x="1182" y="442" type="curve" smooth="yes"/>
      <point x="1182" y="315" type="line" smooth="yes"/>
      <point x="1182" y="165"/>
      <point x="1052" y="93"/>
      <point x="806" y="93" type="curve" smooth="yes"/>
      <point x="489" y="93"/>
      <point x="301" y="302"/>
      <point x="301" y="648" type="curve" smooth="yes"/>
      <point x="301" y="989"/>
      <point x="488" y="1200"/>
      <point x="795" y="1200" type="curve" smooth="yes"/>
      <point x="1017" y="1200"/>
      <point x="1158" y="1075"/>
      <point x="1181" y="895" type="curve"/>
      <point x="1299" y="895" type="line"/>
    </contour>
  </outline>
</glyph>
<glyph name="H" format="1">
  <advance width="1489"/>
  <unicode hex="0048"/>
  <outline>
    <contour>
      <point x="60" y="1290" type="curve"/>
      <point x="60" y="1191" type="line"/>
      <point x="107" y="1191" type="line" smooth="yes"/>
      <point x="226" y="1191"/>
      <point x="228" y="1175"/>
      <point x="228" y="1129" type="curve" smooth="yes"/>
      <point x="228" y="177" type="line" smooth="yes"/>
      <point x="228" y="132"/>
      <point x="228" y="99"/>
      <point x="107" y="99" type="curve" smooth="yes"/>
      <point x="60" y="99" type="line"/>
      <point x="60" y="0" type="line"/>
      <point x="148" y="0"/>
      <point x="222" y="2"/>
      <point x="342" y="2" type="curve" smooth="yes"/>
      <point x="447" y="2"/>
      <point x="506" y="0"/>
      <point x="580" y="0" type="curve"/>
      <point x="580" y="99" type="line"/>
      <point x="532" y="99" type="line" smooth="yes"/>
      <point x="433" y="99"/>
      <point x="410" y="96"/>
      <point x="410" y="173" type="curve" smooth="yes"/>
      <point x="410" y="618" type="line"/>
      <point x="1079" y="618" type="line"/>
      <point x="1079" y="179" type="line" smooth="yes"/>
      <point x="1079" y="129"/>
      <point x="1077" y="99"/>
      <point x="956" y="99" type="curve" smooth="yes"/>
      <point x="908" y="99" type="line"/>
      <point x="908" y="0" type="line"/>
      <point x="980" y="0"/>
      <point x="1044" y="2"/>
      <point x="1146" y="2" type="curve" smooth="yes"/>
      <point x="1265" y="2"/>
      <point x="1340" y="0"/>
      <point x="1429" y="0" type="curve"/>
      <point x="1429" y="99" type="line"/>
      <point x="1382" y="99" type="line" smooth="yes"/>
      <point x="1244.0" y="99.0"/>
      <point x="1261.0" y="126.777777778"/>
      <point x="1261" y="183" type="curve" smooth="yes"/>
      <point x="1261" y="1126" type="line" smooth="yes"/>
      <point x="1261" y="1173"/>
      <point x="1262" y="1191"/>
      <point x="1382" y="1191" type="curve" smooth="yes"/>
      <point x="1429" y="1191" type="line"/>
      <point x="1429" y="1290" type="line"/>
      <point x="1364" y="1290"/>
      <point x="1197" y="1288"/>
      <point x="1187" y="1288" type="curve" smooth="yes"/>
      <point x="1102" y="1288"/>
      <point x="1005" y="1288"/>
      <point x="908" y="1290" type="curve"/>
      <point x="908" y="1191" type="line"/>
      <point x="956" y="1191" type="line" smooth="yes"/>
      <point x="1052" y="1191"/>
      <point x="1079" y="1191"/>
      <point x="1079" y="1126" type="curve" smooth="yes"/>
      <point x="1079" y="725" type="line"/>
      <point x="410" y="725" type="line"/>
      <point x="410" y="1118" type="line" smooth="yes"/>
      <point x="410" y="1173"/>
      <point x="410" y="1191"/>
      <point x="532" y="1191" type="curve" smooth="yes"/>
      <point x="580" y="1191" type="line"/>
      <point x="580" y="1290" type="line"/>
      <point x="522" y="1290"/>
      <point x="371" y="1288"/>
      <point x="359" y="1288" type="curve" smooth="yes"/>
      <point x="263" y="1288"/>
      <point x="147" y="1290"/>
    </contour>
  </outline>
</glyph>
<glyph name="I" format="1">
  <advance width="656"/>
  <unicode hex="0049"/>
  <outline>
    <contour>
      <point x="68" y="1290" type="curve"/>
      <point x="68" y="1191" type="line"/>
      <point x="116" y="1191" type="line" smooth="yes"/>
      <point x="235" y="1191"/>
      <point x="238" y="1173"/>
      <point x="238" y="1114" type="curve" smooth="yes"/>
      <point x="238" y="169" type="line" smooth="yes"/>
      <point x="238" y="128"/>
      <point x="238" y="99"/>
      <point x="116" y="99" type="curve" smooth="yes"/>
      <point x="68" y="99" type="line"/>
      <point x="68" y="0" type="line"/>
      <point x="147" y="0"/>
      <point x="221" y="2"/>
      <point x="328" y="2" type="curve" smooth="yes"/>
      <point x="445" y="2"/>
      <point x="508" y="0"/>
      <point x="591" y="0" type="curve"/>
      <point x="591" y="99" type="line"/>
      <point x="542" y="99" type="line" smooth="yes"/>
      <point x="419" y="99"/>
      <point x="420" y="112"/>
      <point x="420" y="162" type="curve" smooth="yes"/>
      <point x="420" y="1121" type="line" smooth="yes"/>
      <point x="420" y="1162"/>
      <point x="421" y="1191"/>
      <point x="542" y="1191" type="curve" smooth="yes"/>
      <point x="591" y="1191" type="line"/>
      <point x="591" y="1290" type="line"/>
      <point x="528" y="1289"/>
      <point x="456" y="1287"/>
      <point x="220" y="1287" type="curve" smooth="yes"/>
      <point x="174" y="1287"/>
      <point x="130" y="1288"/>
    </contour>
  </outline>
</glyph>
<glyph name="J" format="1">
  <advance width="763"/>
  <unicode hex="004A"/>
  <outline>
    <contour>
      <point x="161" y="1290" type="line"/>
      <point x="161" y="1191" type="line"/>
      <point x="263" y="1191" type="line" smooth="yes"/>
      <point x="361" y="1191"/>
      <point x="361" y="1160"/>
      <point x="361" y="1110" type="curve" smooth="yes"/>
      <point x="361" y="371"/>
      <point x="361" y="272"/>
      <point x="361" y="240" type="curve" smooth="yes"/>
      <point x="361" y="45"/>
      <point x="350" y="-90"/>
      <point x="194" y="-106" type="curve"/>
      <point x="125" y="-106"/>
      <point x="95" y="-75"/>
      <point x="80" y="31" type="curve"/>
      <point x="77" y="31"/>
      <point x="-17" y="41"/>
      <point x="-20" y="42" type="curve"/>
      <point x="-20" y="-200" type="line"/>
      <point x="38" y="-217"/>
      <point x="103" y="-227"/>
      <point x="178" y="-227" type="curve" smooth="yes"/>
      <point x="490" y="-227"/>
      <point x="544" y="-78"/>
      <point x="544" y="278" type="curve" smooth="yes"/>
      <point x="544" y="278"/>
      <point x="544" y="1109"/>
      <point x="544" y="1111" type="curve" smooth="yes"/>
      <point x="544" y="1154"/>
      <point x="545" y="1191"/>
      <point x="640" y="1191" type="curve" smooth="yes"/>
      <point x="724" y="1191" type="line"/>
      <point x="724" y="1290" type="line"/>
      <point x="651" y="1289"/>
      <point x="489" y="1287"/>
      <point x="479" y="1287" type="curve" smooth="yes"/>
      <point x="339" y="1287"/>
      <point x="270" y="1290"/>
      <point x="198" y="1290" type="curve" smooth="yes"/>
    </contour>
  </outline>
</glyph>
<glyph name="K" format="1">
  <advance width="1294"/>
  <unicode hex="004B"/>
  <outline>
    <contour>
      <point x="365" y="687" type="line"/>
      <point x="365" y="687"/>
      <point x="365" y="1116"/>
      <point x="365" y="1119" type="curve" smooth="yes"/>
      <point x="365" y="1158"/>
      <point x="366" y="1191"/>
      <point x="486" y="1191" type="curve" smooth="yes"/>
      <point x="538" y="1191" type="line"/>
      <point x="538" y="1290" type="line"/>
      <point x="517" y="1290"/>
      <point x="283" y="1287"/>
      <point x="268" y="1287" type="curve" smooth="yes"/>
      <point x="184.0" y="1287.0"/>
      <point x="102.25" y="1287.375"/>
      <point x="13" y="1290" type="curve"/>
      <point x="13" y="1191" type="line"/>
      <point x="62" y="1191" type="line" smooth="yes"/>
      <point x="179" y="1191"/>
      <point x="183" y="1171"/>
      <point x="183" y="1116" type="curve" smooth="yes"/>
      <point x="183" y="167" type="line" smooth="yes"/>
      <point x="183" y="129"/>
      <point x="182" y="99"/>
      <point x="62" y="99" type="curve" smooth="yes"/>
      <point x="13" y="99" type="line"/>
      <point x="13" y="0" type="line"/>
      <point x="80" y="0"/>
      <point x="183" y="2"/>
      <point x="274" y="2" type="curve" smooth="yes"/>
      <point x="374" y="2"/>
      <point x="466" y="0"/>
      <point x="536" y="0" type="curve"/>
      <point x="536" y="99" type="line"/>
      <point x="486" y="99" type="line" smooth="yes"/>
      <point x="364" y="99"/>
      <point x="365" y="116"/>
      <point x="365" y="164" type="curve" smooth="yes"/>
      <point x="365" y="568" type="line"/>
      <point x="431" y="623" type="line"/>
      <point x="876" y="152" type="line" smooth="yes"/>
      <point x="898" y="128"/>
      <point x="908" y="116"/>
      <point x="908" y="108" type="curve" smooth="yes"/>
      <point x="908" y="99"/>
      <point x="892" y="99"/>
      <point x="858" y="99" type="curve" smooth="yes"/>
      <point x="750" y="99" type="line"/>
      <point x="750" y="0" type="line"/>
      <point x="813" y="0"/>
      <point x="918" y="2"/>
      <point x="1010" y="2" type="curve" smooth="yes"/>
      <point x="1110" y="2"/>
      <point x="1205" y="0"/>
      <point x="1275" y="0" type="curve"/>
      <point x="1275" y="99" type="line"/>
      <point x="1253.56405005" y="99.0"/>
      <point x="1235.18653177" y="98.8823680127"/>
      <point x="1219.1614102" y="98.9900352995" type="curve" smooth="yes"/>
      <point x="1141.73883293" y="99.5102109996"/>
      <point x="1119.22520682" y="105.289255977"/>
      <point x="1072" y="155" type="curve" smooth="yes"/>
      <point x="547" y="706" type="line"/>
      <point x="972" y="1082" type="line"/>
      <point x="1087" y="1181"/>
      <point x="1106" y="1192"/>
      <point x="1172" y="1192" type="curve" smooth="yes"/>
      <point x="1192" y="1192"/>
      <point x="1216" y="1191"/>
      <point x="1248" y="1191" type="curve"/>
      <point x="1248" y="1290" type="line"/>
      <point x="1026" y="1288" type="line" smooth="yes"/>
      <point x="952.193548387" y="1288.0"/>
      <point x="843.929824561" y="1286.9122807"/>
      <point x="776" y="1290" type="curve"/>
      <point x="776" y="1191" type="line"/>
      <point x="827" y="1191" type="line" smooth="yes"/>
      <point x="871" y="1191"/>
      <point x="900" y="1191"/>
      <point x="900" y="1177" type="curve" smooth="yes"/>
      <point x="900" y="1168"/>
      <point x="888" y="1155"/>
      <point x="864" y="1133" type="curve" smooth="yes"/>
    </contour>
  </outline>
</glyph>
<glyph name="L" format="1">
  <advance width="1133"/>
  <unicode hex="004C"/>
  <outline>
    <contour>
      <point x="60" y="1290" type="curve"/>
      <point x="60" y="1191" type="line"/>
      <point x="111" y="1191" type="line" smooth="yes"/>
      <point x="226" y="1191"/>
      <point x="237" y="1167"/>
      <point x="237" y="1127" type="curve" smooth="yes"/>
      <point x="237" y="1116"/>
      <point x="236" y="1105"/>
      <point x="236" y="1095" type="curve" smooth="yes"/>
      <point x="236" y="192" type="line" smooth="yes"/>
      <point x="236" y="140"/>
      <point x="236" y="99"/>
      <point x="111" y="99" type="curve" smooth="yes"/>
      <point x="60" y="99" type="line"/>
      <point x="60" y="0" type="line"/>
      <point x="1053" y="0" type="line"/>
      <point x="1053" y="440" type="line"/>
      <point x="938" y="440" type="line"/>
      <point x="938" y="236"/>
      <point x="937" y="114"/>
      <point x="874" y="114" type="curve" smooth="yes"/>
      <point x="419" y="114" type="line"/>
      <point x="419" y="115"/>
      <point x="419" y="1104"/>
      <point x="419" y="1106" type="curve" smooth="yes"/>
      <point x="419" y="1151"/>
      <point x="420" y="1191"/>
      <point x="529" y="1191" type="curve" smooth="yes"/>
      <point x="600" y="1191" type="line"/>
      <point x="600" y="1290" type="line"/>
      <point x="460" y="1286"/>
      <point x="336" y="1287"/>
      <point x="208" y="1287" type="curve" smooth="yes"/>
      <point x="155" y="1287"/>
      <point x="105" y="1288"/>
    </contour>
  </outline>
</glyph>
<glyph name="M" format="1">
  <advance width="1766"/>
  <unicode hex="004D"/>
  <outline>
    <contour>
      <point x="59" y="1290" type="curve"/>
      <point x="59" y="1191" type="line"/>
      <point x="118" y="1191" type="line" smooth="yes"/>
      <point x="195" y="1191"/>
      <point x="225" y="1186"/>
      <point x="225" y="1119" type="curve" smooth="yes"/>
      <point x="224" y="183" type="line"/>
      <point x="223" y="124"/>
      <point x="233" y="99"/>
      <point x="114" y="99" type="curve" smooth="yes"/>
      <point x="52" y="99" type="line"/>
      <point x="52" y="0" type="line"/>
      <point x="132" y="0"/>
      <point x="202" y="2"/>
      <point x="309" y="2" type="curve" smooth="yes"/>
      <point x="408" y="2"/>
      <point x="459" y="0"/>
      <point x="527" y="0" type="curve"/>
      <point x="527" y="99" type="line"/>
      <point x="467" y="99" type="line" smooth="yes"/>
      <point x="373" y="99"/>
      <point x="361" y="104"/>
      <point x="361" y="181" type="curve" smooth="yes"/>
      <point x="361" y="1196" type="line"/>
      <point x="389.208677277" y="1123.29958783"/>
      <point x="420.520536453" y="1041.13184105"/>
      <point x="453.789651885" y="953.055160351" type="curve" smooth="yes"/>
      <point x="565.585870711" y="657.085768276"/>
      <point x="699.483470589" y="294.392563254"/>
      <point x="812" y="0" type="curve"/>
      <point x="925" y="0" type="line"/>
      <point x="1287" y="962" type="line"/>
      <point x="1287" y="962"/>
      <point x="1378" y="1200"/>
      <point x="1378" y="1200" type="curve"/>
      <point x="1378" y="189" type="line" smooth="yes"/>
      <point x="1378" y="137"/>
      <point x="1375" y="99"/>
      <point x="1268" y="99" type="curve" smooth="yes"/>
      <point x="1208" y="99" type="line"/>
      <point x="1208" y="0" type="line"/>
      <point x="1274" y="0"/>
      <point x="1322" y="2"/>
      <point x="1420" y="2" type="curve" smooth="yes"/>
      <point x="1547" y="2"/>
      <point x="1622" y="0"/>
      <point x="1715" y="0" type="curve"/>
      <point x="1715" y="99" type="line"/>
      <point x="1654" y="99" type="line" smooth="yes"/>
      <point x="1563" y="99"/>
      <point x="1544" y="103"/>
      <point x="1544" y="188" type="curve" smooth="yes"/>
      <point x="1544" y="188"/>
      <point x="1544" y="1120"/>
      <point x="1544" y="1122" type="curve" smooth="yes"/>
      <point x="1544" y="1167"/>
      <point x="1545" y="1191"/>
      <point x="1650" y="1191" type="curve" smooth="yes"/>
      <point x="1712" y="1191" type="line"/>
      <point x="1712" y="1290" type="line"/>
      <point x="1651" y="1288"/>
      <point x="1563" y="1287"/>
      <point x="1496" y="1287" type="curve" smooth="yes"/>
      <point x="1481" y="1287"/>
      <point x="1297" y="1290"/>
      <point x="1279" y="1290" type="curve"/>
      <point x="1270" y="1262"/>
      <point x="889" y="238"/>
      <point x="882" y="212" type="curve"/>
      <point x="882" y="212"/>
      <point x="486" y="1290"/>
      <point x="486" y="1290" type="curve"/>
      <point x="467" y="1290"/>
      <point x="318" y="1288"/>
      <point x="304" y="1288" type="curve" smooth="yes"/>
      <point x="232" y="1288"/>
      <point x="139" y="1288"/>
    </contour>
  </outline>
</glyph>
<glyph name="N" format="1">
  <advance width="1441"/>
  <unicode hex="004E"/>
  <outline>
    <contour>
      <point x="1040" y="-10" type="line"/>
      <point x="1234" y="-10" type="line"/>
      <point x="1234.0" y="-10.0"/>
      <point x="1234.0" y="1123.92528736"/>
      <point x="1234" y="1121" type="curve" smooth="yes"/>
      <point x="1234" y="1167"/>
      <point x="1235" y="1191"/>
      <point x="1340" y="1191" type="curve" smooth="yes"/>
      <point x="1403" y="1191" type="line"/>
      <point x="1403" y="1290" type="line"/>
      <point x="1403" y="1290"/>
      <point x="1180" y="1287"/>
      <point x="1151" y="1287" type="curve" smooth="yes"/>
      <point x="1092" y="1287"/>
      <point x="1025" y="1290"/>
      <point x="920" y="1290" type="curve"/>
      <point x="920" y="1191" type="line"/>
      <point x="972" y="1191" type="line" smooth="yes"/>
      <point x="1072" y="1191"/>
      <point x="1097" y="1188"/>
      <point x="1098" y="1119" type="curve"/>
      <point x="1098" y="187" type="line"/>
      <point x="1098.0" y="187.0"/>
      <point x="430" y="1290"/>
      <point x="430" y="1290" type="curve"/>
      <point x="374" y="1290"/>
      <point x="287" y="1289"/>
      <point x="234" y="1289" type="curve" smooth="yes"/>
      <point x="206" y="1289"/>
      <point x="44" y="1291"/>
      <point x="44" y="1290" type="curve"/>
      <point x="44" y="1266"/>
      <point x="43" y="1214"/>
      <point x="43" y="1191" type="curve"/>
      <point x="105" y="1191" type="line" smooth="yes"/>
      <point x="198" y="1191"/>
      <point x="214" y="1189"/>
      <point x="214" y="1109" type="curve" smooth="yes"/>
      <point x="214" y="181" type="line" smooth="yes"/>
      <point x="214" y="120"/>
      <point x="215" y="99"/>
      <point x="102" y="99" type="curve" smooth="yes"/>
      <point x="38" y="99" type="line"/>
      <point x="38" y="0" type="line"/>
      <point x="122" y="0"/>
      <point x="195" y="2"/>
      <point x="303" y="2" type="curve" smooth="yes"/>
      <point x="404" y="2"/>
      <point x="459" y="0"/>
      <point x="531" y="0" type="curve"/>
      <point x="531" y="99" type="line"/>
      <point x="477" y="99" type="line" smooth="yes"/>
      <point x="374" y="99"/>
      <point x="350" y="100"/>
      <point x="350" y="175" type="curve" smooth="yes"/>
      <point x="350" y="1124" type="line"/>
      <point x="350" y="1124"/>
      <point x="351" y="1124"/>
      <point x="352" y="1124" type="curve"/>
    </contour>
  </outline>
</glyph>
<glyph name="O" format="1">
  <advance width="1528"/>
  <unicode hex="004F"/>
  <outline>
    <contour>
      <point x="764" y="1202" type="curve" smooth="yes"/>
      <point x="1051" y="1202"/>
      <point x="1227" y="990"/>
      <point x="1227" y="646" type="curve" smooth="yes"/>
      <point x="1227" y="306"/>
      <point x="1051" y="92"/>
      <point x="764" y="92" type="curve" smooth="yes"/>
      <point x="478" y="92"/>
      <point x="301" y="305"/>
      <point x="301" y="647" type="curve" smooth="yes"/>
      <point x="301" y="987"/>
      <point x="476" y="1202"/>
    </contour>
    <contour>
      <point x="765" y="1315" type="curve" smooth="yes"/>
      <point x="359" y="1315"/>
      <point x="105" y="1046"/>
      <point x="105" y="646" type="curve" smooth="yes"/>
      <point x="105" y="242"/>
      <point x="359" y="-24"/>
      <point x="772" y="-24" type="curve" smooth="yes"/>
      <point x="1170" y="-24"/>
      <point x="1425" y="249"/>
      <point x="1425" y="646" type="curve" smooth="yes"/>
      <point x="1425" y="1045"/>
      <point x="1169" y="1315"/>
    </contour>
  </outline>
</glyph>
<glyph name="P" format="1">
  <advance width="1166"/>
  <unicode hex="0050"/>
  <outline>
    <contour>
      <point x="55" y="1290" type="line"/>
      <point x="55" y="1191" type="line"/>
      <point x="75.5475205481" y="1191.0"/>
      <point x="93.7503839948" y="1190.9278567"/>
      <point x="109.867762146" y="1190.65519529" type="curve" smooth="yes"/>
      <point x="213.762861968" y="1188.89757788"/>
      <point x="231.0" y="1178.80785128"/>
      <point x="231" y="1126" type="curve" smooth="yes"/>
      <point x="231" y="180" type="line" smooth="yes"/>
      <point x="231" y="128"/>
      <point x="230" y="99"/>
      <point x="107" y="99" type="curve" smooth="yes"/>
      <point x="55" y="99" type="line"/>
      <point x="55" y="0" type="line"/>
      <point x="148" y="0"/>
      <point x="238" y="2"/>
      <point x="361" y="2" type="curve" smooth="yes"/>
      <point x="464" y="2"/>
      <point x="519" y="0"/>
      <point x="591" y="0" type="curve"/>
      <point x="591" y="99" type="line"/>
      <point x="540" y="99" type="line" smooth="yes"/>
      <point x="444" y="99"/>
      <point x="414" y="101"/>
      <point x="414" y="176" type="curve" smooth="yes"/>
      <point x="414" y="551" type="line"/>
      <point x="646" y="551" type="line" smooth="yes"/>
      <point x="984" y="551"/>
      <point x="1117" y="701"/>
      <point x="1117" y="919" type="curve" smooth="yes"/>
      <point x="1117" y="1138"/>
      <point x="971" y="1290"/>
      <point x="644" y="1290" type="curve" smooth="yes"/>
    </contour>
    <contour>
      <point x="414" y="1184" type="line"/>
      <point x="610" y="1184" type="line" smooth="yes"/>
      <point x="847" y="1184"/>
      <point x="937" y="1089"/>
      <point x="937" y="916" type="curve" smooth="yes"/>
      <point x="937" y="740"/>
      <point x="829" y="654"/>
      <point x="605" y="654" type="curve" smooth="yes"/>
      <point x="414" y="654" type="line"/>
    </contour>
  </outline>
</glyph>
<glyph name="Q" format="1">
  <advance width="1528"/>
  <unicode hex="0051"/>
  <outline>
    <contour>
      <point x="1244" y="-279" type="curve" smooth="yes"/>
      <point x="1258" y="-280"/>
      <point x="1272" y="-280"/>
      <point x="1286" y="-281" type="curve"/>
      <point x="1320" y="-177" type="line"/>
      <point x="1110" y="-153"/>
      <point x="1020" y="-76"/>
      <point x="876" y="-18" type="curve"/>
      <point x="873" y="-18"/>
      <point x="870" y="-16"/>
      <point x="867" y="-15" type="curve"/>
      <point x="1208" y="22"/>
      <point x="1425" y="285"/>
      <point x="1425" y="646" type="curve" smooth="yes"/>
      <point x="1425" y="1044"/>
      <point x="1168" y="1315"/>
      <point x="767" y="1315" type="curve" smooth="yes"/>
      <point x="360" y="1315"/>
      <point x="105" y="1045"/>
      <point x="105" y="645" type="curve" smooth="yes"/>
      <point x="105" y="285"/>
      <point x="306" y="40"/>
      <point x="658" y="-14" type="curve"/>
      <point x="615" y="-18"/>
      <point x="523" y="-57"/>
      <point x="493" y="-83" type="curve"/>
      <point x="503" y="-96"/>
      <point x="531" y="-131"/>
      <point x="541" y="-144" type="curve"/>
      <point x="565" y="-127"/>
      <point x="629" y="-84"/>
      <point x="710" y="-84" type="curve"/>
      <point x="829" y="-84"/>
      <point x="980" y="-257"/>
    </contour>
    <contour>
      <point x="764" y="92" type="curve" smooth="yes"/>
      <point x="475" y="92"/>
      <point x="301" y="313"/>
      <point x="301" y="649" type="curve" smooth="yes"/>
      <point x="301" y="984"/>
      <point x="476" y="1202"/>
      <point x="764" y="1202" type="curve" smooth="yes"/>
      <point x="1049" y="1202"/>
      <point x="1227" y="990"/>
      <point x="1227" y="648" type="curve" smooth="yes"/>
      <point x="1227" y="309"/>
      <point x="1049" y="92"/>
    </contour>
  </outline>
</glyph>
<glyph name="R" format="1">
  <advance width="1327"/>
  <unicode hex="0052"/>
  <outline>
    <contour>
      <point x="1009" y="349" type="curve" smooth="yes"/>
      <point x="970" y="519"/>
      <point x="908" y="589"/>
      <point x="829" y="649" type="curve"/>
      <point x="1009" y="687"/>
      <point x="1112" y="799"/>
      <point x="1112" y="958" type="curve" smooth="yes"/>
      <point x="1112" y="1231"/>
      <point x="889" y="1290"/>
      <point x="597" y="1290" type="curve" smooth="yes"/>
      <point x="46" y="1290" type="line"/>
      <point x="46" y="1191" type="line"/>
      <point x="65.163223356" y="1191.0"/>
      <point x="82.323923786" y="1190.97601769"/>
      <point x="97.6908811793" y="1190.85189437" type="curve" smooth="yes"/>
      <point x="222.656136893" y="1189.84251415"/>
      <point x="229.0" y="1182.21074373"/>
      <point x="229" y="1127" type="curve" smooth="yes"/>
      <point x="229" y="163" type="line" smooth="yes"/>
      <point x="229" y="121"/>
      <point x="229" y="99"/>
      <point x="96" y="99" type="curve" smooth="yes"/>
      <point x="46" y="99" type="line"/>
      <point x="46" y="0" type="line"/>
      <point x="132" y="0"/>
      <point x="212" y="2"/>
      <point x="330" y="2" type="curve"/>
      <point x="440" y="0"/>
      <point x="509" y="0"/>
      <point x="589" y="0" type="curve"/>
      <point x="589" y="99" type="line"/>
      <point x="537" y="99" type="line" smooth="yes"/>
      <point x="440" y="99"/>
      <point x="411" y="99"/>
      <point x="411" y="151" type="curve" smooth="yes"/>
      <point x="411" y="614" type="line"/>
      <point x="543" y="614" type="line" smooth="yes"/>
      <point x="610" y="614"/>
      <point x="664" y="608"/>
      <point x="704" y="593" type="curve"/>
      <point x="741" y="539"/>
      <point x="786" y="471"/>
      <point x="810" y="385" type="curve" smooth="yes"/>
      <point x="877" y="143"/>
      <point x="919" y="-24"/>
      <point x="1113" y="-24" type="curve" smooth="yes"/>
      <point x="1251" y="-24"/>
      <point x="1331" y="63"/>
      <point x="1331" y="201" type="curve"/>
      <point x="1230" y="192" type="line"/>
      <point x="1230" y="111"/>
      <point x="1186" y="96"/>
      <point x="1146" y="96" type="curve" smooth="yes"/>
      <point x="1072" y="96"/>
      <point x="1050" y="173"/>
    </contour>
    <contour>
      <point x="411" y="1182" type="line"/>
      <point x="566" y="1182" type="line" smooth="yes"/>
      <point x="801" y="1182"/>
      <point x="931" y="1142"/>
      <point x="931" y="947" type="curve" smooth="yes"/>
      <point x="931" y="776"/>
      <point x="845" y="711"/>
      <point x="629" y="711" type="curve" smooth="yes"/>
      <point x="411" y="711" type="line"/>
    </contour>
  </outline>
</glyph>
<glyph name="S" format="1">
  <advance width="1135"/>
  <unicode hex="0053"/>
  <outline>
    <contour>
      <point x="986" y="1284" type="line"/>
      <point x="944" y="1284"/>
      <point x="894" y="1285"/>
      <point x="862" y="1285" type="curve" smooth="yes"/>
      <point x="862" y="1285"/>
      <point x="862" y="1226"/>
      <point x="862" y="1202" type="curve"/>
      <point x="756" y="1292"/>
      <point x="649" y="1314"/>
      <point x="517" y="1314" type="curve" smooth="yes"/>
      <point x="262" y="1314"/>
      <point x="107" y="1165"/>
      <point x="107" y="975" type="curve" smooth="yes"/>
      <point x="107" y="806"/>
      <point x="209" y="714"/>
      <point x="406" y="639" type="curve" smooth="yes"/>
      <point x="631" y="553"/>
      <point x="859" y="522"/>
      <point x="859" y="329" type="curve" smooth="yes"/>
      <point x="859" y="183"/>
      <point x="737" y="88"/>
      <point x="560" y="88" type="curve" smooth="yes"/>
      <point x="330.500003815" y="88.0"/>
      <point x="230.508165335" y="202.219000199"/>
      <point x="220.790738057" y="378.629641101" type="curve" smooth="yes"/>
      <point x="220.261466248" y="388.2380669"/>
      <point x="220.0" y="398.030988693"/>
      <point x="220" y="408" type="curve"/>
      <point x="100" y="408" type="line"/>
      <point x="100" y="0" type="line"/>
      <point x="132" y="0"/>
      <point x="188" y="0"/>
      <point x="232" y="0" type="curve"/>
      <point x="232" y="117" type="line"/>
      <point x="302" y="30"/>
      <point x="436" y="-24"/>
      <point x="615" y="-24" type="curve" smooth="yes"/>
      <point x="871" y="-24"/>
      <point x="1040" y="138"/>
      <point x="1040" y="349" type="curve" smooth="yes"/>
      <point x="1040" y="530"/>
      <point x="926" y="626"/>
      <point x="760" y="689" type="curve" smooth="yes"/>
      <point x="520" y="779"/>
      <point x="281" y="809"/>
      <point x="281" y="999" type="curve" smooth="yes"/>
      <point x="281" y="1120"/>
      <point x="383" y="1208"/>
      <point x="552" y="1208" type="curve" smooth="yes"/>
      <point x="738" y="1208"/>
      <point x="862" y="1121"/>
      <point x="867" y="982" type="curve" smooth="yes"/>
      <point x="867" y="969"/>
      <point x="868" y="955"/>
      <point x="869" y="941" type="curve"/>
      <point x="986" y="941" type="line"/>
    </contour>
  </outline>
</glyph>
<glyph name="T" format="1">
  <advance width="1272"/>
  <unicode hex="0054"/>
  <outline>
    <contour>
      <point x="72" y="1290" type="curve"/>
      <point x="72" y="904" type="line"/>
      <point x="177" y="904" type="line"/>
      <point x="177" y="968"/>
      <point x="176" y="1061"/>
      <point x="176" y="1121" type="curve" smooth="yes"/>
      <point x="176" y="1159"/>
      <point x="180" y="1176"/>
      <point x="330" y="1176" type="curve" smooth="yes"/>
      <point x="547" y="1176" type="line"/>
      <point x="547" y="168" type="line" smooth="yes"/>
      <point x="547" y="131"/>
      <point x="547" y="99"/>
      <point x="422" y="99" type="curve" smooth="yes"/>
      <point x="367" y="99" type="line"/>
      <point x="367" y="0" type="line"/>
      <point x="440" y="0"/>
      <point x="635" y="2"/>
      <point x="652" y="2" type="curve" smooth="yes"/>
      <point x="764" y="0"/>
      <point x="831" y="0"/>
      <point x="909" y="0" type="curve"/>
      <point x="909" y="99" type="line"/>
      <point x="853" y="99" type="line" smooth="yes"/>
      <point x="731" y="99"/>
      <point x="729" y="113"/>
      <point x="729" y="157" type="curve" smooth="yes"/>
      <point x="729" y="1176" type="line"/>
      <point x="931" y="1176" type="line" smooth="yes"/>
      <point x="1091" y="1176"/>
      <point x="1094" y="1166"/>
      <point x="1094" y="1110" type="curve" smooth="yes"/>
      <point x="1094" y="904" type="line"/>
      <point x="1200" y="904" type="line"/>
      <point x="1200" y="1290" type="line"/>
      <point x="1110" y="1290"/>
      <point x="950" y="1288"/>
      <point x="858" y="1288" type="curve" smooth="yes"/>
      <point x="472" y="1288" type="line" smooth="yes"/>
      <point x="386" y="1288"/>
      <point x="72" y="1289"/>
    </contour>
  </outline>
</glyph>
<glyph name="U" format="1">
  <advance width="1351"/>
  <unicode hex="0055"/>
  <outline>
    <contour>
      <point x="24" y="1290" type="curve"/>
      <point x="24" y="1191" type="line"/>
      <point x="74" y="1191" type="line" smooth="yes"/>
      <point x="187" y="1191"/>
      <point x="189" y="1176"/>
      <point x="189" y="1134" type="curve" smooth="yes"/>
      <point x="189" y="490" type="line" smooth="yes"/>
      <point x="189" y="147"/>
      <point x="304" y="-24"/>
      <point x="685" y="-24" type="curve" smooth="yes"/>
      <point x="1035" y="-24"/>
      <point x="1164" y="143"/>
      <point x="1164" y="493" type="curve" smooth="yes"/>
      <point x="1164" y="1128" type="line" smooth="yes"/>
      <point x="1164" y="1159"/>
      <point x="1162" y="1191"/>
      <point x="1276" y="1191" type="curve" smooth="yes"/>
      <point x="1327" y="1191" type="line"/>
      <point x="1327" y="1290" type="line"/>
      <point x="1128" y="1290"/>
      <point x="1083" y="1288"/>
      <point x="1004" y="1288" type="curve" smooth="yes"/>
      <point x="947" y="1288"/>
      <point x="888" y="1288"/>
      <point x="841" y="1290" type="curve"/>
      <point x="841" y="1191" type="line"/>
      <point x="889" y="1191" type="line" smooth="yes"/>
      <point x="1019" y="1191"/>
      <point x="1018" y="1173"/>
      <point x="1018" y="1123" type="curve" smooth="yes"/>
      <point x="1018" y="487" type="line" smooth="yes"/>
      <point x="1018" y="236"/>
      <point x="969" y="94"/>
      <point x="697" y="94" type="curve" smooth="yes"/>
      <point x="443" y="94"/>
      <point x="370" y="217"/>
      <point x="370" y="495" type="curve" smooth="yes"/>
      <point x="370" y="1128" type="line" smooth="yes"/>
      <point x="370" y="1162"/>
      <point x="371" y="1191"/>
      <point x="492" y="1191" type="curve" smooth="yes"/>
      <point x="539" y="1191" type="line"/>
      <point x="539" y="1290" type="line"/>
      <point x="462" y="1288"/>
      <point x="394" y="1288"/>
      <point x="323" y="1288" type="curve" smooth="yes"/>
      <point x="226" y="1288"/>
      <point x="115" y="1288"/>
    </contour>
  </outline>
</glyph>
<glyph name="V" format="1">
  <advance width="1342"/>
  <unicode hex="0056"/>
  <outline>
    <contour>
      <point x="335" y="1088" type="curve"/>
      <point x="325" y="1113"/>
      <point x="321" y="1132"/>
      <point x="321" y="1145" type="curve" smooth="yes"/>
      <point x="321" y="1191"/>
      <point x="372" y="1191"/>
      <point x="478" y="1191" type="curve"/>
      <point x="478" y="1290" type="line"/>
      <point x="478" y="1290"/>
      <point x="223" y="1286"/>
      <point x="144" y="1286" type="curve" smooth="yes"/>
      <point x="96" y="1286"/>
      <point x="34" y="1288"/>
      <point x="-14" y="1290" type="curve"/>
      <point x="-14" y="1191" type="line"/>
      <point x="110" y="1191"/>
      <point x="117" y="1182"/>
      <point x="161" y="1073" type="curve" smooth="yes"/>
      <point x="594" y="-13" type="line"/>
      <point x="772" y="-13" type="line"/>
      <point x="1120" y="919" type="line" smooth="yes"/>
      <point x="1217" y="1180"/>
      <point x="1221" y="1191"/>
      <point x="1356" y="1191" type="curve"/>
      <point x="1356" y="1290" type="line"/>
      <point x="1277" y="1289"/>
      <point x="1197" y="1287"/>
      <point x="1124" y="1287" type="curve" smooth="yes"/>
      <point x="1078" y="1287"/>
      <point x="894" y="1290"/>
      <point x="894" y="1290" type="curve"/>
      <point x="894" y="1191" type="line"/>
      <point x="917" y="1191"/>
      <point x="938" y="1191"/>
      <point x="956" y="1191" type="curve" smooth="yes"/>
      <point x="1029" y="1191"/>
      <point x="1059" y="1188"/>
      <point x="1059" y="1156" type="curve" smooth="yes"/>
      <point x="1059" y="1140"/>
      <point x="1051" y="1118"/>
      <point x="1039" y="1085" type="curve" smooth="yes"/>
      <point x="698" y="155" type="line"/>
      <point x="695" y="164"/>
      <point x="338" y="1078"/>
    </contour>
  </outline>
</glyph>
<glyph name="W" format="1">
  <advance width="1978"/>
  <unicode hex="0057"/>
  <outline>
    <contour>
      <point x="506" y="-13" type="line"/>
      <point x="692" y="-13" type="line"/>
      <point x="991" y="1141" type="line"/>
      <point x="1291" y="-13" type="line"/>
      <point x="1471" y="-13" type="line"/>
      <point x="1488" y="44"/>
      <point x="1771" y="1043"/>
      <point x="1776" y="1060" type="curve" smooth="yes"/>
      <point x="1813" y="1188"/>
      <point x="1832" y="1191"/>
      <point x="1954" y="1191" type="curve"/>
      <point x="1954" y="1290" type="line"/>
      <point x="1878" y="1288"/>
      <point x="1796" y="1288"/>
      <point x="1730" y="1288" type="curve" smooth="yes"/>
      <point x="1674" y="1288"/>
      <point x="1592" y="1290"/>
      <point x="1495" y="1290" type="curve"/>
      <point x="1495" y="1191" type="line"/>
      <point x="1513.19008243" y="1191.0"/>
      <point x="1529.50799514" y="1190.89240404"/>
      <point x="1544.11157518" y="1190.56988292" type="curve" smooth="yes"/>
      <point x="1629.05916166" y="1188.69380937"/>
      <point x="1656.0" y="1179.54545462"/>
      <point x="1656" y="1142" type="curve"/>
      <point x="1655" y="1124"/>
      <point x="1649" y="1101"/>
      <point x="1641" y="1071" type="curve" smooth="yes"/>
      <point x="1394" y="147" type="line"/>
      <point x="1088" y="1275" type="line"/>
      <point x="900" y="1275" type="line"/>
      <point x="614" y="149" type="line"/>
      <point x="536" y="429"/>
      <point x="444" y="785"/>
      <point x="366" y="1065" type="curve" smooth="yes"/>
      <point x="358" y="1095"/>
      <point x="352" y="1116"/>
      <point x="352" y="1135" type="curve" smooth="yes"/>
      <point x="352" y="1187"/>
      <point x="396" y="1191"/>
      <point x="509" y="1191" type="curve"/>
      <point x="509" y="1290" type="line"/>
      <point x="415" y="1290"/>
      <point x="334" y="1287"/>
      <point x="277" y="1287" type="curve" smooth="yes"/>
      <point x="230" y="1287"/>
      <point x="24" y="1290"/>
      <point x="24" y="1290" type="curve"/>
      <point x="24" y="1267"/>
      <point x="25" y="1191"/>
      <point x="25" y="1191" type="curve"/>
      <point x="158" y="1191"/>
      <point x="159" y="1187"/>
      <point x="197" y="1055" type="curve" smooth="yes"/>
    </contour>
  </outline>
</glyph>
<glyph name="X" format="1">
  <advance width="1406"/>
  <unicode hex="0058"/>
  <outline>
    <contour>
      <point x="33" y="1290" type="curve"/>
      <point x="33" y="1258"/>
      <point x="33" y="1224"/>
      <point x="33" y="1191" type="curve"/>
      <point x="176" y="1191"/>
      <point x="181" y="1189"/>
      <point x="295" y="1040" type="curve" smooth="yes"/>
      <point x="594" y="648" type="line"/>
      <point x="265" y="218" type="line"/>
      <point x="172" y="99"/>
      <point x="135" y="99"/>
      <point x="28" y="99" type="curve"/>
      <point x="28" y="0" type="line"/>
      <point x="115" y="0"/>
      <point x="175" y="2"/>
      <point x="265" y="2" type="curve" smooth="yes"/>
      <point x="354" y="2"/>
      <point x="523" y="0"/>
      <point x="552" y="0" type="curve"/>
      <point x="552" y="98" type="line"/>
      <point x="440" y="98"/>
      <point x="389" y="98"/>
      <point x="389" y="131" type="curve" smooth="yes"/>
      <point x="389" y="152"/>
      <point x="413" y="187"/>
      <point x="458" y="248" type="curve" smooth="yes"/>
      <point x="682" y="552" type="line"/>
      <point x="918" y="241" type="line" smooth="yes"/>
      <point x="953" y="195"/>
      <point x="978" y="160"/>
      <point x="978" y="139" type="curve" smooth="yes"/>
      <point x="978" y="107"/>
      <point x="932" y="98"/>
      <point x="826" y="98" type="curve"/>
      <point x="826" y="65"/>
      <point x="827" y="32"/>
      <point x="827" y="0" type="curve"/>
      <point x="916" y="0"/>
      <point x="989" y="2"/>
      <point x="1107" y="2" type="curve" smooth="yes"/>
      <point x="1221" y="2"/>
      <point x="1291" y="0"/>
      <point x="1376" y="0" type="curve"/>
      <point x="1376" y="32"/>
      <point x="1376" y="66"/>
      <point x="1376" y="98" type="curve"/>
      <point x="1227" y="98"/>
      <point x="1207" y="126"/>
      <point x="1108" y="257" type="curve"/>
      <point x="790" y="670" type="line"/>
      <point x="790" y="670"/>
      <point x="1122" y="1113"/>
      <point x="1123" y="1114" type="curve" smooth="yes"/>
      <point x="1167" y="1180"/>
      <point x="1201" y="1194"/>
      <point x="1338" y="1194" type="curve"/>
      <point x="1339" y="1290" type="line"/>
      <point x="1230" y="1289"/>
      <point x="1138" y="1286"/>
      <point x="1019" y="1286" type="curve" smooth="yes"/>
      <point x="947" y="1286"/>
      <point x="848" y="1290"/>
      <point x="832" y="1290" type="curve"/>
      <point x="832" y="1191" type="line"/>
      <point x="951" y="1191"/>
      <point x="987" y="1184"/>
      <point x="987" y="1165" type="curve" smooth="yes"/>
      <point x="987" y="1159"/>
      <point x="971" y="1139"/>
      <point x="949" y="1106" type="curve" smooth="yes"/>
      <point x="878" y="1001"/>
      <point x="702" y="770"/>
      <point x="703" y="767" type="curve"/>
      <point x="467" y="1078" type="line" smooth="yes"/>
      <point x="434" y="1121"/>
      <point x="416" y="1148"/>
      <point x="416" y="1165" type="curve" smooth="yes"/>
      <point x="416" y="1189"/>
      <point x="448" y="1191"/>
      <point x="510" y="1191" type="curve" smooth="yes"/>
      <point x="527" y="1191"/>
      <point x="545" y="1191"/>
      <point x="566" y="1191" type="curve"/>
      <point x="566" y="1290" type="line"/>
      <point x="490" y="1290"/>
      <point x="417" y="1286"/>
      <point x="357" y="1286" type="curve" smooth="yes"/>
      <point x="224" y="1286"/>
      <point x="149" y="1286"/>
    </contour>
  </outline>
</glyph>
<glyph name="Y" format="1">
  <advance width="1259"/>
  <unicode hex="0059"/>
  <outline>
    <contour>
      <point x="-7" y="1290" type="curve"/>
      <point x="-7" y="1258"/>
      <point x="-6" y="1224"/>
      <point x="-6" y="1191" type="curve"/>
      <point x="126" y="1191"/>
      <point x="129" y="1187"/>
      <point x="202" y="1073" type="curve" smooth="yes"/>
      <point x="213" y="1056"/>
      <point x="530" y="567"/>
      <point x="541" y="550" type="curve"/>
      <point x="541" y="161" type="line" smooth="yes"/>
      <point x="541" y="125"/>
      <point x="542" y="99"/>
      <point x="414" y="99" type="curve" smooth="yes"/>
      <point x="361" y="99" type="line"/>
      <point x="361" y="0" type="line"/>
      <point x="434" y="0"/>
      <point x="526" y="2"/>
      <point x="628" y="2" type="curve"/>
      <point x="743" y="0"/>
      <point x="819" y="0"/>
      <point x="902" y="0" type="curve"/>
      <point x="902" y="99" type="line"/>
      <point x="848" y="99" type="line" smooth="yes"/>
      <point x="729" y="99"/>
      <point x="719" y="109"/>
      <point x="719" y="163" type="curve" smooth="yes"/>
      <point x="719" y="548" type="line"/>
      <point x="730" y="565"/>
      <point x="998" y="978"/>
      <point x="1090" y="1113" type="curve" smooth="yes"/>
      <point x="1142" y="1189"/>
      <point x="1144" y="1191"/>
      <point x="1265" y="1191" type="curve"/>
      <point x="1265" y="1290" type="line"/>
      <point x="1185" y="1288"/>
      <point x="1121" y="1288"/>
      <point x="1058" y="1288" type="curve" smooth="yes"/>
      <point x="1002" y="1288"/>
      <point x="795" y="1290"/>
      <point x="795" y="1290" type="curve"/>
      <point x="795" y="1191" type="line"/>
      <point x="804.487603664" y="1191.0"/>
      <point x="813.494421315" y="1191.0"/>
      <point x="822.03382624" y="1190.98358733" type="curve" smooth="yes"/>
      <point x="914.301051251" y="1190.80625041"/>
      <point x="952.0" y="1188.71280983"/>
      <point x="952" y="1164" type="curve" smooth="yes"/>
      <point x="952" y="1145"/>
      <point x="934" y="1116"/>
      <point x="903" y="1067" type="curve" smooth="yes"/>
      <point x="648" y="664" type="line"/>
      <point x="644" y="673"/>
      <point x="397" y="1064"/>
      <point x="392" y="1073" type="curve" smooth="yes"/>
      <point x="366" y="1116"/>
      <point x="348" y="1146"/>
      <point x="346" y="1164" type="curve"/>
      <point x="346" y="1190"/>
      <point x="383" y="1191"/>
      <point x="470" y="1191" type="curve" smooth="yes"/>
      <point x="508" y="1191" type="line"/>
      <point x="508" y="1290" type="line"/>
      <point x="333" y="1290"/>
      <point x="241" y="1287"/>
      <point x="128" y="1287" type="curve" smooth="yes"/>
      <point x="87" y="1287"/>
      <point x="32" y="1288"/>
    </contour>
  </outline>
</glyph>
<glyph name="Z" format="1">
  <advance width="1147"/>
  <unicode hex="005A"/>
  <outline>
    <contour>
      <point x="88" y="1288" type="line"/>
      <point x="88" y="946" type="line"/>
      <point x="199" y="946" type="line"/>
      <point x="199" y="1111" type="line" smooth="yes"/>
      <point x="199" y="1178"/>
      <point x="218" y="1179"/>
      <point x="360" y="1179" type="curve" smooth="yes"/>
      <point x="868" y="1179" type="line"/>
      <point x="59" y="134" type="line"/>
      <point x="59" y="0" type="line"/>
      <point x="1088" y="0" type="line"/>
      <point x="1088" y="361" type="line"/>
      <point x="975" y="361" type="line"/>
      <point x="974" y="154"/>
      <point x="972" y="110"/>
      <point x="907" y="110" type="curve" smooth="yes"/>
      <point x="252" y="110" type="line"/>
      <point x="1061" y="1152" type="line"/>
      <point x="1061" y="1288" type="line"/>
    </contour>
  </outline>
</glyph>
<glyph name="bracketleft" format="1">
  <advance width="695"/>
  <unicode hex="005B"/>
  <outline>
    <contour>
      <point x="198" y="1290" type="line"/>
      <point x="198" y="-292" type="line"/>
      <point x="644" y="-292" type="line"/>
      <point x="644" y="-179" type="line"/>
      <point x="364" y="-179" type="line"/>
      <point x="364" y="1178" type="line"/>
      <point x="645" y="1178" type="line"/>
      <point x="645" y="1290" type="line"/>
    </contour>
  </outline>
</glyph>
<glyph name="backslash" format="1">
  <advance width="559"/>
  <unicode hex="005C"/>
  <outline>
    <contour>
      <point x="-25" y="1304" type="line"/>
      <point x="472" y="-105" type="line"/>
      <point x="596" y="-105" type="line"/>
      <point x="99" y="1304" type="line"/>
    </contour>
  </outline>
</glyph>
<glyph name="bracketright" format="1">
  <advance width="695"/>
  <unicode hex="005D"/>
  <outline>
    <contour>
      <point x="48" y="1290" type="line"/>
      <point x="48" y="1178" type="line"/>
      <point x="330" y="1178" type="line"/>
      <point x="330" y="-179" type="line"/>
      <point x="48" y="-179" type="line"/>
      <point x="48" y="-292" type="line"/>
      <point x="496" y="-292" type="line"/>
      <point x="496" y="1290" type="line"/>
    </contour>
  </outline>
</glyph>
<glyph name="asciicircum" format="1">
  <advance width="1700"/>
  <unicode hex="005E"/>
  <outline>
    <contour>
      <point x="929" y="1403" type="line"/>
      <point x="795" y="1403" type="line"/>
      <point x="313" y="850" type="line"/>
      <point x="408" y="826" type="line"/>
      <point x="849" y="1263" type="line"/>
      <point x="1288" y="826" type="line"/>
      <point x="1386" y="850" type="line"/>
    </contour>
  </outline>
</glyph>
<glyph name="underscore" format="1">
  <advance width="1024"/>
  <unicode hex="005F"/>
  <outline>
    <contour>
      <point x="1030" y="-251" type="line"/>
      <point x="-6" y="-251" type="line"/>
      <point x="-6" y="-361" type="line"/>
      <point x="1030" y="-361" type="line"/>
    </contour>
  </outline>
</glyph>
<glyph name="grave" format="1">
  <advance width="853"/>
  <unicode hex="0060"/>
  <outline>
    <contour>
      <point x="352" y="1330" type="line" smooth="yes"/>
      <point x="337" y="1349"/>
      <point x="297" y="1362"/>
      <point x="261" y="1362" type="curve" smooth="yes"/>
      <point x="221" y="1362"/>
      <point x="187" y="1345"/>
      <point x="187" y="1324" type="curve"/>
      <point x="194" y="1248"/>
      <point x="409" y="1109"/>
      <point x="499" y="1029" type="curve"/>
      <point x="582" y="1029" type="line"/>
    </contour>
  </outline>
</glyph>
<glyph name="a" format="1">
  <advance width="1093"/>
  <unicode hex="0061"/>
  <outline>
    <contour>
      <point x="903" y="603" type="line" smooth="yes"/>
      <point x="903" y="823"/>
      <point x="791" y="922"/>
      <point x="508" y="922" type="curve" smooth="yes"/>
      <point x="366" y="922"/>
      <point x="251" y="895"/>
      <point x="166" y="856" type="curve"/>
      <point x="153" y="680" type="line"/>
      <point x="245" y="669" type="line"/>
      <point x="271" y="781"/>
      <point x="350" y="835"/>
      <point x="489" y="835" type="curve" smooth="yes"/>
      <point x="655" y="835"/>
      <point x="735" y="768"/>
      <point x="735" y="648" type="curve" smooth="yes"/>
      <point x="735" y="500" type="line"/>
      <point x="647" y="523"/>
      <point x="561" y="536"/>
      <point x="478" y="536" type="curve" smooth="yes"/>
      <point x="234" y="536"/>
      <point x="91" y="423"/>
      <point x="91" y="252" type="curve" smooth="yes"/>
      <point x="91" y="93"/>
      <point x="215" y="-21"/>
      <point x="406" y="-21" type="curve" smooth="yes"/>
      <point x="552" y="-21"/>
      <point x="661" y="31"/>
      <point x="741" y="133" type="curve"/>
      <point x="741" y="128"/>
      <point x="741" y="1"/>
      <point x="741" y="-4" type="curve"/>
      <point x="802.969010413" y="-2.60743796825"/>
      <point x="873.664551381" y="-1.21487593651"/>
      <point x="946.33538117" y="-0.497438078096" type="curve" smooth="yes"/>
      <point x="978.034522891" y="-0.184490442638"/>
      <point x="1010.10950667" y="1.66533453694e-16"/>
      <point x="1042" y="0" type="curve"/>
      <point x="1042" y="89" type="line"/>
      <point x="997" y="89" type="line" smooth="yes"/>
      <point x="917" y="89"/>
      <point x="903" y="85"/>
      <point x="903" y="224" type="curve" smooth="yes"/>
    </contour>
    <contour>
      <point x="516" y="452" type="curve" smooth="yes"/>
      <point x="584" y="452"/>
      <point x="655" y="439"/>
      <point x="735" y="417" type="curve"/>
      <point x="735" y="319" type="line" smooth="yes"/>
      <point x="735" y="157"/>
      <point x="586" y="75"/>
      <point x="457" y="75" type="curve" smooth="yes"/>
      <point x="339" y="75"/>
      <point x="257" y="147"/>
      <point x="257" y="257" type="curve" smooth="yes"/>
      <point x="257" y="379"/>
      <point x="356" y="452"/>
    </contour>
  </outline>
</glyph>
<glyph name="b" format="1">
  <advance width="1215"/>
  <unicode hex="0062"/>
  <outline>
    <contour>
      <point x="691" y="-21" type="curve" smooth="yes"/>
      <point x="956" y="-21"/>
      <point x="1128" y="168"/>
      <point x="1128" y="447" type="curve" smooth="yes"/>
      <point x="1128" y="734"/>
      <point x="953" y="922"/>
      <point x="689" y="922" type="curve" smooth="yes"/>
      <point x="549" y="922"/>
      <point x="436" y="865"/>
      <point x="360" y="757" type="curve"/>
      <point x="358" y="1297" type="line"/>
      <point x="291.460743427" y="1295.59917355"/>
      <point x="219.034542591" y="1294.19834709"/>
      <point x="142.0958287" y="1293.48473624" type="curve" smooth="yes"/>
      <point x="109.186939895" y="1293.17950447"/>
      <point x="75.4524788857" y="1293.0"/>
      <point x="41" y="1293" type="curve"/>
      <point x="41" y="1202" type="line"/>
      <point x="141" y="1200"/>
      <point x="189" y="1201"/>
      <point x="189" y="1148" type="curve" smooth="yes"/>
      <point x="189" y="159" type="line" smooth="yes"/>
      <point x="189.0" y="115.8595047"/>
      <point x="189.0" y="93.7210322742"/>
      <point x="82.2792168575" y="89.6806158354" type="curve" smooth="yes"/>
      <point x="70.2577937461" y="89.2254884073"/>
      <point x="56.8822331429" y="89.0"/>
      <point x="42" y="89" type="curve"/>
      <point x="42" y="0" type="line"/>
      <point x="66.5020659268" y="0.0"/>
      <point x="108.76804371" y="-0.344930327309"/>
      <point x="155.905806133" y="-0.891545123962" type="curve" smooth="yes"/>
      <point x="222.273900369" y="-1.66115701199"/>
      <point x="298.299586505" y="-2.83057850599"/>
      <point x="348" y="-4" type="curve"/>
      <point x="349" y="152" type="line"/>
      <point x="429" y="37"/>
      <point x="541" y="-21"/>
    </contour>
    <contour>
      <point x="653" y="88" type="curve" smooth="yes"/>
      <point x="464" y="88"/>
      <point x="350" y="221"/>
      <point x="350" y="448" type="curve" smooth="yes"/>
      <point x="350" y="677"/>
      <point x="466" y="817"/>
      <point x="655" y="817" type="curve" smooth="yes"/>
      <point x="837" y="817"/>
      <point x="955" y="676"/>
      <point x="955" y="453" type="curve" smooth="yes"/>
      <point x="955" y="227"/>
      <point x="838" y="88"/>
    </contour>
  </outline>
</glyph>
<glyph name="c" format="1">
  <advance width="1011"/>
  <unicode hex="0063"/>
  <outline>
    <contour>
      <point x="912" y="888" type="line"/>
      <point x="902" y="889"/>
      <point x="830" y="889"/>
      <point x="820" y="890" type="curve"/>
      <point x="795" y="811" type="line"/>
      <point x="731" y="889"/>
      <point x="629" y="912"/>
      <point x="521" y="912" type="curve" smooth="yes"/>
      <point x="261" y="912"/>
      <point x="81" y="709"/>
      <point x="81" y="441" type="curve" smooth="yes"/>
      <point x="81" y="159"/>
      <point x="263" y="-28"/>
      <point x="542" y="-28" type="curve" smooth="yes"/>
      <point x="752" y="-28"/>
      <point x="898" y="77"/>
      <point x="940" y="260" type="curve"/>
      <point x="823" y="280" type="line"/>
      <point x="787" y="149"/>
      <point x="694" y="75"/>
      <point x="561" y="75" type="curve" smooth="yes"/>
      <point x="375" y="75"/>
      <point x="258" y="218"/>
      <point x="258" y="448" type="curve" smooth="yes"/>
      <point x="258" y="675"/>
      <point x="370" y="814"/>
      <point x="559" y="814" type="curve" smooth="yes"/>
      <point x="714" y="814"/>
      <point x="808" y="736"/>
      <point x="814" y="576" type="curve"/>
      <point x="912" y="576" type="line"/>
    </contour>
  </outline>
</glyph>
<glyph name="d" format="1">
  <advance width="1198"/>
  <unicode hex="0064"/>
  <outline>
    <contour>
      <point x="514" y="-21" type="curve" smooth="yes"/>
      <point x="663" y="-21"/>
      <point x="779" y="39"/>
      <point x="854" y="152" type="curve"/>
      <point x="856" y="119"/>
      <point x="856" y="0"/>
      <point x="856" y="-4" type="curve"/>
      <point x="915.623969674" y="-2.73140490055"/>
      <point x="981.282940072" y="-1.4628098011"/>
      <point x="1047.61773055" y="-0.704612857878" type="curve" smooth="yes"/>
      <point x="1085.86286555" y="-0.267476564275"/>
      <point x="1124.33264762" y="-1.11022302463e-16"/>
      <point x="1162" y="0" type="curve"/>
      <point x="1162" y="89" type="line"/>
      <point x="1147.25413282" y="89.0"/>
      <point x="1133.89020239" y="89.0635373216"/>
      <point x="1121.79409751" y="89.2446646324" type="curve" smooth="yes"/>
      <point x="1037.91454674" y="90.5006786648"/>
      <point x="1015.0" y="97.4111568481"/>
      <point x="1015" y="128" type="curve" smooth="yes"/>
      <point x="1015" y="1297" type="line"/>
      <point x="945.055782974" y="1295.5578512"/>
      <point x="865.232548367" y="1294.11570239"/>
      <point x="782.278881473" y="1293.4233964" type="curve" smooth="yes"/>
      <point x="750.190790365" y="1293.15559898"/>
      <point x="717.634294927" y="1293.0"/>
      <point x="685" y="1293" type="curve"/>
      <point x="685" y="1202" type="line"/>
      <point x="700.847107351" y="1202.0"/>
      <point x="715.359563736" y="1202.0"/>
      <point x="728.610034149" y="1201.90553551" type="curve" smooth="yes"/>
      <point x="814.024605503" y="1201.29660287"/>
      <point x="847.0" y="1196.76239672"/>
      <point x="847" y="1163" type="curve" smooth="yes"/>
      <point x="845" y="755" type="line"/>
      <point x="773" y="862"/>
      <point x="660" y="921"/>
      <point x="517" y="921" type="curve" smooth="yes"/>
      <point x="256" y="921"/>
      <point x="79" y="730"/>
      <point x="79" y="445" type="curve" smooth="yes"/>
      <point x="79" y="164"/>
      <point x="252" y="-21"/>
    </contour>
    <contour>
      <point x="552" y="88" type="curve" smooth="yes"/>
      <point x="368" y="88"/>
      <point x="250" y="228"/>
      <point x="250" y="448" type="curve" smooth="yes"/>
      <point x="250" y="671"/>
      <point x="370" y="817"/>
      <point x="549" y="817" type="curve" smooth="yes"/>
      <point x="731" y="817"/>
      <point x="853" y="669"/>
      <point x="853" y="446" type="curve" smooth="yes"/>
      <point x="853" y="225"/>
      <point x="739" y="88"/>
    </contour>
  </outline>
</glyph>
<glyph name="e" format="1">
  <advance width="1103"/>
  <unicode hex="0065"/>
  <outline>
    <contour>
      <point x="565" y="-28" type="curve" smooth="yes"/>
      <point x="788" y="-28"/>
      <point x="952" y="65"/>
      <point x="1006" y="248" type="curve"/>
      <point x="885" y="248" type="line"/>
      <point x="835" y="120"/>
      <point x="727" y="69"/>
      <point x="588" y="69" type="curve" smooth="yes"/>
      <point x="388" y="69"/>
      <point x="255" y="198"/>
      <point x="253" y="411" type="curve"/>
      <point x="961" y="411" type="line"/>
      <point x="1021" y="429" type="line"/>
      <point x="1018" y="739"/>
      <point x="843" y="922"/>
      <point x="555" y="922" type="curve" smooth="yes"/>
      <point x="270" y="922"/>
      <point x="81" y="732"/>
      <point x="81" y="445" type="curve" smooth="yes"/>
      <point x="81" y="160"/>
      <point x="263" y="-28"/>
    </contour>
    <contour>
      <point x="254" y="498" type="line"/>
      <point x="277" y="699"/>
      <point x="388" y="825"/>
      <point x="557" y="825" type="curve" smooth="yes"/>
      <point x="734" y="825"/>
      <point x="843" y="702"/>
      <point x="859" y="498" type="curve"/>
    </contour>
  </outline>
</glyph>
<glyph name="f" format="1">
  <advance width="693"/>
  <unicode hex="0066"/>
  <outline>
    <contour>
      <point x="729" y="1281" type="line"/>
      <point x="665" y="1304"/>
      <point x="584" y="1315"/>
      <point x="504" y="1315" type="curve" smooth="yes"/>
      <point x="315" y="1315"/>
      <point x="209" y="1225"/>
      <point x="209" y="1011" type="curve" smooth="yes"/>
      <point x="209" y="895" type="line"/>
      <point x="59" y="895" type="line"/>
      <point x="59" y="806" type="line"/>
      <point x="209" y="806" type="line"/>
      <point x="209" y="159" type="line" smooth="yes"/>
      <point x="209" y="105"/>
      <point x="205" y="91"/>
      <point x="68" y="91" type="curve"/>
      <point x="68" y="70"/>
      <point x="68" y="0"/>
      <point x="68" y="0" type="curve"/>
      <point x="68" y="0"/>
      <point x="192" y="2"/>
      <point x="285" y="2" type="curve" smooth="yes"/>
      <point x="399" y="2"/>
      <point x="548" y="0"/>
      <point x="548" y="0" type="curve"/>
      <point x="548" y="91" type="line"/>
      <point x="432" y="91"/>
      <point x="378" y="91"/>
      <point x="378" y="157" type="curve" smooth="yes"/>
      <point x="378" y="806" type="line"/>
      <point x="595" y="806" type="line"/>
      <point x="595" y="895" type="line"/>
      <point x="378" y="895" type="line"/>
      <point x="378" y="920"/>
      <point x="378" y="943"/>
      <point x="378" y="965" type="curve" smooth="yes"/>
      <point x="378" y="1129"/>
      <point x="386" y="1218"/>
      <point x="517" y="1218" type="curve" smooth="yes"/>
      <point x="593" y="1218"/>
      <point x="636" y="1172"/>
      <point x="649" y="1088" type="curve"/>
      <point x="729" y="1096" type="line"/>
    </contour>
  </outline>
</glyph>
<glyph name="g" format="1">
  <advance width="1207"/>
  <unicode hex="0067"/>
  <outline>
    <contour>
      <point x="541" y="-426" type="curve" smooth="yes"/>
      <point x="842" y="-426"/>
      <point x="1025" y="-312"/>
      <point x="1025" y="62" type="curve" smooth="yes"/>
      <point x="1025" y="729" type="line" smooth="yes"/>
      <point x="1025.0" y="781.05165118"/>
      <point x="1027.91252286" y="799.609289469"/>
      <point x="1120.10078879" y="803.933776929" type="curve" smooth="yes"/>
      <point x="1135.9491383" y="804.677211986"/>
      <point x="1154.43594629" y="805.0"/>
      <point x="1176" y="805" type="curve"/>
      <point x="1176" y="895" type="line"/>
      <point x="1137" y="895"/>
      <point x="1101" y="894"/>
      <point x="1049" y="894" type="curve" smooth="yes"/>
      <point x="990" y="894"/>
      <point x="931" y="896"/>
      <point x="871" y="899" type="curve"/>
      <point x="871" y="725" type="line"/>
      <point x="789" y="841"/>
      <point x="672" y="916"/>
      <point x="523" y="916" type="curve" smooth="yes"/>
      <point x="263" y="916"/>
      <point x="82" y="726"/>
      <point x="82" y="452" type="curve" smooth="yes"/>
      <point x="82" y="179"/>
      <point x="257" y="1"/>
      <point x="520" y="1" type="curve" smooth="yes"/>
      <point x="664" y="1"/>
      <point x="786" y="59"/>
      <point x="859" y="173" type="curve"/>
      <point x="859" y="172"/>
      <point x="859" y="-19"/>
      <point x="859" y="-21" type="curve" smooth="yes"/>
      <point x="858" y="-244"/>
      <point x="735" y="-332"/>
      <point x="566" y="-332" type="curve" smooth="yes"/>
      <point x="409" y="-332"/>
      <point x="312" y="-249"/>
      <point x="289" y="-90" type="curve"/>
      <point x="289" y="-90"/>
      <point x="199" y="-91"/>
      <point x="197" y="-90" type="curve"/>
      <point x="189" y="-324" type="line"/>
      <point x="298" y="-386"/>
      <point x="401" y="-426"/>
    </contour>
    <contour>
      <point x="560" y="100" type="curve" smooth="yes"/>
      <point x="374" y="100"/>
      <point x="256" y="236"/>
      <point x="256" y="451" type="curve" smooth="yes"/>
      <point x="256" y="666"/>
      <point x="376" y="808"/>
      <point x="558" y="808" type="curve" smooth="yes"/>
      <point x="742" y="808"/>
      <point x="864" y="667"/>
      <point x="864" y="459" type="curve" smooth="yes"/>
      <point x="864" y="244"/>
      <point x="743" y="100"/>
    </contour>
  </outline>
</glyph>
<glyph name="h" format="1">
  <advance width="1170"/>
  <unicode hex="0068"/>
  <outline>
    <contour>
      <point x="39" y="0" type="line"/>
      <point x="112" y="0"/>
      <point x="174" y="2"/>
      <point x="268" y="2" type="curve"/>
      <point x="370" y="0"/>
      <point x="434" y="0"/>
      <point x="511" y="0" type="curve"/>
      <point x="511" y="91" type="line"/>
      <point x="391" y="91"/>
      <point x="359" y="91"/>
      <point x="359" y="134" type="curve" smooth="yes"/>
      <point x="359" y="642" type="line"/>
      <point x="401" y="711"/>
      <point x="504" y="810"/>
      <point x="649" y="810" type="curve" smooth="yes"/>
      <point x="800" y="810"/>
      <point x="833" y="726"/>
      <point x="833" y="532" type="curve" smooth="yes"/>
      <point x="833" y="148" type="line" smooth="yes"/>
      <point x="833" y="98"/>
      <point x="799" y="93"/>
      <point x="682" y="91" type="curve"/>
      <point x="682" y="0" type="line"/>
      <point x="754" y="0"/>
      <point x="819" y="2"/>
      <point x="915" y="2" type="curve"/>
      <point x="1012" y="0"/>
      <point x="1073" y="0"/>
      <point x="1144" y="0" type="curve"/>
      <point x="1144" y="91" type="line"/>
      <point x="1035" y="91"/>
      <point x="1002" y="90"/>
      <point x="1002" y="151" type="curve" smooth="yes"/>
      <point x="1002" y="458" type="line" smooth="yes"/>
      <point x="1002" y="764"/>
      <point x="961" y="919"/>
      <point x="712" y="919" type="curve" smooth="yes"/>
      <point x="572" y="919"/>
      <point x="455" y="872"/>
      <point x="359" y="773" type="curve"/>
      <point x="359" y="928"/>
      <point x="359" y="1143"/>
      <point x="358" y="1297" type="curve"/>
      <point x="277" y="1294"/>
      <point x="201" y="1292"/>
      <point x="128" y="1292" type="curve" smooth="yes"/>
      <point x="93" y="1292"/>
      <point x="69" y="1293"/>
      <point x="45" y="1293" type="curve"/>
      <point x="45" y="1203" type="line"/>
      <point x="61.9090908766" y="1203.0"/>
      <point x="77.7474685205" y="1203.03692115"/>
      <point x="92.3023023593" y="1202.80570628" type="curve" smooth="yes"/>
      <point x="153.495206064" y="1201.83360939"/>
      <point x="192.0" y="1196.12190084"/>
      <point x="192" y="1163" type="curve" smooth="yes"/>
      <point x="192" y="140" type="line" smooth="yes"/>
      <point x="192" y="103"/>
      <point x="189" y="91"/>
      <point x="39" y="91" type="curve"/>
    </contour>
  </outline>
</glyph>
<glyph name="i" format="1">
  <advance width="667"/>
  <unicode hex="0069"/>
  <outline>
    <contour>
      <point x="432" y="900" type="line"/>
      <point x="357.919419348" y="897.066115618"/>
      <point x="285.990758089" y="895.74617078"/>
      <point x="208.322162851" y="895.250980148" type="curve" smooth="yes"/>
      <point x="180.098929893" y="895.071037657"/>
      <point x="151.117766201" y="895.0"/>
      <point x="121" y="895" type="curve"/>
      <point x="121" y="806" type="line"/>
      <point x="226" y="804"/>
      <point x="264" y="806"/>
      <point x="264" y="769" type="curve" smooth="yes"/>
      <point x="264" y="156" type="line" smooth="yes"/>
      <point x="264" y="104"/>
      <point x="261" y="91"/>
      <point x="116" y="91" type="curve"/>
      <point x="116" y="0" type="line"/>
      <point x="177" y="0"/>
      <point x="231" y="2"/>
      <point x="306" y="2" type="curve" smooth="yes"/>
      <point x="321" y="2"/>
      <point x="513" y="0"/>
      <point x="582" y="0" type="curve"/>
      <point x="582" y="91" type="line"/>
      <point x="473" y="91"/>
      <point x="432" y="93"/>
      <point x="432" y="158" type="curve" smooth="yes"/>
    </contour>
    <contour>
      <point x="327" y="1315" type="curve" smooth="yes"/>
      <point x="261" y="1315"/>
      <point x="221" y="1280"/>
      <point x="221" y="1223" type="curve" smooth="yes"/>
      <point x="221" y="1163"/>
      <point x="261" y="1128"/>
      <point x="327" y="1128" type="curve" smooth="yes"/>
      <point x="394" y="1128"/>
      <point x="435" y="1165"/>
      <point x="435" y="1223" type="curve" smooth="yes"/>
      <point x="435" y="1280"/>
      <point x="393" y="1315"/>
    </contour>
  </outline>
</glyph>
<glyph name="j" format="1">
  <advance width="546"/>
  <unicode hex="006A"/>
  <outline>
    <contour>
      <point x="68" y="-407" type="curve" smooth="yes"/>
      <point x="370" y="-407"/>
      <point x="381" y="-202"/>
      <point x="381" y="84" type="curve" smooth="yes"/>
      <point x="381" y="900" type="line"/>
      <point x="311.510330081" y="895.871900797"/>
      <point x="242.020660162" y="895.05736885"/>
      <point x="168.297096278" y="894.950930949" type="curve" smooth="yes"/>
      <point x="134.866892401" y="894.902666317"/>
      <point x="100.566115141" y="895.0"/>
      <point x="65" y="895" type="curve"/>
      <point x="65" y="865"/>
      <point x="65" y="836"/>
      <point x="65" y="806" type="curve"/>
      <point x="173" y="804"/>
      <point x="212" y="803"/>
      <point x="212" y="749" type="curve" smooth="yes"/>
      <point x="212" y="86" type="line" smooth="yes"/>
      <point x="212" y="-192"/>
      <point x="204" y="-311"/>
      <point x="59" y="-311" type="curve" smooth="yes"/>
      <point x="11" y="-311"/>
      <point x="-11" y="-289"/>
      <point x="-22" y="-213" type="curve"/>
      <point x="-47" y="-213"/>
      <point x="-75" y="-212"/>
      <point x="-99" y="-210" type="curve"/>
      <point x="-99" y="-388" type="line"/>
      <point x="-45" y="-402"/>
      <point x="11" y="-407"/>
    </contour>
    <contour>
      <point x="274" y="1128" type="curve" smooth="yes"/>
      <point x="340" y="1128"/>
      <point x="382" y="1164"/>
      <point x="382" y="1223" type="curve" smooth="yes"/>
      <point x="382" y="1281"/>
      <point x="341" y="1315"/>
      <point x="274" y="1315" type="curve" smooth="yes"/>
      <point x="208" y="1315"/>
      <point x="167" y="1280"/>
      <point x="167" y="1223" type="curve" smooth="yes"/>
      <point x="167" y="1163"/>
      <point x="207" y="1128"/>
    </contour>
  </outline>
</glyph>
<glyph name="k" format="1">
  <advance width="1155"/>
  <unicode hex="006B"/>
  <outline>
    <contour>
      <point x="40" y="0" type="line"/>
      <point x="105" y="0"/>
      <point x="276" y="2"/>
      <point x="289" y="2" type="curve" smooth="yes"/>
      <point x="380" y="0"/>
      <point x="448" y="0"/>
      <point x="517" y="0" type="curve"/>
      <point x="517" y="91" type="line"/>
      <point x="385" y="91"/>
      <point x="360" y="102"/>
      <point x="360" y="158" type="curve" smooth="yes"/>
      <point x="361" y="402" type="line"/>
      <point x="404" y="430" type="line"/>
      <point x="688" y="171" type="line" smooth="yes"/>
      <point x="720" y="142"/>
      <point x="741" y="122"/>
      <point x="741" y="107" type="curve" smooth="yes"/>
      <point x="741.0" y="96.0578508377"/>
      <point x="727.904462531" y="92.5988659435"/>
      <point x="697.235471207" y="91.5054265907" type="curve" smooth="yes"/>
      <point x="683.059171728" y="91.0"/>
      <point x="665.128097415" y="91.0"/>
      <point x="643" y="91" type="curve"/>
      <point x="643" y="0" type="line"/>
      <point x="727" y="0"/>
      <point x="795" y="2"/>
      <point x="893" y="2" type="curve" smooth="yes"/>
      <point x="967" y="2"/>
      <point x="1029" y="0"/>
      <point x="1094" y="0" type="curve"/>
      <point x="1094" y="91" type="line"/>
      <point x="1076" y="91"/>
      <point x="1062" y="90"/>
      <point x="1047" y="90" type="curve" smooth="yes"/>
      <point x="1003" y="90"/>
      <point x="969" y="98"/>
      <point x="921" y="142" type="curve" smooth="yes"/>
      <point x="531" y="499" type="line"/>
      <point x="812" y="707" type="line" smooth="yes"/>
      <point x="929.148759365" y="793.188015819"/>
      <point x="941.968389072" y="804.455113024"/>
      <point x="1006.89616161" y="806.422919025" type="curve" smooth="yes"/>
      <point x="1019.56108578" y="806.806762684"/>
      <point x="1034.20867693" y="806.836776853"/>
      <point x="1052" y="807" type="curve"/>
      <point x="1052" y="895" type="line"/>
      <point x="950" y="894"/>
      <point x="876" y="893"/>
      <point x="802" y="893" type="curve" smooth="yes"/>
      <point x="757" y="893"/>
      <point x="704" y="894"/>
      <point x="635" y="895" type="curve"/>
      <point x="632" y="809" type="line"/>
      <point x="686" y="809"/>
      <point x="732" y="809"/>
      <point x="732" y="795" type="curve" smooth="yes"/>
      <point x="732" y="782"/>
      <point x="697" y="748"/>
      <point x="631" y="699" type="curve" smooth="yes"/>
      <point x="361" y="496" type="line"/>
      <point x="361" y="1296" type="line"/>
      <point x="299.022726297" y="1294.1219008"/>
      <point x="247.235305043" y="1293.0276364"/>
      <point x="181.83847066" y="1292.47185355" type="curve" smooth="yes"/>
      <point x="142.773036583" y="1292.13985127"/>
      <point x="98.8512382507" y="1292.0"/>
      <point x="45" y="1292" type="curve"/>
      <point x="45" y="1202" type="line"/>
      <point x="147" y="1201"/>
      <point x="194" y="1203"/>
      <point x="194" y="1153" type="curve" smooth="yes"/>
      <point x="194" y="1153"/>
      <point x="194" y="160"/>
      <point x="194" y="159" type="curve" smooth="yes"/>
      <point x="194" y="94"/>
      <point x="153" y="93"/>
      <point x="40" y="91" type="curve"/>
    </contour>
  </outline>
</glyph>
<glyph name="l" format="1">
  <advance width="591"/>
  <unicode hex="006C"/>
  <outline>
    <contour>
      <point x="358" y="1296" type="line"/>
      <point x="300.5" y="1295.0"/>
      <point x="248.5" y="1294.0"/>
      <point x="197.75" y="1293.25" type="curve" smooth="yes"/>
      <point x="147.0" y="1292.5"/>
      <point x="97.5" y="1292.0"/>
      <point x="45" y="1292" type="curve"/>
      <point x="45" y="1202" type="line"/>
      <point x="138" y="1200"/>
      <point x="191" y="1201"/>
      <point x="191" y="1152" type="curve" smooth="yes"/>
      <point x="191" y="172" type="line" smooth="yes"/>
      <point x="191" y="117"/>
      <point x="191" y="91"/>
      <point x="40" y="91" type="curve"/>
      <point x="40" y="70"/>
      <point x="41" y="21"/>
      <point x="41" y="0" type="curve"/>
      <point x="113" y="0"/>
      <point x="177" y="2"/>
      <point x="274" y="2" type="curve"/>
      <point x="372" y="0"/>
      <point x="438" y="0"/>
      <point x="512" y="0" type="curve"/>
      <point x="512" y="91" type="line"/>
      <point x="409" y="91"/>
      <point x="358" y="95"/>
      <point x="358" y="161" type="curve" smooth="yes"/>
    </contour>
  </outline>
</glyph>
<glyph name="m" format="1">
  <advance width="1781"/>
  <unicode hex="006D"/>
  <outline>
    <contour>
      <point x="44" y="0" type="line"/>
      <point x="119" y="0"/>
      <point x="188" y="2"/>
      <point x="285" y="2" type="curve"/>
      <point x="382" y="0"/>
      <point x="441" y="0"/>
      <point x="511" y="0" type="curve"/>
      <point x="511" y="91" type="line"/>
      <point x="351" y="91"/>
      <point x="359" y="82"/>
      <point x="359" y="235" type="curve" smooth="yes"/>
      <point x="359.0" y="326.373965442"/>
      <point x="359.794216557" y="466.989357449"/>
      <point x="361.382649672" y="559.751562517" type="curve" smooth="yes"/>
      <point x="362.314877673" y="614.192334466"/>
      <point x="363.520661116" y="652.150826395"/>
      <point x="365" y="654" type="curve" smooth="yes"/>
      <point x="440" y="744"/>
      <point x="511" y="806"/>
      <point x="638" y="806" type="curve" smooth="yes"/>
      <point x="790" y="806"/>
      <point x="816" y="708"/>
      <point x="816" y="533" type="curve" smooth="yes"/>
      <point x="816" y="146" type="line" smooth="yes"/>
      <point x="816" y="97"/>
      <point x="781" y="93"/>
      <point x="668" y="91" type="curve"/>
      <point x="668" y="0" type="line"/>
      <point x="743" y="0"/>
      <point x="811" y="2"/>
      <point x="909" y="2" type="curve"/>
      <point x="1002" y="0"/>
      <point x="1059" y="0"/>
      <point x="1126" y="0" type="curve"/>
      <point x="1126" y="91" type="line"/>
      <point x="1014" y="93"/>
      <point x="985" y="92"/>
      <point x="985" y="140" type="curve" smooth="yes"/>
      <point x="985" y="503" type="line" smooth="yes"/>
      <point x="985" y="555"/>
      <point x="986" y="604"/>
      <point x="989" y="652" type="curve"/>
      <point x="1051" y="736"/>
      <point x="1134" y="801"/>
      <point x="1258" y="801" type="curve" smooth="yes"/>
      <point x="1408" y="801"/>
      <point x="1437" y="712"/>
      <point x="1437" y="533" type="curve" smooth="yes"/>
      <point x="1437" y="147" type="line" smooth="yes"/>
      <point x="1437" y="95"/>
      <point x="1402" y="93"/>
      <point x="1287" y="91" type="curve"/>
      <point x="1287" y="0" type="line"/>
      <point x="1356" y="0"/>
      <point x="1416" y="2"/>
      <point x="1508" y="2" type="curve" smooth="yes"/>
      <point x="1604" y="2"/>
      <point x="1673" y="0"/>
      <point x="1747" y="0" type="curve"/>
      <point x="1747" y="91" type="line"/>
      <point x="1638" y="93"/>
      <point x="1605" y="91"/>
      <point x="1605" y="135" type="curve" smooth="yes"/>
      <point x="1605" y="502" type="line" smooth="yes"/>
      <point x="1605" y="752"/>
      <point x="1563" y="914"/>
      <point x="1319" y="914" type="curve" smooth="yes"/>
      <point x="1186" y="914"/>
      <point x="1063" y="855"/>
      <point x="966" y="746" type="curve"/>
      <point x="919" y="857"/>
      <point x="821" y="915"/>
      <point x="703" y="915" type="curve" smooth="yes"/>
      <point x="561" y="915"/>
      <point x="440" y="856"/>
      <point x="351" y="751" type="curve"/>
      <point x="351" y="899" type="line"/>
      <point x="279" y="897"/>
      <point x="207" y="894"/>
      <point x="136" y="894" type="curve" smooth="yes"/>
      <point x="99" y="894"/>
      <point x="75" y="895"/>
      <point x="49" y="895" type="curve"/>
      <point x="49" y="806" type="line"/>
      <point x="154" y="806"/>
      <point x="192" y="804"/>
      <point x="192" y="760" type="curve" smooth="yes"/>
      <point x="192" y="147" type="line" smooth="yes"/>
      <point x="192" y="108"/>
      <point x="190" y="91"/>
      <point x="44" y="91" type="curve"/>
    </contour>
  </outline>
</glyph>
<glyph name="n" format="1">
  <advance width="1181"/>
  <unicode hex="006E"/>
  <outline>
    <contour>
      <point x="44" y="0" type="curve"/>
      <point x="119" y="0"/>
      <point x="191" y="2"/>
      <point x="291" y="2" type="curve"/>
      <point x="388" y="0"/>
      <point x="448" y="0"/>
      <point x="517" y="0" type="curve"/>
      <point x="517" y="91" type="line"/>
      <point x="409" y="91"/>
      <point x="365" y="91"/>
      <point x="365" y="138" type="curve" smooth="yes"/>
      <point x="365" y="499" type="line" smooth="yes"/>
      <point x="365" y="552"/>
      <point x="366" y="602"/>
      <point x="368" y="651" type="curve"/>
      <point x="418" y="715"/>
      <point x="510" y="799"/>
      <point x="655" y="799" type="curve" smooth="yes"/>
      <point x="805" y="799"/>
      <point x="838" y="712"/>
      <point x="838" y="532" type="curve" smooth="yes"/>
      <point x="838" y="137" type="line" smooth="yes"/>
      <point x="838" y="101"/>
      <point x="838" y="91"/>
      <point x="686" y="91" type="curve"/>
      <point x="686" y="0" type="line"/>
      <point x="763" y="0"/>
      <point x="836" y="2"/>
      <point x="933" y="2" type="curve"/>
      <point x="1026" y="0"/>
      <point x="1082" y="0"/>
      <point x="1147" y="0" type="curve"/>
      <point x="1147" y="91" type="line"/>
      <point x="1043" y="93"/>
      <point x="1007" y="90"/>
      <point x="1007" y="132" type="curve" smooth="yes"/>
      <point x="1007" y="590" type="line" smooth="yes"/>
      <point x="1007" y="813"/>
      <point x="900" y="914"/>
      <point x="705" y="914" type="curve" smooth="yes"/>
      <point x="573" y="914"/>
      <point x="450" y="857"/>
      <point x="360" y="759" type="curve"/>
      <point x="360" y="900" type="line"/>
      <point x="300.694215775" y="897.528925657"/>
      <point x="241.006793524" y="896.202765391"/>
      <point x="176.222453583" y="895.549991234" type="curve" smooth="yes"/>
      <point x="136.138495843" y="895.146100854"/>
      <point x="94.1033068895" y="895.0"/>
      <point x="49" y="895" type="curve"/>
      <point x="49" y="874"/>
      <point x="50" y="827"/>
      <point x="50" y="806" type="curve"/>
      <point x="169" y="806"/>
      <point x="198" y="806"/>
      <point x="198" y="773" type="curve" smooth="yes"/>
      <point x="198" y="143" type="line" smooth="yes"/>
      <point x="198" y="101"/>
      <point x="193" y="91"/>
      <point x="44" y="91" type="curve"/>
      <point x="44" y="70"/>
      <point x="44" y="21"/>
    </contour>
  </outline>
</glyph>
<glyph name="o" format="1">
  <advance width="1115"/>
  <unicode hex="006F"/>
  <outline>
    <contour>
      <point x="557" y="819" type="curve" smooth="yes"/>
      <point x="742" y="819"/>
      <point x="861" y="676"/>
      <point x="861" y="448" type="curve" smooth="yes"/>
      <point x="861" y="221"/>
      <point x="741" y="76"/>
      <point x="557" y="76" type="curve" smooth="yes"/>
      <point x="372" y="76"/>
      <point x="254" y="221"/>
      <point x="254" y="448" type="curve" smooth="yes"/>
      <point x="254" y="677"/>
      <point x="371" y="819"/>
    </contour>
    <contour>
      <point x="557" y="922" type="curve" smooth="yes"/>
      <point x="276" y="922"/>
      <point x="81" y="735"/>
      <point x="81" y="447" type="curve" smooth="yes"/>
      <point x="81" y="159"/>
      <point x="275" y="-28"/>
      <point x="557" y="-28" type="curve" smooth="yes"/>
      <point x="840" y="-28"/>
      <point x="1035" y="160"/>
      <point x="1035" y="447" type="curve" smooth="yes"/>
      <point x="1035" y="736"/>
      <point x="838" y="922"/>
    </contour>
  </outline>
</glyph>
<glyph name="p" format="1">
  <advance width="1194"/>
  <unicode hex="0070"/>
  <outline>
    <contour>
      <point x="22" y="-404" type="line"/>
      <point x="56" y="-403"/>
      <point x="245" y="-403"/>
      <point x="261" y="-403" type="curve" smooth="yes"/>
      <point x="277" y="-403"/>
      <point x="470" y="-403"/>
      <point x="507" y="-404" type="curve"/>
      <point x="507" y="-314" type="line"/>
      <point x="472" y="-314" type="line" smooth="yes"/>
      <point x="370" y="-314"/>
      <point x="341" y="-314"/>
      <point x="341" y="-256" type="curve" smooth="yes"/>
      <point x="343" y="139" type="line"/>
      <point x="416" y="28"/>
      <point x="528" y="-27"/>
      <point x="674" y="-27" type="curve" smooth="yes"/>
      <point x="936" y="-27"/>
      <point x="1110" y="163"/>
      <point x="1110" y="454" type="curve" smooth="yes"/>
      <point x="1110" y="728"/>
      <point x="934" y="915"/>
      <point x="676" y="915" type="curve" smooth="yes"/>
      <point x="524" y="915"/>
      <point x="401" y="847"/>
      <point x="334" y="735" type="curve"/>
      <point x="332" y="900" type="line"/>
      <point x="272.477271557" y="896.392561913"/>
      <point x="212.954543114" y="895.315547905"/>
      <point x="152.779789799" y="895.030224987" type="curve" smooth="yes"/>
      <point x="112.870075651" y="894.840990208"/>
      <point x="72.6735525131" y="895.0"/>
      <point x="32" y="895" type="curve"/>
      <point x="32" y="806" type="line"/>
      <point x="129" y="805"/>
      <point x="173" y="806"/>
      <point x="173" y="764" type="curve" smooth="yes"/>
      <point x="173" y="-252" type="line" smooth="yes"/>
      <point x="173.0" y="-282.090910196"/>
      <point x="171.129208933" y="-299.086282923"/>
      <point x="122.92831411" y="-307.464034567" type="curve" smooth="yes"/>
      <point x="100.648144773" y="-311.33652959"/>
      <point x="68.4690045714" y="-313.367768645"/>
      <point x="22" y="-314" type="curve"/>
    </contour>
    <contour>
      <point x="631" y="806" type="curve" smooth="yes"/>
      <point x="821" y="806"/>
      <point x="940" y="669"/>
      <point x="940" y="447" type="curve" smooth="yes"/>
      <point x="940" y="219"/>
      <point x="823" y="81"/>
      <point x="637" y="81" type="curve" smooth="yes"/>
      <point x="451" y="81"/>
      <point x="332" y="224"/>
      <point x="332" y="449" type="curve" smooth="yes"/>
      <point x="332" y="669"/>
      <point x="447" y="806"/>
    </contour>
  </outline>
</glyph>
<glyph name="q" format="1">
  <advance width="1194"/>
  <unicode hex="0071"/>
  <outline>
    <contour>
      <point x="690" y="-404" type="line"/>
      <point x="723" y="-403"/>
      <point x="905" y="-403"/>
      <point x="921" y="-403" type="curve" smooth="yes"/>
      <point x="937" y="-403"/>
      <point x="1133" y="-403"/>
      <point x="1175" y="-404" type="curve"/>
      <point x="1175" y="-314" type="line"/>
      <point x="1030" y="-312"/>
      <point x="1023" y="-308"/>
      <point x="1023" y="-250" type="curve" smooth="yes"/>
      <point x="1023" y="733" type="line" smooth="yes"/>
      <point x="1023" y="780"/>
      <point x="1024" y="806"/>
      <point x="1171" y="806" type="curve"/>
      <point x="1171" y="895" type="line"/>
      <point x="1128.26239592" y="895.0"/>
      <point x="1085.69046103" y="894.834330812"/>
      <point x="1043.62135266" y="895.042444182" type="curve" smooth="yes"/>
      <point x="982.332856569" y="895.345634718"/>
      <point x="922.111569524" y="896.442148805"/>
      <point x="864" y="900" type="curve"/>
      <point x="863" y="737" type="line"/>
      <point x="790" y="850"/>
      <point x="671" y="915"/>
      <point x="522" y="915" type="curve" smooth="yes"/>
      <point x="262" y="915"/>
      <point x="88" y="729"/>
      <point x="88" y="453" type="curve" smooth="yes"/>
      <point x="88" y="162"/>
      <point x="261" y="-27"/>
      <point x="523" y="-27" type="curve" smooth="yes"/>
      <point x="671" y="-27"/>
      <point x="781" y="29"/>
      <point x="853" y="139" type="curve"/>
      <point x="855" y="-253" type="line" smooth="yes"/>
      <point x="855" y="-306"/>
      <point x="853" y="-314"/>
      <point x="728" y="-314" type="curve" smooth="yes"/>
      <point x="690" y="-314" type="line"/>
    </contour>
    <contour>
      <point x="864" y="447" type="curve" smooth="yes"/>
      <point x="864" y="223"/>
      <point x="745" y="79"/>
      <point x="560" y="79" type="curve" smooth="yes"/>
      <point x="375" y="79"/>
      <point x="257" y="218"/>
      <point x="257" y="444" type="curve" smooth="yes"/>
      <point x="257" y="667"/>
      <point x="375" y="806"/>
      <point x="565" y="806" type="curve" smooth="yes"/>
      <point x="749" y="806"/>
      <point x="864" y="667"/>
    </contour>
  </outline>
</glyph>
<glyph name="r" format="1">
  <advance width="822"/>
  <unicode hex="0072"/>
  <outline>
    <contour>
      <point x="49" y="0" type="line"/>
      <point x="121" y="0"/>
      <point x="177" y="2"/>
      <point x="276" y="2" type="curve" smooth="yes"/>
      <point x="390" y="2"/>
      <point x="461" y="0"/>
      <point x="545" y="0" type="curve"/>
      <point x="545" y="91" type="line"/>
      <point x="416" y="91"/>
      <point x="374" y="90"/>
      <point x="374" y="147" type="curve" smooth="yes"/>
      <point x="374" y="156"/>
      <point x="374" y="467"/>
      <point x="374" y="467" type="curve"/>
      <point x="376" y="661"/>
      <point x="470" y="797"/>
      <point x="601" y="797" type="curve" smooth="yes"/>
      <point x="671" y="797"/>
      <point x="706" y="756"/>
      <point x="733" y="692" type="curve"/>
      <point x="753" y="692"/>
      <point x="773" y="692"/>
      <point x="793" y="692" type="curve"/>
      <point x="793" y="910" type="line"/>
      <point x="762" y="914"/>
      <point x="731" y="916"/>
      <point x="702" y="916" type="curve" smooth="yes"/>
      <point x="547" y="916"/>
      <point x="430" y="841"/>
      <point x="366" y="717" type="curve"/>
      <point x="366" y="899" type="line"/>
      <point x="306" y="898"/>
      <point x="249" y="894"/>
      <point x="194" y="894" type="curve" smooth="yes"/>
      <point x="194" y="894"/>
      <point x="83" y="895"/>
      <point x="54" y="895" type="curve"/>
      <point x="54" y="806" type="line"/>
      <point x="180" y="806"/>
      <point x="204" y="806"/>
      <point x="204" y="760" type="curve" smooth="yes"/>
      <point x="204" y="156" type="line" smooth="yes"/>
      <point x="204" y="102"/>
      <point x="202" y="91"/>
      <point x="49" y="91" type="curve"/>
    </contour>
  </outline>
</glyph>
<glyph name="s" format="1">
  <advance width="927"/>
  <unicode hex="0073"/>
  <outline>
    <contour>
      <point x="800" y="890" type="line"/>
      <point x="791" y="891"/>
      <point x="725" y="892"/>
      <point x="725" y="892" type="curve"/>
      <point x="725" y="892"/>
      <point x="705" y="827"/>
      <point x="704" y="824" type="curve"/>
      <point x="644" y="886"/>
      <point x="540" y="914"/>
      <point x="431" y="914" type="curve" smooth="yes"/>
      <point x="235" y="914"/>
      <point x="109" y="804"/>
      <point x="109" y="664" type="curve" smooth="yes"/>
      <point x="109" y="519"/>
      <point x="206" y="459"/>
      <point x="395" y="401" type="curve"/>
      <point x="550" y="356"/>
      <point x="684" y="324"/>
      <point x="684" y="219" type="curve" smooth="yes"/>
      <point x="684" y="124"/>
      <point x="590" y="65"/>
      <point x="454" y="65" type="curve" smooth="yes"/>
      <point x="288" y="65"/>
      <point x="192" y="146"/>
      <point x="190" y="297" type="curve"/>
      <point x="93" y="297" type="line"/>
      <point x="93" y="9" type="line"/>
      <point x="123" y="9"/>
      <point x="151" y="8"/>
      <point x="181" y="8" type="curve"/>
      <point x="191" y="83" type="line"/>
      <point x="249" y="12"/>
      <point x="339" y="-21"/>
      <point x="477" y="-21" type="curve" smooth="yes"/>
      <point x="696" y="-21"/>
      <point x="840" y="73"/>
      <point x="840" y="243" type="curve" smooth="yes"/>
      <point x="840" y="417"/>
      <point x="703" y="470"/>
      <point x="487" y="527" type="curve" smooth="yes"/>
      <point x="353" y="562"/>
      <point x="261" y="599"/>
      <point x="261" y="682" type="curve" smooth="yes"/>
      <point x="261" y="758"/>
      <point x="326" y="827"/>
      <point x="459" y="827" type="curve" smooth="yes"/>
      <point x="615" y="827"/>
      <point x="701" y="751"/>
      <point x="706" y="618" type="curve"/>
      <point x="800" y="618" type="line"/>
    </contour>
  </outline>
</glyph>
<glyph name="t" format="1">
  <advance width="655"/>
  <unicode hex="0074"/>
  <outline>
    <contour>
      <point x="217" y="1122" type="line"/>
      <point x="217" y="1117"/>
      <point x="198" y="926"/>
      <point x="195" y="899" type="curve"/>
      <point x="195" y="899"/>
      <point x="80" y="887"/>
      <point x="14" y="885" type="curve"/>
      <point x="14" y="806" type="line"/>
      <point x="178" y="806" type="line"/>
      <point x="178" y="296" type="line" smooth="yes"/>
      <point x="178" y="104"/>
      <point x="216" y="-23"/>
      <point x="402" y="-23" type="curve" smooth="yes"/>
      <point x="511" y="-23"/>
      <point x="605" y="45"/>
      <point x="605" y="201" type="curve"/>
      <point x="514" y="192" type="line"/>
      <point x="514" y="112"/>
      <point x="476" y="84"/>
      <point x="438" y="84" type="curve" smooth="yes"/>
      <point x="343" y="84"/>
      <point x="345" y="170"/>
      <point x="345" y="305" type="curve" smooth="yes"/>
      <point x="345" y="806" type="line"/>
      <point x="584" y="806" type="line"/>
      <point x="584" y="895" type="line"/>
      <point x="344" y="895" type="line"/>
      <point x="344" y="1148" type="line"/>
    </contour>
  </outline>
</glyph>
<glyph name="u" format="1">
  <advance width="1170"/>
  <unicode hex="0075"/>
  <outline>
    <contour>
      <point x="472" y="-20" type="curve" smooth="yes"/>
      <point x="613" y="-20"/>
      <point x="737" y="29"/>
      <point x="829" y="130" type="curve"/>
      <point x="829" y="124"/>
      <point x="829" y="41"/>
      <point x="829" y="-4" type="curve"/>
      <point x="889.433886647" y="-2.65702474117"/>
      <point x="952.122251477" y="-1.31404948235"/>
      <point x="1022.81774049" y="-0.576615907591" type="curve" smooth="yes"/>
      <point x="1057.40414486" y="-0.215840755257"/>
      <point x="1093.9070279" y="1.66533453694e-16"/>
      <point x="1133" y="0" type="curve"/>
      <point x="1133" y="89" type="line"/>
      <point x="1010" y="89"/>
      <point x="990" y="91"/>
      <point x="990" y="140" type="curve" smooth="yes"/>
      <point x="990" y="900" type="line"/>
      <point x="937.219007194" y="897.012396634"/>
      <point x="883.942138062" y="895.264484083"/>
      <point x="831.280503939" y="894.262435088" type="curve" smooth="yes"/>
      <point x="778.181845953" y="893.252070374"/>
      <point x="725.708676666" y="893.0"/>
      <point x="675" y="893" type="curve"/>
      <point x="675" y="805" type="line"/>
      <point x="806" y="805"/>
      <point x="822" y="805"/>
      <point x="822" y="733" type="curve" smooth="yes"/>
      <point x="822" y="390" type="line" smooth="yes"/>
      <point x="822" y="339"/>
      <point x="822" y="291"/>
      <point x="820" y="242" type="curve"/>
      <point x="770" y="157"/>
      <point x="670" y="92"/>
      <point x="526" y="92" type="curve" smooth="yes"/>
      <point x="372" y="92"/>
      <point x="351" y="202"/>
      <point x="351" y="371" type="curve" smooth="yes"/>
      <point x="351" y="899" type="line"/>
      <point x="293.5" y="896.0"/>
      <point x="245.25" y="894.5"/>
      <point x="196.625" y="893.75" type="curve" smooth="yes"/>
      <point x="148.0" y="893.0"/>
      <point x="99.0" y="893.0"/>
      <point x="40" y="893" type="curve"/>
      <point x="40" y="805" type="line"/>
      <point x="166" y="805"/>
      <point x="183" y="806"/>
      <point x="183" y="738" type="curve" smooth="yes"/>
      <point x="183" y="422" type="line" smooth="yes"/>
      <point x="183" y="137"/>
      <point x="219" y="-20"/>
    </contour>
  </outline>
</glyph>
<glyph name="v" format="1">
  <advance width="1175"/>
  <unicode hex="0076"/>
  <outline>
    <contour>
      <point x="510" y="-12" type="line"/>
      <point x="676" y="-12" type="line"/>
      <point x="941" y="624" type="line" smooth="yes"/>
      <point x="975.0" y="706.0"/>
      <point x="989.0" y="751.0"/>
      <point x="1010.375" y="775.5" type="curve" smooth="yes"/>
      <point x="1031.75" y="800.0"/>
      <point x="1060.5" y="804.0"/>
      <point x="1124" y="804" type="curve"/>
      <point x="1124" y="895" type="line"/>
      <point x="1049" y="895"/>
      <point x="973" y="892"/>
      <point x="902" y="892" type="curve" smooth="yes"/>
      <point x="840" y="892"/>
      <point x="782" y="895"/>
      <point x="715" y="895" type="curve"/>
      <point x="715" y="804" type="line"/>
      <point x="816" y="804"/>
      <point x="851" y="798"/>
      <point x="853" y="762" type="curve"/>
      <point x="851" y="742"/>
      <point x="843" y="713"/>
      <point x="828" y="677" type="curve" smooth="yes"/>
      <point x="822" y="664"/>
      <point x="612" y="121"/>
      <point x="606" y="107" type="curve"/>
      <point x="606" y="107"/>
      <point x="453" y="496"/>
      <point x="378" y="684" type="curve" smooth="yes"/>
      <point x="363" y="722"/>
      <point x="353" y="747"/>
      <point x="352" y="766" type="curve"/>
      <point x="354" y="799"/>
      <point x="391" y="804"/>
      <point x="494" y="804" type="curve"/>
      <point x="495" y="895" type="line"/>
      <point x="395" y="895"/>
      <point x="314" y="893"/>
      <point x="252" y="893" type="curve" smooth="yes"/>
      <point x="190" y="893"/>
      <point x="120" y="895"/>
      <point x="51" y="895" type="curve"/>
      <point x="52" y="801" type="line"/>
      <point x="104.0" y="801.0"/>
      <point x="131.0" y="802.0"/>
      <point x="150.25" y="790.75" type="curve" smooth="yes"/>
      <point x="169.5" y="779.5"/>
      <point x="181.0" y="756.0"/>
      <point x="202" y="707" type="curve" smooth="yes"/>
    </contour>
  </outline>
</glyph>
<glyph name="w" format="1">
  <advance width="1597"/>
  <unicode hex="0077"/>
  <outline>
    <contour>
      <point x="14" y="895" type="curve"/>
      <point x="14" y="804" type="line"/>
      <point x="114" y="803"/>
      <point x="114" y="798"/>
      <point x="148" y="697" type="curve" smooth="yes"/>
      <point x="385" y="-12" type="line"/>
      <point x="561" y="-12" type="line"/>
      <point x="799" y="750" type="line"/>
      <point x="1036" y="-12" type="line"/>
      <point x="1210" y="-12" type="line"/>
      <point x="1417" y="619" type="line" smooth="yes"/>
      <point x="1477" y="801"/>
      <point x="1463" y="803"/>
      <point x="1583" y="804" type="curve"/>
      <point x="1583" y="895" type="line"/>
      <point x="1517" y="895"/>
      <point x="1452" y="893"/>
      <point x="1386" y="893" type="curve" smooth="yes"/>
      <point x="1330" y="893"/>
      <point x="1271" y="895"/>
      <point x="1215" y="895" type="curve"/>
      <point x="1215" y="804" type="line"/>
      <point x="1303" y="804"/>
      <point x="1332" y="803"/>
      <point x="1334" y="781" type="curve"/>
      <point x="1333" y="774"/>
      <point x="1331" y="769"/>
      <point x="1329" y="760" type="curve"/>
      <point x="1322" y="742"/>
      <point x="1134" y="111"/>
      <point x="1134" y="111" type="curve"/>
      <point x="1134" y="111"/>
      <point x="1067" y="350"/>
      <point x="1042" y="429" type="curve" smooth="yes"/>
      <point x="916" y="822" type="line"/>
      <point x="706" y="822" type="line"/>
      <point x="557" y="369" type="line" smooth="yes"/>
      <point x="544" y="330"/>
      <point x="481" y="118"/>
      <point x="481" y="118" type="curve"/>
      <point x="478" y="129"/>
      <point x="392" y="415"/>
      <point x="346" y="558" type="curve" smooth="yes"/>
      <point x="323" y="629"/>
      <point x="294" y="717"/>
      <point x="294" y="770" type="curve" smooth="yes"/>
      <point x="294" y="798"/>
      <point x="301" y="806"/>
      <point x="332" y="806" type="curve" smooth="yes"/>
      <point x="348" y="806"/>
      <point x="374" y="804"/>
      <point x="406" y="804" type="curve"/>
      <point x="406" y="825"/>
      <point x="407" y="874"/>
      <point x="407" y="895" type="curve"/>
      <point x="325" y="895"/>
      <point x="252" y="893"/>
      <point x="204" y="893" type="curve" smooth="yes"/>
      <point x="151" y="893"/>
      <point x="82" y="894"/>
    </contour>
  </outline>
</glyph>
<glyph name="x" format="1">
  <advance width="1145"/>
  <unicode hex="0078"/>
  <outline>
    <contour>
      <point x="69" y="895" type="curve"/>
      <point x="69" y="804" type="line"/>
      <point x="155" y="804"/>
      <point x="157" y="805"/>
      <point x="226" y="726" type="curve" smooth="yes"/>
      <point x="463" y="455" type="line"/>
      <point x="463" y="455"/>
      <point x="233" y="179"/>
      <point x="224" y="168" type="curve" smooth="yes"/>
      <point x="173" y="106"/>
      <point x="154" y="91"/>
      <point x="104" y="91" type="curve" smooth="yes"/>
      <point x="57" y="91" type="line"/>
      <point x="57" y="0" type="line"/>
      <point x="120" y="0"/>
      <point x="166" y="2"/>
      <point x="246" y="2" type="curve" smooth="yes"/>
      <point x="310" y="2"/>
      <point x="430" y="1"/>
      <point x="441" y="0" type="curve"/>
      <point x="442" y="74" type="line"/>
      <point x="371" y="76"/>
      <point x="343" y="88"/>
      <point x="343" y="110" type="curve" smooth="yes"/>
      <point x="343.0" y="114.005188655"/>
      <point x="326.044110337" y="97.7791564383"/>
      <point x="359.619838877" y="137.47398989" type="curve" smooth="yes"/>
      <point x="408.636277636" y="195.423570065"/>
      <point x="563.0" y="376.0"/>
      <point x="563" y="376" type="curve"/>
      <point x="563.0" y="376.0"/>
      <point x="698.130161985" y="226.728309435"/>
      <point x="767.141538134" y="128.041149844" type="curve" smooth="yes"/>
      <point x="775.989151412" y="115.388948536"/>
      <point x="783.749999404" y="103.568182826"/>
      <point x="790" y="93" type="curve"/>
      <point x="778" y="81"/>
      <point x="753" y="74"/>
      <point x="713" y="74" type="curve"/>
      <point x="713" y="0" type="line"/>
      <point x="758" y="0"/>
      <point x="887" y="2"/>
      <point x="899" y="2" type="curve" smooth="yes"/>
      <point x="980" y="2"/>
      <point x="1033" y="0"/>
      <point x="1088" y="0" type="curve"/>
      <point x="1088" y="91" type="line"/>
      <point x="998" y="91"/>
      <point x="999" y="90"/>
      <point x="929" y="169" type="curve" smooth="yes"/>
      <point x="921" y="177"/>
      <point x="666" y="465"/>
      <point x="666" y="465" type="curve"/>
      <point x="666" y="465"/>
      <point x="787" y="608"/>
      <point x="841" y="672" type="curve" smooth="yes"/>
      <point x="951" y="802"/>
      <point x="942" y="804"/>
      <point x="1033" y="804" type="curve" smooth="yes"/>
      <point x="1061" y="804" type="line"/>
      <point x="1061" y="825"/>
      <point x="1060" y="874"/>
      <point x="1060" y="895" type="curve"/>
      <point x="979" y="894"/>
      <point x="923" y="893"/>
      <point x="861" y="893" type="curve" smooth="yes"/>
      <point x="811" y="893"/>
      <point x="755" y="895"/>
      <point x="690" y="895" type="curve"/>
      <point x="689" y="821" type="line"/>
      <point x="753" y="821"/>
      <point x="778" y="815"/>
      <point x="778" y="795" type="curve" smooth="yes"/>
      <point x="778" y="775"/>
      <point x="750" y="743"/>
      <point x="710" y="695" type="curve" smooth="yes"/>
      <point x="579" y="539" type="line"/>
      <point x="412" y="730" type="line" smooth="yes"/>
      <point x="385" y="760"/>
      <point x="364" y="780"/>
      <point x="364" y="798" type="curve" smooth="yes"/>
      <point x="364" y="815"/>
      <point x="392" y="820"/>
      <point x="466" y="821" type="curve"/>
      <point x="464" y="895" type="line"/>
      <point x="383" y="894"/>
      <point x="334" y="893"/>
      <point x="268" y="893" type="curve" smooth="yes"/>
      <point x="213" y="893"/>
      <point x="79" y="895"/>
    </contour>
  </outline>
</glyph>
<glyph name="y" format="1">
  <advance width="1094"/>
  <unicode hex="0079"/>
  <outline>
    <contour>
      <point x="178" y="-272" type="curve"/>
      <point x="171" y="-378" type="line"/>
      <point x="171" y="-378"/>
      <point x="246" y="-404"/>
      <point x="304" y="-404" type="curve" smooth="yes"/>
      <point x="426" y="-404"/>
      <point x="493" y="-333"/>
      <point x="589" y="-107" type="curve" smooth="yes"/>
      <point x="934" y="705" type="line"/>
      <point x="973" y="793"/>
      <point x="977" y="804"/>
      <point x="1091" y="804" type="curve"/>
      <point x="1090" y="825"/>
      <point x="1090" y="874"/>
      <point x="1090" y="895" type="curve"/>
      <point x="1014" y="895"/>
      <point x="938" y="893"/>
      <point x="868" y="893" type="curve" smooth="yes"/>
      <point x="804" y="893"/>
      <point x="740" y="895"/>
      <point x="671" y="895" type="curve"/>
      <point x="671" y="804" type="line"/>
      <point x="792" y="804"/>
      <point x="812" y="797"/>
      <point x="814" y="758" type="curve"/>
      <point x="813" y="740"/>
      <point x="806" y="719"/>
      <point x="794" y="690" type="curve" smooth="yes"/>
      <point x="720" y="508"/>
      <point x="578" y="155"/>
      <point x="578" y="155" type="curve"/>
      <point x="387" y="563" type="line"/>
      <point x="359" y="626"/>
      <point x="313" y="709"/>
      <point x="311" y="763" type="curve"/>
      <point x="312" y="795"/>
      <point x="337" y="803"/>
      <point x="370" y="803" type="curve" smooth="yes"/>
      <point x="396.470588235" y="803.0"/>
      <point x="430.307692308" y="801.692307692"/>
      <point x="458" y="804" type="curve"/>
      <point x="458" y="895" type="line"/>
      <point x="358" y="895"/>
      <point x="279" y="893"/>
      <point x="217" y="893" type="curve" smooth="yes"/>
      <point x="152" y="893"/>
      <point x="75" y="895"/>
      <point x="0" y="895" type="curve"/>
      <point x="0" y="874"/>
      <point x="1" y="823"/>
      <point x="1" y="801" type="curve"/>
      <point x="36" y="801" type="line" smooth="yes"/>
      <point x="113" y="801"/>
      <point x="122" y="794"/>
      <point x="152" y="731" type="curve" smooth="yes"/>
      <point x="173" y="687"/>
      <point x="498" y="-12"/>
      <point x="498" y="-12" type="curve"/>
      <point x="460" y="-112" type="line"/>
      <point x="401" y="-243"/>
      <point x="359" y="-287"/>
      <point x="304" y="-287" type="curve" smooth="yes"/>
      <point x="269" y="-287"/>
      <point x="178" y="-272"/>
    </contour>
  </outline>
</glyph>
<glyph name="z" format="1">
  <advance width="1000"/>
  <unicode hex="007A"/>
  <outline>
    <contour>
      <point x="117" y="893" type="line"/>
      <point x="117" y="600" type="line"/>
      <point x="203" y="600" type="line"/>
      <point x="204" y="759"/>
      <point x="206" y="796"/>
      <point x="273" y="796" type="curve" smooth="yes"/>
      <point x="712" y="796" type="line"/>
      <point x="90" y="120" type="line"/>
      <point x="90" y="0" type="line"/>
      <point x="900" y="0" type="line"/>
      <point x="900" y="310" type="line"/>
      <point x="894" y="310"/>
      <point x="820" y="310"/>
      <point x="813" y="310" type="curve"/>
      <point x="814" y="308"/>
      <point x="814" y="204"/>
      <point x="814" y="203" type="curve" smooth="yes"/>
      <point x="814" y="97"/>
      <point x="793" y="98"/>
      <point x="719" y="98" type="curve" smooth="yes"/>
      <point x="267" y="98" type="line"/>
      <point x="889" y="774" type="line"/>
      <point x="889" y="893" type="line"/>
    </contour>
  </outline>
</glyph>
<glyph name="braceleft" format="1">
  <advance width="860"/>
  <unicode hex="007B"/>
  <outline>
    <contour>
      <point x="704" y="-332" type="curve" smooth="yes"/>
      <point x="710" y="-332"/>
      <point x="721" y="-332"/>
      <point x="727" y="-331" type="curve"/>
      <point x="727" y="-238" type="line"/>
      <point x="523" y="-235"/>
      <point x="514" y="-182"/>
      <point x="514" y="153" type="curve" smooth="yes"/>
      <point x="514" y="395"/>
      <point x="460" y="496"/>
      <point x="275" y="545" type="curve"/>
      <point x="498" y="602"/>
      <point x="512" y="721"/>
      <point x="514" y="1053" type="curve" smooth="yes"/>
      <point x="515" y="1282"/>
      <point x="554" y="1323"/>
      <point x="727" y="1325" type="curve"/>
      <point x="727" y="1419" type="line"/>
      <point x="721" y="1420"/>
      <point x="708" y="1421"/>
      <point x="703" y="1421" type="curve" smooth="yes"/>
      <point x="464" y="1421"/>
      <point x="368" y="1335"/>
      <point x="368" y="1067" type="curve" smooth="yes"/>
      <point x="368" y="881" type="line" smooth="yes"/>
      <point x="368" y="693"/>
      <point x="313" y="605"/>
      <point x="132" y="596" type="curve"/>
      <point x="132" y="493" type="line"/>
      <point x="311" y="484"/>
      <point x="368" y="395"/>
      <point x="368" y="214" type="curve" smooth="yes"/>
      <point x="368" y="22" type="line" smooth="yes"/>
      <point x="368" y="-253"/>
      <point x="466" y="-332"/>
    </contour>
  </outline>
</glyph>
<glyph name="bar" format="1">
  <advance width="1038"/>
  <unicode hex="007C"/>
  <outline>
    <contour>
      <point x="586" y="1442" type="line"/>
      <point x="453" y="1442" type="line"/>
      <point x="453" y="-448" type="line"/>
      <point x="586" y="-448" type="line"/>
    </contour>
  </outline>
</glyph>
<glyph name="braceright" format="1">
  <advance width="860"/>
  <unicode hex="007D"/>
  <outline>
    <contour>
      <point x="492" y="1073" type="line" smooth="yes"/>
      <point x="492" y="1337"/>
      <point x="391" y="1421"/>
      <point x="155" y="1421" type="curve" smooth="yes"/>
      <point x="149" y="1421"/>
      <point x="138" y="1421"/>
      <point x="133" y="1420" type="curve"/>
      <point x="133" y="1325" type="line"/>
      <point x="331" y="1322"/>
      <point x="342" y="1273"/>
      <point x="345" y="963" type="curve" smooth="yes"/>
      <point x="347" y="706"/>
      <point x="386" y="597"/>
      <point x="584" y="544" type="curve"/>
      <point x="360" y="483"/>
      <point x="347" y="358"/>
      <point x="345" y="43" type="curve" smooth="yes"/>
      <point x="343" y="-194"/>
      <point x="309" y="-234"/>
      <point x="133" y="-238" type="curve"/>
      <point x="133" y="-331" type="line"/>
      <point x="138" y="-332"/>
      <point x="149" y="-332"/>
      <point x="154" y="-332" type="curve" smooth="yes"/>
      <point x="418" y="-332"/>
      <point x="492" y="-239"/>
      <point x="492" y="74" type="curve" smooth="yes"/>
      <point x="492" y="211" type="line" smooth="yes"/>
      <point x="492" y="394"/>
      <point x="548" y="484"/>
      <point x="728" y="493" type="curve"/>
      <point x="728" y="596" type="line"/>
      <point x="544" y="605"/>
      <point x="492" y="694"/>
      <point x="492" y="885" type="curve" smooth="yes"/>
    </contour>
  </outline>
</glyph>
<glyph name="asciitilde" format="1">
  <advance width="1528"/>
  <unicode hex="007E"/>
  <outline>
    <contour>
      <point x="1375" y="640" type="curve"/>
      <point x="1375" y="774" type="line"/>
      <point x="1225" y="670"/>
      <point x="1134" y="633"/>
      <point x="1038" y="633" type="curve" smooth="yes"/>
      <point x="967" y="633"/>
      <point x="880" y="665"/>
      <point x="770" y="708" type="curve" smooth="yes"/>
      <point x="651" y="754"/>
      <point x="576" y="777"/>
      <point x="496" y="777" type="curve" smooth="yes"/>
      <point x="394" y="777"/>
      <point x="283" y="734"/>
      <point x="155" y="646" type="curve"/>
      <point x="155" y="509" type="line"/>
      <point x="307" y="616"/>
      <point x="394" y="653"/>
      <point x="494" y="653" type="curve" smooth="yes"/>
      <point x="589" y="653"/>
      <point x="706" y="598"/>
      <point x="854" y="546" type="curve" smooth="yes"/>
      <point x="921" y="522"/>
      <point x="978" y="508"/>
      <point x="1038" y="508" type="curve" smooth="yes"/>
      <point x="1142" y="508"/>
      <point x="1244" y="548"/>
    </contour>
  </outline>
</glyph>
<glyph name="cent" format="1">
  <advance width="1122"/>
  <unicode hex="00A2"/>
  <outline>
    <contour>
      <point x="514" y="-27" type="curve"/>
      <point x="514" y="-201" type="line"/>
      <point x="606" y="-201" type="line"/>
      <point x="606" y="-25" type="line"/>
      <point x="789" y="-11"/>
      <point x="919" y="92"/>
      <point x="962" y="261" type="curve"/>
      <point x="836" y="286" type="line"/>
      <point x="797" y="156"/>
      <point x="703" y="82"/>
      <point x="571" y="82" type="curve" smooth="yes"/>
      <point x="387" y="82"/>
      <point x="268" y="225"/>
      <point x="268" y="451" type="curve" smooth="yes"/>
      <point x="268" y="675"/>
      <point x="382" y="812"/>
      <point x="570" y="812" type="curve" smooth="yes"/>
      <point x="727" y="812"/>
      <point x="822" y="730"/>
      <point x="826" y="576" type="curve"/>
      <point x="932" y="576" type="line"/>
      <point x="932" y="895" type="line"/>
      <point x="835" y="895" type="line"/>
      <point x="810" y="817" type="line"/>
      <point x="759" y="878"/>
      <point x="691" y="904"/>
      <point x="606" y="914" type="curve"/>
      <point x="606" y="1093" type="line"/>
      <point x="514" y="1093" type="line"/>
      <point x="514" y="917" type="line"/>
      <point x="262" y="909"/>
      <point x="82" y="710"/>
      <point x="82" y="445" type="curve" smooth="yes"/>
      <point x="82" y="173"/>
      <point x="251" y="-10"/>
    </contour>
  </outline>
</glyph>
<glyph name="sterling" format="1">
  <advance width="1135"/>
  <unicode hex="00A3"/>
  <outline>
    <contour>
      <point x="958" y="315" type="line"/>
      <point x="951" y="163"/>
      <point x="906" y="96"/>
      <point x="809" y="96" type="curve" smooth="yes"/>
      <point x="728" y="96"/>
      <point x="661" y="150"/>
      <point x="553" y="241" type="curve"/>
      <point x="566" y="295"/>
      <point x="575" y="344"/>
      <point x="575" y="406" type="curve" smooth="yes"/>
      <point x="575" y="474"/>
      <point x="563" y="545"/>
      <point x="531" y="628" type="curve"/>
      <point x="773" y="628" type="line"/>
      <point x="773" y="727" type="line"/>
      <point x="497" y="727" type="line"/>
      <point x="426" y="892"/>
      <point x="396" y="1002"/>
      <point x="396" y="1070" type="curve" smooth="yes"/>
      <point x="396" y="1190"/>
      <point x="489" y="1273"/>
      <point x="621" y="1273" type="curve" smooth="yes"/>
      <point x="762" y="1273"/>
      <point x="849" y="1190"/>
      <point x="855" y="1043" type="curve"/>
      <point x="986" y="1049" type="line"/>
      <point x="981" y="1260"/>
      <point x="848" y="1378"/>
      <point x="616" y="1378" type="curve" smooth="yes"/>
      <point x="390" y="1378"/>
      <point x="242" y="1252"/>
      <point x="242" y="1057" type="curve" smooth="yes"/>
      <point x="242" y="967"/>
      <point x="268" y="873"/>
      <point x="339" y="727" type="curve"/>
      <point x="107" y="727" type="line"/>
      <point x="107" y="628" type="line"/>
      <point x="378" y="628" type="line"/>
      <point x="418" y="540"/>
      <point x="449" y="431"/>
      <point x="449" y="338" type="curve" smooth="yes"/>
      <point x="449" y="325"/>
      <point x="448" y="313"/>
      <point x="447" y="302" type="curve"/>
      <point x="390" y="339"/>
      <point x="346" y="353"/>
      <point x="292" y="353" type="curve" smooth="yes"/>
      <point x="171" y="353"/>
      <point x="86" y="274"/>
      <point x="86" y="170" type="curve" smooth="yes"/>
      <point x="86" y="61"/>
      <point x="167" y="-17"/>
      <point x="281" y="-17" type="curve" smooth="yes"/>
      <point x="375" y="-17"/>
      <point x="458" y="41"/>
      <point x="512" y="143" type="curve"/>
      <point x="621" y="33"/>
      <point x="719" y="-17"/>
      <point x="813" y="-17" type="curve" smooth="yes"/>
      <point x="965" y="-17"/>
      <point x="1061" y="102"/>
      <point x="1064" y="306" type="curve"/>
    </contour>
    <contour>
      <point x="427" y="210" type="curve"/>
      <point x="393" y="116"/>
      <point x="343" y="76"/>
      <point x="277" y="76" type="curve" smooth="yes"/>
      <point x="225" y="76"/>
      <point x="185" y="114"/>
      <point x="185" y="169" type="curve" smooth="yes"/>
      <point x="185" y="228"/>
      <point x="231" y="272"/>
      <point x="293" y="272" type="curve" smooth="yes"/>
      <point x="338" y="272"/>
      <point x="389" y="249"/>
    </contour>
  </outline>
</glyph>
<glyph name="currency" format="1">
  <advance width="1303"/>
  <unicode hex="00A4"/>
  <outline>
    <contour>
      <point x="389" y="1104" type="curve"/>
      <point x="222" y="1270" type="line"/>
      <point x="142" y="1191" type="line"/>
      <point x="308" y="1028" type="line"/>
      <point x="247" y="945"/>
      <point x="219" y="865"/>
      <point x="219" y="772" type="curve" smooth="yes"/>
      <point x="219" y="676"/>
      <point x="247" y="596"/>
      <point x="308" y="514" type="curve"/>
      <point x="142" y="352" type="line"/>
      <point x="222" y="273" type="line"/>
      <point x="389" y="436" type="line"/>
      <point x="468" y="378"/>
      <point x="552" y="350"/>
      <point x="650" y="350" type="curve" smooth="yes"/>
      <point x="750" y="350"/>
      <point x="836" y="379"/>
      <point x="917" y="437" type="curve"/>
      <point x="1085" y="273" type="line"/>
      <point x="1163" y="352" type="line"/>
      <point x="995" y="515" type="line"/>
      <point x="1059" y="595"/>
      <point x="1084" y="696"/>
      <point x="1084" y="771" type="curve" smooth="yes"/>
      <point x="1084" y="865"/>
      <point x="1053" y="954"/>
      <point x="995" y="1027" type="curve"/>
      <point x="1163" y="1191" type="line"/>
      <point x="1085" y="1270" type="line"/>
      <point x="916" y="1104" type="line"/>
      <point x="829" y="1166"/>
      <point x="748" y="1194"/>
      <point x="652" y="1194" type="curve" smooth="yes"/>
      <point x="557" y="1194"/>
      <point x="478" y="1166"/>
    </contour>
    <contour>
      <point x="970" y="773" type="curve" smooth="yes"/>
      <point x="970" y="602"/>
      <point x="826" y="461"/>
      <point x="652" y="461" type="curve" smooth="yes"/>
      <point x="476" y="461"/>
      <point x="334" y="601"/>
      <point x="334" y="773" type="curve" smooth="yes"/>
      <point x="334" y="942"/>
      <point x="476" y="1082"/>
      <point x="652" y="1082" type="curve" smooth="yes"/>
      <point x="827" y="1082"/>
      <point x="970" y="942"/>
    </contour>
  </outline>
</glyph>
<glyph name="yen" format="1">
  <advance width="1169"/>
  <unicode hex="00A5"/>
  <outline>
    <contour>
      <point x="-6" y="1290" type="curve"/>
      <point x="-6" y="1267"/>
      <point x="-6" y="1214"/>
      <point x="-6" y="1191" type="curve"/>
      <point x="127" y="1191"/>
      <point x="130" y="1187"/>
      <point x="203" y="1074" type="curve" smooth="yes"/>
      <point x="321" y="891" type="line"/>
      <point x="67" y="891" type="line"/>
      <point x="67" y="800" type="line"/>
      <point x="380" y="800" type="line"/>
      <point x="456" y="683" type="line"/>
      <point x="67" y="683" type="line"/>
      <point x="67" y="590" type="line"/>
      <point x="510" y="590" type="line"/>
      <point x="542" y="535" type="line"/>
      <point x="542" y="157" type="line" smooth="yes"/>
      <point x="542" y="116"/>
      <point x="539" y="99"/>
      <point x="413" y="99" type="curve" smooth="yes"/>
      <point x="362" y="99" type="line"/>
      <point x="362" y="0" type="line"/>
      <point x="442" y="0"/>
      <point x="517" y="2"/>
      <point x="627" y="2" type="curve"/>
      <point x="742" y="0"/>
      <point x="818" y="0"/>
      <point x="901" y="0" type="curve"/>
      <point x="901" y="99" type="line"/>
      <point x="849" y="99" type="line" smooth="yes"/>
      <point x="731" y="99"/>
      <point x="718" y="105"/>
      <point x="718" y="159" type="curve" smooth="yes"/>
      <point x="718" y="533" type="line"/>
      <point x="718" y="533"/>
      <point x="731" y="559"/>
      <point x="751" y="590" type="curve"/>
      <point x="1204" y="590" type="line"/>
      <point x="1204" y="683" type="line"/>
      <point x="805" y="683" type="line"/>
      <point x="882" y="800" type="line"/>
      <point x="1204" y="800" type="line"/>
      <point x="1204" y="891" type="line"/>
      <point x="943" y="891" type="line"/>
      <point x="997" y="973"/>
      <point x="1060" y="1069"/>
      <point x="1090" y="1113" type="curve" smooth="yes"/>
      <point x="1140" y="1188"/>
      <point x="1143" y="1191"/>
      <point x="1265" y="1191" type="curve"/>
      <point x="1265" y="1290" type="line"/>
      <point x="1193" y="1288"/>
      <point x="1132" y="1288"/>
      <point x="1057" y="1288" type="curve" smooth="yes"/>
      <point x="985" y="1288"/>
      <point x="919" y="1288"/>
      <point x="796" y="1290" type="curve"/>
      <point x="796" y="1191" type="line"/>
      <point x="830" y="1191" type="line" smooth="yes"/>
      <point x="918" y="1191"/>
      <point x="952" y="1188"/>
      <point x="952" y="1163" type="curve" smooth="yes"/>
      <point x="952" y="1144"/>
      <point x="933" y="1113"/>
      <point x="902" y="1063" type="curve" smooth="yes"/>
      <point x="648" y="661" type="line"/>
      <point x="392" y="1073" type="line" smooth="yes"/>
      <point x="363" y="1119"/>
      <point x="347" y="1145"/>
      <point x="347" y="1164" type="curve" smooth="yes"/>
      <point x="347" y="1190"/>
      <point x="384" y="1191"/>
      <point x="472" y="1191" type="curve" smooth="yes"/>
      <point x="507" y="1191" type="line"/>
      <point x="507" y="1290" type="line"/>
      <point x="347" y="1290"/>
      <point x="261" y="1287"/>
      <point x="142" y="1287" type="curve" smooth="yes"/>
      <point x="77" y="1287"/>
      <point x="36" y="1288"/>
    </contour>
  </outline>
</glyph>
<glyph name="brokenbar" format="1">
  <advance width="1038"/>
  <unicode hex="00A6"/>
  <outline>
    <contour>
      <point x="586" y="529" type="line"/>
      <point x="453" y="529" type="line"/>
      <point x="453" y="-203" type="line"/>
      <point x="586" y="-203" type="line"/>
    </contour>
    <contour>
      <point x="586" y="1457" type="line"/>
      <point x="453" y="1457" type="line"/>
      <point x="453" y="724" type="line"/>
      <point x="586" y="724" type="line"/>
    </contour>
  </outline>
</glyph>
<glyph name="section" format="1">
  <advance width="997"/>
  <unicode hex="00A7"/>
  <outline>
    <contour>
      <point x="495" y="1316" type="curve" smooth="yes"/>
      <point x="270" y="1316"/>
      <point x="126" y="1204"/>
      <point x="126" y="1031" type="curve" smooth="yes"/>
      <point x="126" y="935"/>
      <point x="167" y="857"/>
      <point x="245" y="804" type="curve"/>
      <point x="127" y="720"/>
      <point x="76" y="640"/>
      <point x="76" y="539" type="curve" smooth="yes"/>
      <point x="76" y="351"/>
      <point x="232" y="273"/>
      <point x="451" y="184" type="curve" smooth="yes"/>
      <point x="614" y="117"/>
      <point x="726" y="51"/>
      <point x="726" y="-54" type="curve" smooth="yes"/>
      <point x="726" y="-161"/>
      <point x="639" y="-234"/>
      <point x="500" y="-234" type="curve" smooth="yes"/>
      <point x="321" y="-234"/>
      <point x="248" y="-163"/>
      <point x="246" y="-31" type="curve"/>
      <point x="142" y="-31" type="line"/>
      <point x="144" y="-229" type="line"/>
      <point x="236" y="-294"/>
      <point x="361" y="-327"/>
      <point x="500" y="-327" type="curve" smooth="yes"/>
      <point x="733" y="-327"/>
      <point x="872" y="-215"/>
      <point x="872" y="-31" type="curve" smooth="yes"/>
      <point x="872" y="63"/>
      <point x="831" y="141"/>
      <point x="752" y="196" type="curve"/>
      <point x="862" y="262"/>
      <point x="922" y="352"/>
      <point x="922" y="455" type="curve" smooth="yes"/>
      <point x="922" y="642"/>
      <point x="773" y="724"/>
      <point x="535" y="821" type="curve" smooth="yes"/>
      <point x="337" y="902"/>
      <point x="274" y="942"/>
      <point x="274" y="1050" type="curve" smooth="yes"/>
      <point x="274" y="1157"/>
      <point x="365" y="1224"/>
      <point x="495" y="1224" type="curve" smooth="yes"/>
      <point x="652" y="1224"/>
      <point x="734" y="1149"/>
      <point x="741" y="996" type="curve"/>
      <point x="847" y="996" type="line"/>
      <point x="845" y="1227"/>
      <point x="685" y="1316"/>
    </contour>
    <contour>
      <point x="324" y="757" type="curve"/>
      <point x="618" y="629"/>
      <point x="782" y="582"/>
      <point x="782" y="434" type="curve" smooth="yes"/>
      <point x="782" y="365"/>
      <point x="747" y="302"/>
      <point x="670" y="244" type="curve"/>
      <point x="443" y="344"/>
      <point x="217" y="410"/>
      <point x="217" y="568" type="curve" smooth="yes"/>
      <point x="217" y="624"/>
      <point x="245" y="681"/>
    </contour>
  </outline>
</glyph>
<glyph name="dieresis" format="1">
  <advance width="853"/>
  <unicode hex="00A8"/>
  <outline>
    <contour>
      <point x="240" y="1274" type="curve" smooth="yes"/>
      <point x="184" y="1274"/>
      <point x="148" y="1239"/>
      <point x="148" y="1186" type="curve" smooth="yes"/>
      <point x="148" y="1133"/>
      <point x="184" y="1096"/>
      <point x="239" y="1096" type="curve" smooth="yes"/>
      <point x="296" y="1096"/>
      <point x="331" y="1132"/>
      <point x="331" y="1185" type="curve" smooth="yes"/>
      <point x="331" y="1240"/>
      <point x="296" y="1274"/>
    </contour>
    <contour>
      <point x="613" y="1274" type="curve" smooth="yes"/>
      <point x="557" y="1274"/>
      <point x="521" y="1239"/>
      <point x="521" y="1186" type="curve" smooth="yes"/>
      <point x="521" y="1133"/>
      <point x="557" y="1096"/>
      <point x="612" y="1096" type="curve" smooth="yes"/>
      <point x="669" y="1096"/>
      <point x="705" y="1132"/>
      <point x="705" y="1185" type="curve" smooth="yes"/>
      <point x="705" y="1239"/>
      <point x="669" y="1274"/>
    </contour>
  </outline>
</glyph>
<glyph name="copyright" format="1">
  <advance width="1666"/>
  <unicode hex="00A9"/>
  <outline>
    <contour>
      <point x="1163" y="1084" type="line"/>
      <point x="1075" y="1092" type="line"/>
      <point x="1065" y="982" type="line"/>
      <point x="1032" y="1033"/>
      <point x="950" y="1093"/>
      <point x="840" y="1093" type="curve" smooth="yes"/>
      <point x="594" y="1093"/>
      <point x="432" y="901"/>
      <point x="432" y="679" type="curve" smooth="yes"/>
      <point x="432" y="449"/>
      <point x="599" y="260"/>
      <point x="827" y="260" type="curve" smooth="yes"/>
      <point x="965" y="260"/>
      <point x="1104" y="323"/>
      <point x="1172" y="494" type="curve"/>
      <point x="1102" y="522" type="line"/>
      <point x="1039" y="392"/>
      <point x="945" y="340"/>
      <point x="839" y="340" type="curve" smooth="yes"/>
      <point x="676" y="340"/>
      <point x="577" y="471"/>
      <point x="577" y="693" type="curve" smooth="yes"/>
      <point x="577" y="905"/>
      <point x="678" y="1027"/>
      <point x="837" y="1027" type="curve" smooth="yes"/>
      <point x="955" y="1027"/>
      <point x="1040" y="957"/>
      <point x="1085" y="816" type="curve"/>
      <point x="1163" y="829" type="line"/>
    </contour>
    <contour>
      <point x="1470" y="685" type="curve" smooth="yes"/>
      <point x="1470" y="347"/>
      <point x="1186" y="60"/>
      <point x="832" y="60" type="curve" smooth="yes"/>
      <point x="485" y="60"/>
      <point x="194" y="338"/>
      <point x="194" y="685" type="curve" smooth="yes"/>
      <point x="194" y="1024"/>
      <point x="478" y="1313"/>
      <point x="833" y="1313" type="curve" smooth="yes"/>
      <point x="1179" y="1313"/>
      <point x="1470" y="1035"/>
    </contour>
    <contour>
      <point x="834" y="1402" type="curve" smooth="yes"/>
      <point x="429" y="1402"/>
      <point x="99" y="1078"/>
      <point x="99" y="685" type="curve" smooth="yes"/>
      <point x="99" y="293"/>
      <point x="428" y="-30"/>
      <point x="833" y="-30" type="curve" smooth="yes"/>
      <point x="1237" y="-30"/>
      <point x="1567" y="293"/>
      <point x="1567" y="685" type="curve" smooth="yes"/>
      <point x="1567" y="1071"/>
      <point x="1246" y="1402"/>
    </contour>
  </outline>
</glyph>
<glyph name="guillemotleft" format="1">
  <advance width="1003"/>
  <unicode hex="00AB"/>
  <outline>
    <contour>
      <point x="349" y="841" type="line"/>
      <point x="82" y="449" type="line"/>
      <point x="349" y="59" type="line"/>
      <point x="516" y="59" type="line"/>
      <point x="246" y="449" type="line"/>
      <point x="516" y="841" type="line"/>
    </contour>
    <contour>
      <point x="773" y="841" type="line"/>
      <point x="516" y="449" type="line"/>
      <point x="773" y="59" type="line"/>
      <point x="940" y="59" type="line"/>
      <point x="669" y="449" type="line"/>
      <point x="940" y="841" type="line"/>
    </contour>
  </outline>
</glyph>
<glyph name="logicalnot" format="1">
  <advance width="1536"/>
  <unicode hex="00AC"/>
  <outline>
    <contour>
      <point x="1338" y="892" type="line"/>
      <point x="197" y="892" type="line"/>
      <point x="197" y="771" type="line"/>
      <point x="1217" y="771" type="line"/>
      <point x="1217" y="349" type="line"/>
      <point x="1338" y="349" type="line"/>
    </contour>
  </outline>
</glyph>
<glyph name="uni00AD" format="1">
  <advance width="741"/>
  <unicode hex="00AD"/>
  <outline>
    <contour>
      <point x="75" y="403" type="line"/>
      <point x="664" y="403" type="line"/>
      <point x="664" y="541" type="line"/>
      <point x="75" y="541" type="line"/>
    </contour>
  </outline>
</glyph>
<glyph name="registered" format="1">
  <advance width="1666"/>
  <unicode hex="00AE"/>
  <outline>
    <contour>
      <point x="1159" y="376" type="line" smooth="yes"/>
      <point x="1103" y="376"/>
      <point x="1087" y="481"/>
      <point x="1072" y="521" type="curve" smooth="yes"/>
      <point x="1041" y="605"/>
      <point x="989" y="643"/>
      <point x="901" y="671" type="curve"/>
      <point x="1067" y="695"/>
      <point x="1155" y="771"/>
      <point x="1155" y="876" type="curve" smooth="yes"/>
      <point x="1155" y="1038"/>
      <point x="1002" y="1081"/>
      <point x="783" y="1081" type="curve" smooth="yes"/>
      <point x="488" y="1081" type="line"/>
      <point x="488" y="1051" type="line"/>
      <point x="541" y="1043"/>
      <point x="553" y="1029"/>
      <point x="553" y="1005" type="curve" smooth="yes"/>
      <point x="553" y="399" type="line" smooth="yes"/>
      <point x="553" y="378"/>
      <point x="539" y="366"/>
      <point x="488" y="360" type="curve"/>
      <point x="488" y="298" type="line"/>
      <point x="575" y="298"/>
      <point x="652" y="298"/>
      <point x="740" y="298" type="curve"/>
      <point x="740" y="360" type="line"/>
      <point x="690" y="365"/>
      <point x="676" y="375"/>
      <point x="676" y="392" type="curve" smooth="yes"/>
      <point x="676" y="657" type="line"/>
      <point x="724" y="657" type="line" smooth="yes"/>
      <point x="830" y="657"/>
      <point x="894" y="631"/>
      <point x="932" y="550" type="curve" smooth="yes"/>
      <point x="963" y="484"/>
      <point x="965" y="314"/>
      <point x="1097" y="314" type="curve" smooth="yes"/>
      <point x="1193" y="314" type="line"/>
      <point x="1193" y="376" type="line"/>
    </contour>
    <contour>
      <point x="676" y="1014" type="line"/>
      <point x="676" y="1014"/>
      <point x="753" y="1015"/>
      <point x="805" y="1015" type="curve" smooth="yes"/>
      <point x="952" y="1015"/>
      <point x="1018" y="970"/>
      <point x="1018" y="871" type="curve" smooth="yes"/>
      <point x="1018" y="767"/>
      <point x="940" y="720"/>
      <point x="777" y="720" type="curve" smooth="yes"/>
      <point x="746" y="720"/>
      <point x="705" y="721"/>
      <point x="676" y="721" type="curve"/>
    </contour>
    <contour>
      <point x="1470" y="685" type="curve" smooth="yes"/>
      <point x="1470" y="347"/>
      <point x="1187" y="60"/>
      <point x="832" y="60" type="curve" smooth="yes"/>
      <point x="484" y="60"/>
      <point x="194" y="338"/>
      <point x="194" y="685" type="curve" smooth="yes"/>
      <point x="194" y="1027"/>
      <point x="481" y="1313"/>
      <point x="833" y="1313" type="curve" smooth="yes"/>
      <point x="1171" y="1313"/>
      <point x="1470" y="1043"/>
    </contour>
    <contour>
      <point x="834" y="1402" type="curve" smooth="yes"/>
      <point x="428" y="1402"/>
      <point x="99" y="1079"/>
      <point x="99" y="685" type="curve" smooth="yes"/>
      <point x="99" y="294"/>
      <point x="428" y="-30"/>
      <point x="830" y="-30" type="curve" smooth="yes"/>
      <point x="1237" y="-30"/>
      <point x="1567" y="294"/>
      <point x="1567" y="684" type="curve" smooth="yes"/>
      <point x="1567" y="1067"/>
      <point x="1253" y="1402"/>
    </contour>
  </outline>
</glyph>
<glyph name="macron" format="1">
  <advance width="682"/>
  <unicode hex="00AF"/>
  <outline>
    <contour>
      <point x="-11" y="1199" type="line"/>
      <point x="694" y="1199" type="line"/>
      <point x="694" y="1274" type="line"/>
      <point x="-11" y="1274" type="line"/>
    </contour>
  </outline>
</glyph>
<glyph name="degree" format="1">
  <advance width="743"/>
  <unicode hex="00B0"/>
  <outline>
    <contour>
      <point x="572" y="1112" type="curve" smooth="yes"/>
      <point x="572" y="1002"/>
      <point x="479" y="915"/>
      <point x="372" y="915" type="curve" smooth="yes"/>
      <point x="256" y="915"/>
      <point x="170" y="1008"/>
      <point x="170" y="1112" type="curve" smooth="yes"/>
      <point x="170" y="1217"/>
      <point x="258" y="1308"/>
      <point x="372" y="1308" type="curve" smooth="yes"/>
      <point x="495" y="1308"/>
      <point x="572" y="1201"/>
    </contour>
    <contour>
      <point x="372" y="1398" type="curve" smooth="yes"/>
      <point x="209" y="1398"/>
      <point x="79" y="1271"/>
      <point x="79" y="1112" type="curve" smooth="yes"/>
      <point x="79" y="953"/>
      <point x="209" y="826"/>
      <point x="371" y="826" type="curve" smooth="yes"/>
      <point x="533" y="826"/>
      <point x="665" y="955"/>
      <point x="665" y="1112" type="curve" smooth="yes"/>
      <point x="665" y="1270"/>
      <point x="534" y="1398"/>
    </contour>
  </outline>
</glyph>
<glyph name="plusminus" format="1">
  <advance width="1536"/>
  <unicode hex="00B1"/>
  <outline>
    <contour>
      <point x="830" y="1244" type="line"/>
      <point x="707" y="1244" type="line"/>
      <point x="707" y="846" type="line"/>
      <point x="197" y="846" type="line"/>
      <point x="197" y="726" type="line"/>
      <point x="707" y="726" type="line"/>
      <point x="707" y="328" type="line"/>
      <point x="830" y="328" type="line"/>
      <point x="830" y="726" type="line"/>
      <point x="1338" y="726" type="line"/>
      <point x="1338" y="846" type="line"/>
      <point x="830" y="846" type="line"/>
    </contour>
    <contour>
      <point x="1338" y="124" type="line"/>
      <point x="197" y="124" type="line"/>
      <point x="197" y="5" type="line"/>
      <point x="1338" y="5" type="line"/>
    </contour>
  </outline>
</glyph>
<glyph name="twosuperior" format="1">
  <advance width="1142"/>
  <unicode hex="00B2"/>
  <outline>
    <contour>
      <point x="130" y="0" type="curve"/>
      <point x="716" y="0" type="line"/>
      <point x="716" y="264" type="line"/>
      <point x="644" y="264" type="line"/>
      <point x="643" y="107"/>
      <point x="642" y="80"/>
      <point x="596" y="80" type="curve" smooth="yes"/>
      <point x="236" y="80" type="line"/>
      <point x="236" y="161"/>
      <point x="281" y="253"/>
      <point x="448" y="364" type="curve" smooth="yes"/>
      <point x="629" y="485"/>
      <point x="716" y="533"/>
      <point x="716" y="672" type="curve" smooth="yes"/>
      <point x="716" y="822"/>
      <point x="616" y="910"/>
      <point x="443" y="910" type="curve" smooth="yes"/>
      <point x="306" y="910"/>
      <point x="218" y="882"/>
      <point x="150" y="828" type="curve"/>
      <point x="150" y="658" type="line"/>
      <point x="229" y="656" type="line"/>
      <point x="229" y="773"/>
      <point x="274" y="841"/>
      <point x="423" y="841" type="curve" smooth="yes"/>
      <point x="529" y="841"/>
      <point x="603" y="780"/>
      <point x="603" y="684" type="curve" smooth="yes"/>
      <point x="603" y="603"/>
      <point x="562" y="555"/>
      <point x="475" y="497" type="curve" smooth="yes"/>
      <point x="285" y="371"/>
      <point x="129" y="280"/>
      <point x="129" y="30" type="curve" smooth="yes"/>
      <point x="129" y="19"/>
      <point x="129" y="9"/>
    </contour>
  </outline>
</glyph>
<glyph name="threesuperior" format="1">
  <advance width="1142"/>
  <unicode hex="00B3"/>
  <outline>
    <contour>
      <point x="115" y="262" type="line"/>
      <point x="116" y="77"/>
      <point x="233" y="-23"/>
      <point x="405" y="-23" type="curve" smooth="yes"/>
      <point x="608" y="-23"/>
      <point x="732" y="77"/>
      <point x="732" y="241" type="curve" smooth="yes"/>
      <point x="732" y="382"/>
      <point x="645" y="452"/>
      <point x="524" y="476" type="curve"/>
      <point x="638" y="505"/>
      <point x="696" y="575"/>
      <point x="696" y="680" type="curve" smooth="yes"/>
      <point x="696" y="824"/>
      <point x="588" y="911"/>
      <point x="407" y="911" type="curve" smooth="yes"/>
      <point x="306" y="911"/>
      <point x="216" y="886"/>
      <point x="146" y="836" type="curve"/>
      <point x="146" y="660" type="line"/>
      <point x="227" y="659" type="line"/>
      <point x="228" y="775"/>
      <point x="275" y="842"/>
      <point x="403" y="842" type="curve" smooth="yes"/>
      <point x="512" y="842"/>
      <point x="585" y="777"/>
      <point x="585" y="682" type="curve" smooth="yes"/>
      <point x="585" y="568"/>
      <point x="497" y="510"/>
      <point x="363" y="507" type="curve"/>
      <point x="363" y="432" type="line"/>
      <point x="498" y="432"/>
      <point x="617" y="387"/>
      <point x="617" y="242" type="curve" smooth="yes"/>
      <point x="617" y="113"/>
      <point x="516" y="54"/>
      <point x="414" y="54" type="curve" smooth="yes"/>
      <point x="274" y="54"/>
      <point x="200" y="123"/>
      <point x="200" y="263" type="curve"/>
    </contour>
  </outline>
</glyph>
<glyph name="acute" format="1">
  <advance width="853"/>
  <unicode hex="00B4"/>
  <outline>
    <contour>
      <point x="270" y="1029" type="line"/>
      <point x="354" y="1029" type="line"/>
      <point x="637" y="1291" type="line" smooth="yes"/>
      <point x="648" y="1301"/>
      <point x="652" y="1310"/>
      <point x="652" y="1319" type="curve" smooth="yes"/>
      <point x="652" y="1340"/>
      <point x="624" y="1354"/>
      <point x="590" y="1354" type="curve" smooth="yes"/>
      <point x="541" y="1354"/>
      <point x="490" y="1314"/>
      <point x="457" y="1271" type="curve" smooth="yes"/>
    </contour>
  </outline>
</glyph>
<glyph name="mu" format="1">
  <advance width="1145"/>
  <unicode hex="00B5"/>
  <outline>
    <contour>
      <point x="233" y="-413" type="curve" smooth="yes"/>
      <point x="298" y="-413"/>
      <point x="318" y="-366"/>
      <point x="318" y="-232" type="curve" smooth="yes"/>
      <point x="318" y="-159"/>
      <point x="316" y="-64"/>
      <point x="314" y="14" type="curve"/>
      <point x="353" y="-8"/>
      <point x="403" y="-20"/>
      <point x="472" y="-20" type="curve" smooth="yes"/>
      <point x="613" y="-20"/>
      <point x="737" y="29"/>
      <point x="829" y="130" type="curve"/>
      <point x="829" y="124"/>
      <point x="829" y="2"/>
      <point x="829" y="-4" type="curve"/>
      <point x="883.111571312" y="-2.79752063751"/>
      <point x="939.030588395" y="-1.59504127502"/>
      <point x="1000.8865421" y="-0.827245160348" type="curve" smooth="yes"/>
      <point x="1041.91127914" y="-0.318019583629"/>
      <point x="1085.54752207" y="-1.11022302463e-16"/>
      <point x="1133" y="0" type="curve"/>
      <point x="1133" y="89" type="line"/>
      <point x="1010" y="89"/>
      <point x="990" y="91"/>
      <point x="990" y="140" type="curve" smooth="yes"/>
      <point x="990" y="900" type="line"/>
      <point x="914.004134059" y="895.698347211"/>
      <point x="836.980256078" y="893.966724522"/>
      <point x="762.244979201" y="893.331081646" type="curve" smooth="yes"/>
      <point x="732.738541731" y="893.080121757"/>
      <point x="703.588844717" y="893.0"/>
      <point x="675" y="893" type="curve"/>
      <point x="675" y="805" type="line"/>
      <point x="806" y="805"/>
      <point x="822" y="805"/>
      <point x="822" y="733" type="curve" smooth="yes"/>
      <point x="822" y="486" type="line" smooth="yes"/>
      <point x="822" y="480"/>
      <point x="822" y="246"/>
      <point x="820" y="242" type="curve" smooth="yes"/>
      <point x="770" y="157"/>
      <point x="670" y="92"/>
      <point x="526" y="92" type="curve" smooth="yes"/>
      <point x="372" y="92"/>
      <point x="351" y="202"/>
      <point x="351" y="371" type="curve" smooth="yes"/>
      <point x="351" y="899" type="line"/>
      <point x="269.977274597" y="894.77272737"/>
      <point x="207.320767354" y="893.523760388"/>
      <point x="136.101631996" y="893.154747396" type="curve" smooth="yes"/>
      <point x="106.235540642" y="893.0"/>
      <point x="74.8636382818" y="893.0"/>
      <point x="40" y="893" type="curve"/>
      <point x="40" y="805" type="line"/>
      <point x="166" y="805"/>
      <point x="183" y="806"/>
      <point x="183" y="738" type="curve" smooth="yes"/>
      <point x="184" y="363" type="line" smooth="yes"/>
      <point x="185" y="122"/>
      <point x="157" y="-168"/>
      <point x="157" y="-321" type="curve" smooth="yes"/>
      <point x="157" y="-382"/>
      <point x="196" y="-413"/>
    </contour>
  </outline>
</glyph>
<glyph name="paragraph" format="1">
  <advance width="1214"/>
  <unicode hex="00B6"/>
  <outline>
    <contour>
      <point x="1142" y="1284" type="line"/>
      <point x="1142" y="1402" type="line"/>
      <point x="551" y="1402" type="line" smooth="yes"/>
      <point x="275" y="1402"/>
      <point x="90" y="1265"/>
      <point x="90" y="1028" type="curve" smooth="yes"/>
      <point x="90" y="816"/>
      <point x="237" y="652"/>
      <point x="516" y="647" type="curve"/>
      <point x="516" y="-213" type="line"/>
      <point x="642" y="-213" type="line"/>
      <point x="642" y="1284" type="line"/>
      <point x="860" y="1284" type="line"/>
      <point x="860" y="-213" type="line"/>
      <point x="985" y="-213" type="line"/>
      <point x="985" y="1284" type="line"/>
    </contour>
  </outline>
</glyph>
<glyph name="periodcentered" format="1">
  <advance width="560"/>
  <unicode hex="00B7"/>
  <outline>
    <contour>
      <point x="271" y="894" type="curve" smooth="yes"/>
      <point x="195" y="894"/>
      <point x="164" y="851"/>
      <point x="164" y="804" type="curve" smooth="yes"/>
      <point x="164" y="754"/>
      <point x="194" y="713"/>
      <point x="271" y="713" type="curve" smooth="yes"/>
      <point x="348" y="713"/>
      <point x="379" y="756"/>
      <point x="379" y="804" type="curve" smooth="yes"/>
      <point x="379" y="851"/>
      <point x="347" y="894"/>
    </contour>
  </outline>
</glyph>
<glyph name="cedilla" format="1">
  <advance width="853"/>
  <unicode hex="00B8"/>
  <outline>
    <contour>
      <point x="383" y="-6" type="line"/>
      <point x="369" y="-175" type="line"/>
      <point x="375" y="-174"/>
      <point x="382" y="-174"/>
      <point x="388" y="-174" type="curve" smooth="yes"/>
      <point x="469" y="-176"/>
      <point x="514" y="-201"/>
      <point x="514" y="-256" type="curve" smooth="yes"/>
      <point x="514" y="-320"/>
      <point x="466" y="-350"/>
      <point x="378" y="-350" type="curve" smooth="yes"/>
      <point x="335" y="-350"/>
      <point x="285" y="-341"/>
      <point x="230" y="-320" type="curve"/>
      <point x="211" y="-391" type="line"/>
      <point x="286" y="-417"/>
      <point x="342" y="-424"/>
      <point x="396" y="-424" type="curve" smooth="yes"/>
      <point x="547" y="-424"/>
      <point x="644" y="-368"/>
      <point x="644" y="-255" type="curve" smooth="yes"/>
      <point x="644" y="-161"/>
      <point x="575" y="-95"/>
      <point x="466" y="-95" type="curve" smooth="yes"/>
      <point x="459" y="-95"/>
      <point x="446" y="-96"/>
      <point x="445" y="-96" type="curve"/>
      <point x="451" y="-6" type="line"/>
    </contour>
  </outline>
</glyph>
<glyph name="onesuperior" format="1">
  <advance width="1142"/>
  <unicode hex="00B9"/>
  <outline>
    <contour>
      <point x="478" y="896" type="line"/>
      <point x="409" y="863"/>
      <point x="341" y="838"/>
      <point x="270" y="825" type="curve"/>
      <point x="270" y="739" type="line"/>
      <point x="324" y="751"/>
      <point x="381" y="770"/>
      <point x="436" y="798" type="curve"/>
      <point x="436" y="109" type="line" smooth="yes"/>
      <point x="436" y="86"/>
      <point x="436" y="68"/>
      <point x="362" y="68" type="curve" smooth="yes"/>
      <point x="291" y="68" type="line"/>
      <point x="291" y="0" type="line"/>
      <point x="357" y="0"/>
      <point x="399" y="1"/>
      <point x="493" y="1" type="curve" smooth="yes"/>
      <point x="575" y="1"/>
      <point x="626" y="-1"/>
      <point x="686" y="0" type="curve"/>
      <point x="686" y="68" type="line"/>
      <point x="640" y="68" type="line" smooth="yes"/>
      <point x="549" y="68"/>
      <point x="549" y="76"/>
      <point x="549" y="107" type="curve" smooth="yes"/>
      <point x="549" y="872" type="line"/>
    </contour>
  </outline>
</glyph>
<glyph name="ordmasculine" format="1">
  <advance width="771"/>
  <unicode hex="00BA"/>
  <outline>
    <contour>
      <point x="386" y="1243" type="curve" smooth="yes"/>
      <point x="514" y="1243"/>
      <point x="594" y="1151"/>
      <point x="594" y="1004" type="curve" smooth="yes"/>
      <point x="594" y="856"/>
      <point x="513" y="763"/>
      <point x="386" y="763" type="curve" smooth="yes"/>
      <point x="257" y="763"/>
      <point x="176" y="855"/>
      <point x="176" y="1003" type="curve" smooth="yes"/>
      <point x="176" y="1152"/>
      <point x="256" y="1243"/>
    </contour>
    <contour>
      <point x="384" y="1311" type="curve" smooth="yes"/>
      <point x="185" y="1311"/>
      <point x="53" y="1189"/>
      <point x="53" y="1003" type="curve" smooth="yes"/>
      <point x="53" y="816"/>
      <point x="186" y="694"/>
      <point x="386" y="694" type="curve" smooth="yes"/>
      <point x="585" y="694"/>
      <point x="718" y="816"/>
      <point x="718" y="1003" type="curve" smooth="yes"/>
      <point x="718" y="1189"/>
      <point x="584" y="1311"/>
    </contour>
  </outline>
</glyph>
<glyph name="guillemotright" format="1">
  <advance width="1003"/>
  <unicode hex="00BB"/>
  <outline>
    <contour>
      <point x="82" y="841" type="line"/>
      <point x="353" y="449" type="line"/>
      <point x="82" y="59" type="line"/>
      <point x="249" y="59" type="line"/>
      <point x="506" y="449" type="line"/>
      <point x="249" y="841" type="line"/>
    </contour>
    <contour>
      <point x="506" y="841" type="line"/>
      <point x="776" y="449" type="line"/>
      <point x="506" y="59" type="line"/>
      <point x="673" y="59" type="line"/>
      <point x="940" y="449" type="line"/>
      <point x="673" y="841" type="line"/>
    </contour>
  </outline>
</glyph>
